ExpletusSans-SemiBold.ufo
<glyph name="exclam" format="2">
  <advance width="702.0"/>
  <unicode hex="0021"/>
  <outline>
    <contour>
      <point x="195.72727272727272" y="425.22727272727275" type="line"/>
      <point x="371.0" y="425.22727272727275" type="line"/>
      <point x="534.2272727272727" y="1454.0" type="line" name="hr00"/>
      <point x="289.77272727272725" y="1454.0" type="line"/>
    </contour>
    <contour>
      <point x="226.0" y="-28.772727272727273" type="curve" smooth="yes"/>
      <point x="309.5" y="-28.772727272727273"/>
      <point x="381.0" y="34.72727272727273"/>
      <point x="391.45454545454544" y="117.45454545454545" type="curve" smooth="yes"/>
      <point x="400.6818181818182" y="200.95454545454544"/>
      <point x="344.8636363636364" y="267.6818181818182"/>
      <point x="261.3636363636364" y="267.6818181818182" type="curve" smooth="yes"/>
      <point x="177.4090909090909" y="267.6818181818182"/>
      <point x="105.45454545454545" y="200.95454545454544"/>
      <point x="96.22727272727272" y="117.45454545454545" type="curve" smooth="yes"/>
      <point x="85.77272727272728" y="34.72727272727273"/>
      <point x="142.04545454545453" y="-28.772727272727273"/>
    </contour>
  </outline>
</glyph>
<glyph name="numbersign" format="2">
  <advance width="1788.0"/>
  <unicode hex="0023"/>
  <outline>
    <contour>
      <point x="303.90909090909093" y="0.0" type="line"/>
      <point x="500.09090909090907" y="0.0" type="line" name="hr01"/>
      <point x="791.1818181818181" y="933.2727272727273" type="line"/>
      <point x="1177.909090909091" y="933.2727272727273" type="line"/>
      <point x="1213.1363636363637" y="935.7272727272727" type="line"/>
      <point x="1198.2272727272727" y="903.7272727272727" type="line"/>
      <point x="1062.3636363636363" y="473.5" type="line"/>
      <point x="886.3181818181819" y="473.5" type="line" smooth="yes"/>
      <point x="761.6363636363636" y="473.5"/>
      <point x="699.5" y="392.5"/>
      <point x="664.2727272727273" y="316.5" type="curve"/>
      <point x="993.9090909090909" y="316.5" type="line"/>
      <point x="1023.5909090909091" y="318.95454545454544" type="line"/>
      <point x="1009.4545454545455" y="290.5" type="line"/>
      <point x="917.9090909090909" y="0.0" type="line"/>
      <point x="1114.090909090909" y="0.0" type="line" name="hr08"/>
      <point x="1212.409090909091" y="316.5" type="line"/>
      <point x="1461.7727272727273" y="316.5" type="line" name="hr07"/>
      <point x="1481.4545454545455" y="473.5" type="line"/>
      <point x="1258.5454545454545" y="473.5" type="line"/>
      <point x="1403.9545454545455" y="934.5" type="line"/>
      <point x="1657.0" y="934.5" type="line"/>
      <point x="1676.6818181818182" y="1091.5" type="line"/>
      <point x="1452.5454545454545" y="1091.5" type="line" name="hr06"/>
      <point x="1552.090909090909" y="1404.0" type="line"/>
      <point x="1355.909090909091" y="1404.0" type="line" name="hr05"/>
      <point x="1257.590909090909" y="1091.5" type="line"/>
      <point x="839.7727272727273" y="1091.5" type="line" name="hr04"/>
      <point x="938.0909090909091" y="1404.0" type="line"/>
      <point x="741.9090909090909" y="1404.0" type="line" name="hr03"/>
      <point x="644.8181818181819" y="1091.5" type="line"/>
      <point x="394.3636363636364" y="1091.5" type="line"/>
      <point x="374.6818181818182" y="933.2727272727273" type="line"/>
      <point x="564.5" y="933.2727272727273" type="line"/>
      <point x="600.3636363636364" y="935.7272727272727" type="line"/>
      <point x="586.6818181818181" y="909.8636363636364" type="line"/>
      <point x="449.59090909090907" y="472.27272727272725" type="line"/>
      <point x="200.36363636363637" y="472.27272727272725" type="line"/>
      <point x="180.6818181818182" y="316.5" type="line"/>
      <point x="381.59090909090907" y="316.5" type="line"/>
      <point x="410.8181818181818" y="318.95454545454544" type="line" name="hr02"/>
      <point x="396.6818181818182" y="295.40909090909093" type="line"/>
    </contour>
  </outline>
</glyph>
<glyph name="dollar" format="2">
  <advance width="1028.0"/>
  <unicode hex="0024"/>
  <outline>
    <contour>
      <point x="405.1363636363636" y="-214.0" type="line"/>
      <point x="590.8636363636364" y="-214.0" type="line"/>
      <point x="616.8636363636364" y="-14.454545454545455" type="line"/>
      <point x="849.3181818181819" y="21.863636363636363"/>
      <point x="1006.8181818181819" y="165.0"/>
      <point x="1030.5" y="358.1363636363636" type="curve" smooth="yes"/>
      <point x="1084.5" y="801.0454545454545"/>
      <point x="417.1818181818182" y="801.1818181818181"/>
      <point x="450.72727272727275" y="1079.409090909091" type="curve" smooth="yes"/>
      <point x="462.72727272727275" y="1170.8181818181818"/>
      <point x="551.8181818181819" y="1244.090909090909"/>
      <point x="677.2272727272727" y="1244.090909090909" type="curve" smooth="yes"/>
      <point x="760.5909090909091" y="1244.090909090909"/>
      <point x="847.1818181818181" y="1231.6363636363637"/>
      <point x="960.4090909090909" y="1198.8636363636363" type="curve"/>
      <point x="1047.1363636363637" y="1360.7727272727273" type="line"/>
      <point x="943.7727272727273" y="1393.2272727272727"/>
      <point x="868.0909090909091" y="1410.0"/>
      <point x="792.8636363636364" y="1418.0" type="curve"/>
      <point x="816.8636363636364" y="1620.0" type="line"/>
      <point x="631.1363636363636" y="1620.0" type="line"/>
      <point x="607.1363636363636" y="1419.5454545454545" type="line"/>
      <point x="404.3636363636364" y="1395.8636363636363"/>
      <point x="242.22727272727272" y="1269.8181818181818"/>
      <point x="216.54545454545456" y="1069.590909090909" type="curve" smooth="yes"/>
      <point x="165.77272727272728" y="643.4090909090909"/>
      <point x="829.8636363636364" y="661.0"/>
      <point x="792.7727272727273" y="362.1363636363636" type="curve" smooth="yes"/>
      <point x="780.0" y="253.63636363636363"/>
      <point x="662.1363636363636" y="159.5909090909091"/>
      <point x="508.54545454545456" y="159.5909090909091" type="curve" smooth="yes"/>
      <point x="408.8636363636364" y="159.5909090909091"/>
      <point x="290.59090909090907" y="181.5909090909091"/>
      <point x="162.3181818181818" y="242.5" type="curve"/>
      <point x="74.68181818181819" y="76.9090909090909" type="line"/>
      <point x="202.95454545454547" y="14.90909090909091"/>
      <point x="326.04545454545456" y="-13.545454545454545"/>
      <point x="429.1363636363636" y="-22.0" type="curve" name="hr01"/>
    </contour>
  </outline>
</glyph>
<glyph name="percent" format="2">
  <advance width="1628.0"/>
  <unicode hex="0025"/>
  <outline>
    <contour>
      <point x="291.45454545454544" y="0.0" type="line"/>
      <point x="481.77272727272725" y="0.0" type="line"/>
      <point x="1529.7727272727273" y="1404.0" type="line"/>
      <point x="1339.4545454545455" y="1404.0" type="line"/>
    </contour>
    <contour>
      <point x="440.5" y="619.2272727272727" type="curve" smooth="yes"/>
      <point x="642.4545454545455" y="619.2272727272727"/>
      <point x="796.4545454545455" y="769.2272727272727"/>
      <point x="827.6818181818181" y="1027.2272727272727" type="curve"/>
      <point x="858.4545454545455" y="1284.0"/>
      <point x="743.2272727272727" y="1434.0"/>
      <point x="541.2727272727273" y="1434.0" type="curve"/>
      <point x="337.77272727272725" y="1434.0"/>
      <point x="185.77272727272728" y="1284.0"/>
      <point x="155.0" y="1027.2272727272727" type="curve"/>
      <point x="123.77272727272728" y="767.2272727272727"/>
      <point x="237.0" y="619.2272727272727"/>
    </contour>
    <contour>
      <point x="457.72727272727275" y="762.5454545454545" type="curve" smooth="yes"/>
      <point x="377.22727272727275" y="762.5454545454545"/>
      <point x="332.90909090909093" y="849.6363636363636"/>
      <point x="355.6818181818182" y="1027.2272727272727" type="curve"/>
      <point x="377.22727272727275" y="1201.590909090909"/>
      <point x="442.3181818181818" y="1290.6818181818182"/>
      <point x="522.8181818181819" y="1290.6818181818182" type="curve"/>
      <point x="605.7727272727273" y="1290.6818181818182"/>
      <point x="647.3181818181819" y="1201.590909090909"/>
      <point x="625.7727272727273" y="1027.2272727272727" type="curve"/>
      <point x="603.0" y="849.6363636363636"/>
      <point x="540.6818181818181" y="762.5454545454545"/>
    </contour>
    <contour>
      <point x="1279.9545454545455" y="-26.0" type="curve" smooth="yes" name="hr01"/>
      <point x="1482.6818181818182" y="-26.0"/>
      <point x="1635.909090909091" y="124.0"/>
      <point x="1667.909090909091" y="382.0" type="curve" smooth="yes"/>
      <point x="1699.909090909091" y="638.0"/>
      <point x="1582.6818181818182" y="788.0"/>
      <point x="1379.9545454545455" y="788.0" type="curve" smooth="yes"/>
      <point x="1177.2272727272727" y="788.0"/>
      <point x="1027.2272727272727" y="638.0"/>
      <point x="995.2272727272727" y="382.0" type="curve" smooth="yes"/>
      <point x="963.2272727272727" y="122.0"/>
      <point x="1077.2272727272727" y="-26.0"/>
    </contour>
    <contour>
      <point x="1297.6363636363637" y="116.54545454545455" type="curve" smooth="yes"/>
      <point x="1217.909090909091" y="116.54545454545455"/>
      <point x="1174.3636363636363" y="204.4090909090909"/>
      <point x="1195.909090909091" y="382.0" type="curve" smooth="yes"/>
      <point x="1217.4545454545455" y="555.5909090909091"/>
      <point x="1282.5454545454545" y="645.4545454545455"/>
      <point x="1362.2727272727273" y="645.4545454545455" type="curve" smooth="yes"/>
      <point x="1446.0" y="645.4545454545455"/>
      <point x="1487.5454545454545" y="555.5909090909091"/>
      <point x="1466.0" y="382.0" type="curve" smooth="yes"/>
      <point x="1444.4545454545455" y="204.4090909090909"/>
      <point x="1381.3636363636363" y="116.54545454545455"/>
    </contour>
  </outline>
</glyph>
<glyph name="ampersand" format="2">
  <advance width="1522.0"/>
  <unicode hex="0026"/>
  <outline>
    <contour>
      <point x="666.0" y="-22.0" type="curve" smooth="yes"/>
      <point x="796.0454545454545" y="-22.0"/>
      <point x="901.1363636363636" y="16.18181818181818"/>
      <point x="1003.9090909090909" y="87.27272727272728" type="curve"/>
      <point x="952.8181818181819" y="146.1818181818182"/>
      <point x="893.0909090909091" y="187.63636363636363"/>
      <point x="796.5" y="171.9090909090909" type="curve" smooth="yes"/>
      <point x="766.3181818181819" y="166.04545454545456"/>
      <point x="746.9090909090909" y="161.27272727272728"/>
      <point x="718.9090909090909" y="161.27272727272728" type="curve" smooth="yes" name="hr02"/>
      <point x="567.6363636363636" y="161.27272727272728"/>
      <point x="501.90909090909093" y="280.22727272727275"/>
      <point x="522.2272727272727" y="444.0" type="curve" smooth="yes"/>
      <point x="533.0" y="538.0454545454545"/>
      <point x="578.2727272727273" y="607.0"/>
      <point x="639.0909090909091" y="666.8636363636364" type="curve"/>
      <point x="660.3181818181819" y="695.1363636363636" type="line"/>
      <point x="673.5454545454545" y="668.0909090909091" type="line"/>
      <point x="1165.909090909091" y="0.0" type="line"/>
      <point x="1452.2272727272727" y="0.0" type="line" name="hr01"/>
      <point x="1234.2272727272727" y="293.22727272727275" type="line"/>
      <point x="1333.0" y="427.22727272727275"/>
      <point x="1399.0" y="582.0"/>
      <point x="1457.0" y="758.0" type="curve"/>
      <point x="1260.2272727272727" y="758.0" type="line"/>
      <point x="1231.1363636363637" y="651.9545454545455"/>
      <point x="1194.5" y="565.7727272727273"/>
      <point x="1138.0" y="473.27272727272725" type="curve"/>
      <point x="1119.5454545454545" y="438.22727272727275" type="line"/>
      <point x="1104.0" y="469.5909090909091" type="line"/>
      <point x="856.2272727272727" y="808.0" type="line"/>
      <point x="762.2272727272727" y="940.0"/>
      <point x="702.2272727272727" y="1017.5454545454545"/>
      <point x="715.7727272727273" y="1127.2727272727273" type="curve" smooth="yes"/>
      <point x="727.7727272727273" y="1223.0"/>
      <point x="817.9545454545455" y="1290.7272727272727"/>
      <point x="935.8181818181819" y="1290.7272727272727" type="curve" smooth="yes"/>
      <point x="1007.8181818181819" y="1290.7272727272727"/>
      <point x="1102.1363636363637" y="1274.7272727272727"/>
      <point x="1179.1818181818182" y="1244.409090909091" type="curve"/>
      <point x="1254.2272727272727" y="1406.0" type="line"/>
      <point x="1166.090909090909" y="1450.7727272727273"/>
      <point x="1050.7272727272727" y="1474.0"/>
      <point x="962.7272727272727" y="1474.0" type="curve" smooth="yes"/>
      <point x="710.1363636363636" y="1474.0"/>
      <point x="518.6818181818181" y="1335.5"/>
      <point x="491.0" y="1109.2727272727273" type="curve" smooth="yes"/>
      <point x="480.22727272727275" y="1028.3181818181818"/>
      <point x="495.1818181818182" y="949.9545454545455"/>
      <point x="565.4545454545455" y="830.7727272727273" type="curve"/>
      <point x="423.45454545454544" y="732.7727272727273"/>
      <point x="299.59090909090907" y="598.7727272727273"/>
      <point x="277.59090909090907" y="418.0" type="curve" smooth="yes"/>
      <point x="247.9090909090909" y="167.77272727272728"/>
      <point x="396.0" y="-22.0"/>
    </contour>
  </outline>
</glyph>
<glyph name="quotesingle" format="2">
  <advance width="382.0"/>
  <unicode hex="0027"/>
  <outline>
    <contour>
      <point x="199.95454545454544" y="1025.1818181818182" type="line"/>
      <point x="413.04545454545456" y="1025.1818181818182" type="line"/>
      <point x="465.95454545454544" y="1454.0" type="line"/>
      <point x="252.86363636363637" y="1454.0" type="line" name="hr00"/>
    </contour>
  </outline>
</glyph>
<glyph name="parenleft" format="2">
  <advance width="806.0"/>
  <unicode hex="0028"/>
  <outline>
    <contour>
      <point x="653.3181818181819" y="-352.0" type="curve"/>
      <point x="778.9090909090909" y="-232.36363636363637" type="line"/>
      <point x="560.2272727272727" y="-27.272727272727273"/>
      <point x="565.3181818181819" y="148.0"/>
      <point x="619.3181818181819" y="592.0" type="curve" name="hr00"/>
      <point x="673.3181818181819" y="1034.0"/>
      <point x="711.3181818181819" y="1208.0454545454545"/>
      <point x="982.0" y="1415.590909090909" type="curve"/>
      <point x="885.3181818181819" y="1534.0" type="line"/>
      <point x="551.3181818181819" y="1326.0"/>
      <point x="465.77272727272725" y="1090.0"/>
      <point x="405.77272727272725" y="592.0" type="curve"/>
      <point x="343.77272727272725" y="92.0"/>
      <point x="371.3181818181818" y="-144.0"/>
    </contour>
  </outline>
</glyph>
<glyph name="parenright" format="2">
  <advance width="802.0"/>
  <unicode hex="0029"/>
  <outline>
    <contour>
      <point x="66.22727272727272" y="-352.0" type="line"/>
      <point x="400.22727272727275" y="-144.0"/>
      <point x="483.77272727272725" y="92.0"/>
      <point x="545.7727272727273" y="592.0" type="curve"/>
      <point x="605.7727272727273" y="1090.0"/>
      <point x="580.2272727272727" y="1326.0"/>
      <point x="298.22727272727275" y="1534.0" type="curve"/>
      <point x="172.63636363636363" y="1415.590909090909" type="line"/>
      <point x="391.3181818181818" y="1208.0454545454545"/>
      <point x="386.22727272727275" y="1034.0"/>
      <point x="332.22727272727275" y="592.0" type="curve" name="hr00"/>
      <point x="278.22727272727275" y="148.0"/>
      <point x="237.77272727272728" y="-27.272727272727273"/>
      <point x="-28.454545454545453" y="-232.36363636363637" type="curve"/>
    </contour>
  </outline>
</glyph>
<glyph name="asterisk" format="2">
  <advance width="1060.0"/>
  <unicode hex="002A"/>
  <outline>
    <contour>
      <point x="468.72727272727275" y="698.1818181818181" type="line"/>
      <point x="622.7727272727273" y="1004.0" type="line"/>
      <point x="700.3636363636364" y="698.1818181818181" type="line"/>
      <point x="879.1818181818181" y="793.8181818181819" type="line"/>
      <point x="702.7727272727273" y="1046.0" type="line"/>
      <point x="724.7272727272727" y="1043.5454545454545"/>
      <point x="748.7272727272727" y="1041.090909090909"/>
      <point x="1021.5454545454545" y="995.1363636363636" type="curve"/>
      <point x="1044.4545454545455" y="1186.409090909091" type="line"/>
      <point x="716.0" y="1136.0" type="line"/>
      <point x="729.0454545454545" y="1150.2727272727273"/>
      <point x="750.9090909090909" y="1176.7727272727273"/>
      <point x="953.5" y="1388.1818181818182" type="curve"/>
      <point x="799.5909090909091" y="1485.0454545454545" type="line" name="hr00"/>
      <point x="643.5454545454545" y="1180.0" type="line"/>
      <point x="562.4090909090909" y="1485.0454545454545" type="line"/>
      <point x="383.59090909090907" y="1388.1818181818182" type="line"/>
      <point x="560.3181818181819" y="1138.0" type="line"/>
      <point x="246.45454545454547" y="1187.6363636363637" type="line"/>
      <point x="223.54545454545453" y="996.3636363636364" type="line"/>
      <point x="552.0" y="1048.0" type="line"/>
      <point x="314.8181818181818" y="793.8181818181819" type="line"/>
    </contour>
  </outline>
</glyph>
<glyph name="plus" format="2">
  <advance width="1136.0"/>
  <unicode hex="002B"/>
  <outline>
    <contour>
      <point x="481.1363636363636" y="124.0" type="line"/>
      <point x="667.6363636363636" y="124.0" type="line"/>
      <point x="717.1818181818181" y="526.3636363636364" type="line"/>
      <point x="1093.5454545454545" y="526.3636363636364" type="line"/>
      <point x="1114.4545454545455" y="693.6363636363636" type="line"/>
      <point x="738.0909090909091" y="693.6363636363636" type="line"/>
      <point x="787.6363636363636" y="1092.0" type="line"/>
      <point x="601.1363636363636" y="1092.0" type="line"/>
      <point x="551.5909090909091" y="693.6363636363636" type="line"/>
      <point x="178.45454545454547" y="693.6363636363636" type="line" name="hr00"/>
      <point x="157.54545454545453" y="526.3636363636364" type="line"/>
      <point x="530.6818181818181" y="526.3636363636364" type="line"/>
    </contour>
  </outline>
</glyph>
<glyph name="comma" format="2">
  <advance width="463.95454545454544"/>
  <unicode hex="002C"/>
  <outline>
    <contour>
      <point x="82.31818181818181" y="-232.8181818181818" type="line"/>
      <point x="238.72727272727272" y="-269.27272727272725"/>
      <point x="314.04545454545456" y="-113.86363636363637"/>
      <point x="332.95454545454544" y="40.0" type="curve" smooth="yes"/>
      <point x="352.95454545454544" y="196.0" type="line"/>
      <point x="136.0" y="196.0" type="line" name="hr00"/>
    </contour>
  </outline>
</glyph>
<glyph name="period" format="2">
  <advance width="571.5"/>
  <unicode hex="002E"/>
  <outline>
    <contour>
      <point x="266.8636363636364" y="-30.0" type="curve" smooth="yes"/>
      <point x="350.3636363636364" y="-30.0"/>
      <point x="421.8636363636364" y="33.5"/>
      <point x="432.3181818181818" y="116.22727272727272" type="curve" smooth="yes"/>
      <point x="441.54545454545456" y="199.72727272727272"/>
      <point x="385.72727272727275" y="266.45454545454544"/>
      <point x="302.22727272727275" y="266.45454545454544" type="curve" smooth="yes"/>
      <point x="218.27272727272728" y="266.45454545454544"/>
      <point x="146.3181818181818" y="199.72727272727272"/>
      <point x="137.0909090909091" y="116.22727272727272" type="curve" smooth="yes" name="hr00"/>
      <point x="126.63636363636363" y="33.5"/>
      <point x="182.9090909090909" y="-30.0"/>
    </contour>
  </outline>
</glyph>
<glyph name="slash" format="2">
  <advance width="664.0"/>
  <unicode hex="002F"/>
  <outline>
    <contour>
      <point x="-23.0" y="-124.0" type="line" name="hr00"/>
      <point x="185.3181818181818" y="-124.0" type="line"/>
      <point x="865.3181818181819" y="1454.0" type="line"/>
      <point x="655.7727272727273" y="1454.0" type="line"/>
    </contour>
  </outline>
</glyph>
<glyph name="zero" format="2">
  <advance width="1382.1363636363637"/>
  <unicode hex="0030"/>
  <outline>
    <contour>
      <point x="652.7727272727273" y="-35.68181818181818" type="curve" smooth="yes"/>
      <point x="1011.8181818181819" y="-35.68181818181818"/>
      <point x="1263.2727272727273" y="275.3636363636364"/>
      <point x="1313.909090909091" y="698.0" type="curve" smooth="yes"/>
      <point x="1362.5454545454545" y="1088.7727272727273"/>
      <point x="1216.4545454545455" y="1435.6818181818182"/>
      <point x="832.4545454545455" y="1435.6818181818182" type="curve" smooth="yes"/>
      <point x="481.59090909090907" y="1435.6818181818182"/>
      <point x="224.0909090909091" y="1140.7727272727273"/>
      <point x="169.3181818181818" y="698.0" type="curve" smooth="yes"/>
      <point x="114.47727272727272" y="242.70454545454547"/>
      <point x="311.20454545454544" y="-35.68181818181818"/>
    </contour>
    <contour>
      <point x="674.9090909090909" y="145.13636363636363" type="curve" smooth="yes"/>
      <point x="472.40909090909093" y="145.13636363636363"/>
      <point x="390.04545454545456" y="357.0"/>
      <point x="431.5909090909091" y="698.0" type="curve" smooth="yes"/>
      <point x="473.90909090909093" y="1040.2272727272727"/>
      <point x="607.3636363636364" y="1254.8636363636363"/>
      <point x="811.0909090909091" y="1254.8636363636363" type="curve" smooth="yes"/>
      <point x="1012.8181818181819" y="1254.8636363636363"/>
      <point x="1093.9545454545455" y="1040.2272727272727"/>
      <point x="1051.6363636363637" y="698.0" type="curve" smooth="yes"/>
      <point x="1010.0909090909091" y="357.0"/>
      <point x="876.6363636363636" y="145.13636363636363"/>
    </contour>
  </outline>
</glyph>
<glyph name="one" format="2">
  <advance width="638.0"/>
  <unicode hex="0031"/>
  <outline>
    <contour>
      <point x="269.59090909090907" y="0.0" type="line" name="hr00"/>
      <point x="500.8636363636364" y="0.0" type="line"/>
      <point x="672.8636363636364" y="1402.0" type="line"/>
      <point x="578.0" y="1402.0" type="line"/>
      <point x="114.36363636363636" y="1168.1818181818182" type="line"/>
      <point x="175.72727272727272" y="1021.3181818181819" type="line"/>
      <point x="408.6818181818182" y="1135.9545454545455" type="line"/>
    </contour>
  </outline>
</glyph>
<glyph name="two" format="2">
  <advance width="1093.0454545454545"/>
  <unicode hex="0032"/>
  <outline>
    <contour>
      <point x="98.04545454545455" y="0.0" type="line"/>
      <point x="992.2272727272727" y="0.0" type="line"/>
      <point x="1015.1363636363636" y="195.5909090909091" type="line"/>
      <point x="470.4090909090909" y="195.5909090909091" type="line"/>
      <point x="425.1818181818182" y="188.8181818181818" type="line"/>
      <point x="460.4090909090909" y="224.04545454545456" type="line"/>
      <point x="661.7727272727273" y="458.27272727272725"/>
      <point x="1063.1363636363637" y="767.0"/>
      <point x="1098.2272727272727" y="1050.1818181818182" type="curve" smooth="yes" name="hr00"/>
      <point x="1126.2272727272727" y="1285.090909090909"/>
      <point x="950.2272727272727" y="1423.6818181818182"/>
      <point x="667.2727272727273" y="1423.6818181818182" type="curve" smooth="yes"/>
      <point x="569.0909090909091" y="1423.6818181818182"/>
      <point x="452.95454545454544" y="1405.2272727272727"/>
      <point x="316.8181818181818" y="1341.6818181818182" type="curve"/>
      <point x="359.8636363636364" y="1177.0" type="line"/>
      <point x="468.5" y="1226.409090909091"/>
      <point x="558.1818181818181" y="1242.8636363636363"/>
      <point x="624.8181818181819" y="1242.8636363636363" type="curve"/>
      <point x="758.6818181818181" y="1242.8636363636363"/>
      <point x="854.4090909090909" y="1164.6818181818182"/>
      <point x="837.6363636363636" y="1029.409090909091" type="curve"/>
      <point x="806.8636363636364" y="771.5454545454545"/>
      <point x="320.95454545454544" y="429.45454545454544"/>
      <point x="109.72727272727272" y="101.77272727272728" type="curve"/>
    </contour>
  </outline>
</glyph>
<glyph name="three" format="2">
  <advance width="1056.0"/>
  <unicode hex="0033"/>
  <outline>
    <contour>
      <point x="406.59090909090907" y="-22.0" type="curve" smooth="yes"/>
      <point x="695.8181818181819" y="-22.0"/>
      <point x="946.2272727272727" y="155.77272727272728"/>
      <point x="975.4545454545455" y="398.04545454545456" type="curve" smooth="yes"/>
      <point x="997.4545454545455" y="575.1363636363636"/>
      <point x="897.2727272727273" y="706.0454545454545"/>
      <point x="764.2272727272727" y="759.4090909090909" type="curve"/>
      <point x="719.0" y="769.4090909090909" type="line"/>
      <point x="772.2272727272727" y="787.8636363636364" type="line"/>
      <point x="913.5909090909091" y="865.6818181818181"/>
      <point x="999.4545454545455" y="976.3181818181819"/>
      <point x="1015.4545454545455" y="1098.1818181818182" type="curve" smooth="yes" name="hr00"/>
      <point x="1038.6818181818182" y="1297.3636363636363"/>
      <point x="873.3636363636364" y="1424.0"/>
      <point x="631.0909090909091" y="1424.0" type="curve" smooth="yes"/>
      <point x="521.8636363636364" y="1424.0"/>
      <point x="398.1818181818182" y="1406.0"/>
      <point x="248.54545454545456" y="1341.2272727272727" type="curve"/>
      <point x="288.6818181818182" y="1175.3181818181818" type="line"/>
      <point x="412.5" y="1228.409090909091"/>
      <point x="498.6818181818182" y="1242.409090909091"/>
      <point x="574.6818181818181" y="1242.409090909091" type="curve" smooth="yes"/>
      <point x="686.8636363636364" y="1242.409090909091"/>
      <point x="768.0909090909091" y="1180.8181818181818"/>
      <point x="756.5454545454545" y="1077.2272727272727" type="curve"/>
      <point x="741.0" y="951.6363636363636"/>
      <point x="614.1818181818181" y="891.5"/>
      <point x="447.6818181818182" y="823.5454545454545" type="curve" smooth="yes"/>
      <point x="360.54545454545456" y="788.9090909090909" type="line"/>
      <point x="360.8636363636364" y="642.8636363636364" type="line"/>
      <point x="585.6363636363636" y="642.8636363636364"/>
      <point x="743.3181818181819" y="589.7727272727273"/>
      <point x="720.5454545454545" y="402.04545454545456" type="curve" smooth="yes"/>
      <point x="703.3181818181819" y="269.90909090909093"/>
      <point x="565.6818181818181" y="159.5909090909091"/>
      <point x="401.72727272727275" y="159.5909090909091" type="curve" smooth="yes"/>
      <point x="303.95454545454544" y="159.5909090909091"/>
      <point x="205.77272727272728" y="186.4090909090909"/>
      <point x="115.27272727272728" y="232.6818181818182" type="curve"/>
      <point x="37.31818181818181" y="70.77272727272727" type="line"/>
      <point x="134.13636363636363" y="20.18181818181818"/>
      <point x="258.27272727272725" y="-22.0"/>
    </contour>
  </outline>
</glyph>
<glyph name="four" format="2">
  <advance width="1190.0"/>
  <unicode hex="0034"/>
  <outline>
    <contour>
      <point x="717.0" y="0.0" type="line"/>
      <point x="947.4545454545455" y="0.0" type="line"/>
      <point x="983.0" y="293.59090909090907" type="line"/>
      <point x="1144.2272727272727" y="293.59090909090907" type="line"/>
      <point x="1165.1363636363637" y="472.40909090909093" type="line"/>
      <point x="1003.9090909090909" y="472.40909090909093" type="line"/>
      <point x="1119.4545454545455" y="1402.0" type="line"/>
      <point x="846.0454545454545" y="1402.0" type="line" name="hr00"/>
      <point x="119.45454545454545" y="459.77272727272725" type="line"/>
      <point x="99.31818181818181" y="293.59090909090907" type="line"/>
      <point x="681.3181818181819" y="293.59090909090907" type="line"/>
      <point x="664.5454545454545" y="365.8181818181818"/>
      <point x="617.4545454545455" y="473.1818181818182"/>
      <point x="505.3181818181818" y="473.1818181818182" type="curve"/>
      <point x="390.04545454545456" y="473.1818181818182" type="line"/>
      <point x="351.90909090909093" y="470.40909090909093" type="line"/>
      <point x="385.27272727272725" y="503.45454545454544" type="line"/>
      <point x="821.3181818181819" y="1065.3181818181818" type="line"/>
      <point x="857.3181818181819" y="1119.0" type="line"/>
      <point x="846.0909090909091" y="1057.6363636363637" type="line"/>
    </contour>
  </outline>
</glyph>
<glyph name="five" format="2">
  <advance width="1072.4545454545455"/>
  <unicode hex="0035"/>
  <outline>
    <contour>
      <point x="417.72727272727275" y="-23.227272727272727" type="curve" smooth="yes"/>
      <point x="738.9545454545455" y="-23.227272727272727"/>
      <point x="980.2272727272727" y="166.8181818181818"/>
      <point x="1011.9090909090909" y="421.3636363636364" type="curve" smooth="yes"/>
      <point x="1040.3636363636363" y="655.0"/>
      <point x="885.6818181818181" y="855.1818181818181"/>
      <point x="556.9090909090909" y="855.1818181818181" type="curve"/>
      <point x="533.1818181818181" y="855.1818181818181"/>
      <point x="506.54545454545456" y="854.4090909090909"/>
      <point x="478.22727272727275" y="851.6363636363636" type="curve"/>
      <point x="438.6818181818182" y="844.4090909090909" type="line" name="hr00"/>
      <point x="447.90909090909093" y="877.0454545454545" type="line"/>
      <point x="512.8636363636364" y="1207.1818181818182" type="line"/>
      <point x="1047.7727272727273" y="1207.1818181818182" type="line"/>
      <point x="1072.6818181818182" y="1402.0" type="line"/>
      <point x="347.77272727272725" y="1402.0" type="line"/>
      <point x="203.77272727272728" y="643.7272727272727" type="line"/>
      <point x="312.0" y="666.5"/>
      <point x="408.04545454545456" y="676.3636363636364"/>
      <point x="476.04545454545456" y="676.3636363636364" type="curve"/>
      <point x="657.4545454545455" y="676.3636363636364"/>
      <point x="776.0909090909091" y="591.5909090909091"/>
      <point x="755.7727272727273" y="425.3636363636364" type="curve" smooth="yes"/>
      <point x="739.7727272727273" y="299.3636363636364"/>
      <point x="632.5909090909091" y="158.36363636363637"/>
      <point x="438.6363636363636" y="158.36363636363637" type="curve" smooth="yes"/>
      <point x="363.8636363636364" y="158.36363636363637"/>
      <point x="264.1363636363636" y="178.36363636363637"/>
      <point x="145.27272727272728" y="235.45454545454544" type="curve"/>
      <point x="67.31818181818181" y="73.54545454545455" type="line"/>
      <point x="185.8181818181818" y="2.5"/>
      <point x="315.72727272727275" y="-23.227272727272727"/>
    </contour>
  </outline>
</glyph>
<glyph name="six" format="2">
  <advance width="1272.409090909091"/>
  <unicode hex="0036"/>
  <outline>
    <contour>
      <point x="675.2272727272727" y="-30.454545454545453" type="curve" smooth="yes"/>
      <point x="973.7727272727273" y="-30.454545454545453"/>
      <point x="1189.1363636363637" y="210.5909090909091"/>
      <point x="1217.1363636363637" y="441.8181818181818" type="curve" smooth="yes"/>
      <point x="1251.1363636363637" y="721.9545454545455"/>
      <point x="1084.090909090909" y="872.4090909090909"/>
      <point x="852.6818181818181" y="872.4090909090909" type="curve" smooth="yes"/>
      <point x="776.6363636363636" y="872.4090909090909"/>
      <point x="692.2272727272727" y="852.8636363636364"/>
      <point x="559.7272727272727" y="788.2272727272727" type="curve"/>
      <point x="588.0454545454545" y="735.8181818181819"/>
      <point x="648.4090909090909" y="666.1818181818181"/>
      <point x="745.5" y="684.0454545454545" type="curve"/>
      <point x="773.3636363636364" y="689.5909090909091"/>
      <point x="795.0454545454545" y="691.5909090909091"/>
      <point x="811.3636363636364" y="691.5909090909091" type="curve" smooth="yes"/>
      <point x="906.8181818181819" y="691.5909090909091"/>
      <point x="980.5454545454545" y="610.3181818181819"/>
      <point x="959.7727272727273" y="441.8181818181818" type="curve" smooth="yes"/>
      <point x="940.2272727272727" y="276.22727272727275"/>
      <point x="824.3636363636364" y="149.13636363636363"/>
      <point x="691.6818181818181" y="149.13636363636363" type="curve" smooth="yes"/>
      <point x="457.5909090909091" y="149.13636363636363"/>
      <point x="432.6818181818182" y="438.0"/>
      <point x="460.6818181818182" y="657.2272727272727" type="curve" smooth="yes"/>
      <point x="501.0" y="983.3181818181819"/>
      <point x="694.3181818181819" y="1236.090909090909"/>
      <point x="977.5454545454545" y="1236.090909090909" type="curve" name="hr00"/>
      <point x="1028.7727272727273" y="1236.090909090909"/>
      <point x="1089.2272727272727" y="1229.3181818181818"/>
      <point x="1157.9545454545455" y="1204.5454545454545" type="curve"/>
      <point x="1235.1363636363637" y="1369.6818181818182" type="line"/>
      <point x="1151.1818181818182" y="1401.6818181818182"/>
      <point x="1066.4545454545455" y="1416.909090909091"/>
      <point x="1000.4545454545455" y="1416.909090909091" type="curve"/>
      <point x="566.4545454545455" y="1416.909090909091"/>
      <point x="252.22727272727272" y="1045.0"/>
      <point x="204.54545454545456" y="653.2272727272727" type="curve" smooth="yes"/>
      <point x="160.0909090909091" y="299.45454545454544"/>
      <point x="272.0" y="-30.454545454545453"/>
    </contour>
  </outline>
</glyph>
<glyph name="seven" format="2">
  <advance width="1004.4545454545455"/>
  <unicode hex="0037"/>
  <outline>
    <contour>
      <point x="229.3181818181818" y="0.0" type="curve" name="hr00"/>
      <point x="482.22727272727275" y="0.0" type="line"/>
      <point x="618.2272727272727" y="629.7272727272727"/>
      <point x="839.8181818181819" y="944.2272727272727"/>
      <point x="1093.0454545454545" y="1224.2272727272727" type="curve"/>
      <point x="1115.5" y="1402.0" type="line"/>
      <point x="248.0" y="1402.0" type="line"/>
      <point x="222.3181818181818" y="1197.9545454545455" type="line"/>
      <point x="787.7272727272727" y="1197.9545454545455" type="line"/>
      <point x="828.4545454545455" y="1200.409090909091" type="line"/>
      <point x="800.6363636363636" y="1173.5" type="line"/>
      <point x="515.2272727272727" y="812.4090909090909"/>
      <point x="345.3181818181818" y="456.0"/>
    </contour>
  </outline>
</glyph>
<glyph name="eight" format="2">
  <advance width="1286.909090909091"/>
  <unicode hex="0038"/>
  <outline>
    <contour>
      <point x="651.9090909090909" y="-26.772727272727273" type="curve" smooth="yes"/>
      <point x="928.4545454545455" y="-26.772727272727273"/>
      <point x="1167.3636363636363" y="111.22727272727273"/>
      <point x="1197.3636363636363" y="356.0" type="curve" smooth="yes"/>
      <point x="1219.3636363636363" y="528.0"/>
      <point x="1144.909090909091" y="631.6818181818181"/>
      <point x="1041.6818181818182" y="704.5909090909091" type="curve"/>
      <point x="1011.2272727272727" y="721.3636363636364" type="line"/>
      <point x="1046.7272727272727" y="748.2727272727273" type="line"/>
      <point x="1151.1818181818182" y="855.1818181818181"/>
      <point x="1226.590909090909" y="957.1818181818181"/>
      <point x="1239.3636363636363" y="1062.0" type="curve" smooth="yes"/>
      <point x="1267.3636363636363" y="1291.2272727272727"/>
      <point x="1086.4545454545455" y="1426.4545454545455"/>
      <point x="835.9090909090909" y="1426.4545454545455" type="curve" smooth="yes"/>
      <point x="594.9090909090909" y="1426.4545454545455"/>
      <point x="368.0" y="1291.2272727272727"/>
      <point x="340.0" y="1062.0" type="curve" smooth="yes"/>
      <point x="282.0" y="591.2272727272727"/>
      <point x="996.3181818181819" y="679.4545454545455"/>
      <point x="956.0" y="356.0" type="curve" smooth="yes"/>
      <point x="942.4545454545455" y="241.77272727272728"/>
      <point x="832.0909090909091" y="152.8181818181818"/>
      <point x="673.5909090909091" y="152.8181818181818" type="curve" smooth="yes"/>
      <point x="521.8636363636364" y="152.8181818181818"/>
      <point x="421.3636363636364" y="232.4090909090909"/>
      <point x="437.6818181818182" y="365.27272727272725" type="curve" smooth="yes"/>
      <point x="441.6818181818182" y="395.27272727272725"/>
      <point x="452.0" y="419.90909090909093"/>
      <point x="471.54545454545456" y="457.1363636363636" type="curve" smooth="yes"/>
      <point x="508.95454545454544" y="538.1818181818181"/>
      <point x="465.95454545454544" y="622.6363636363636"/>
      <point x="414.0" y="686.6363636363636" type="curve"/>
      <point x="264.59090909090907" y="547.6818181818181"/>
      <point x="216.0" y="447.22727272727275"/>
      <point x="204.0" y="356.0" type="curve" smooth="yes"/>
      <point x="174.0" y="111.22727272727273"/>
      <point x="368.90909090909093" y="-26.772727272727273"/>
    </contour>
    <contour>
      <point x="856.6818181818181" y="804.5454545454545" type="curve"/>
      <point x="704.9545454545455" y="874.8636363636364"/>
      <point x="563.8181818181819" y="929.3181818181819"/>
      <point x="581.3636363636364" y="1062.0" type="curve" smooth="yes" name="hr00"/>
      <point x="594.9090909090909" y="1180.8181818181818"/>
      <point x="701.5909090909091" y="1244.8636363636363"/>
      <point x="814.2272727272727" y="1244.8636363636363" type="curve" smooth="yes"/>
      <point x="922.4090909090909" y="1244.8636363636363"/>
      <point x="1018.0" y="1182.8181818181818"/>
      <point x="1000.4545454545455" y="1039.2272727272727" type="curve"/>
      <point x="989.6818181818181" y="960.0909090909091"/>
      <point x="939.6363636363636" y="884.0909090909091"/>
    </contour>
  </outline>
</glyph>
<glyph name="nine" format="2">
  <advance width="1271.1818181818182"/>
  <unicode hex="0039"/>
  <outline>
    <contour>
      <point x="456.45454545454544" y="-20.0" type="curve"/>
      <point x="890.4545454545455" y="-20.0"/>
      <point x="1206.2272727272727" y="351.45454545454544"/>
      <point x="1253.909090909091" y="745.2272727272727" type="curve" smooth="yes"/>
      <point x="1297.590909090909" y="1097.4545454545455"/>
      <point x="1185.6818181818182" y="1427.3636363636363"/>
      <point x="783.2272727272727" y="1427.3636363636363" type="curve" smooth="yes"/>
      <point x="483.45454545454544" y="1427.3636363636363"/>
      <point x="268.54545454545456" y="1187.8636363636363"/>
      <point x="240.54545454545456" y="955.8636363636364" type="curve" smooth="yes"/>
      <point x="206.54545454545456" y="675.7272727272727"/>
      <point x="373.1363636363636" y="526.0454545454545"/>
      <point x="605.7727272727273" y="526.0454545454545" type="curve" smooth="yes"/>
      <point x="681.0454545454545" y="526.0454545454545"/>
      <point x="765.4545454545455" y="544.0454545454545"/>
      <point x="897.1818181818181" y="608.6818181818181" type="curve"/>
      <point x="869.6363636363636" y="661.8636363636364"/>
      <point x="809.5909090909091" y="732.2727272727273"/>
      <point x="712.1818181818181" y="712.8636363636364" type="curve"/>
      <point x="685.0909090909091" y="708.0909090909091"/>
      <point x="660.6363636363636" y="706.0909090909091"/>
      <point x="646.3181818181819" y="706.0909090909091" type="curve" smooth="yes"/>
      <point x="550.0909090909091" y="706.0909090909091"/>
      <point x="477.90909090909093" y="788.1363636363636"/>
      <point x="498.6818181818182" y="955.8636363636364" type="curve" smooth="yes"/>
      <point x="518.2272727272727" y="1119.4545454545455"/>
      <point x="633.3181818181819" y="1246.5454545454545"/>
      <point x="767.5454545454545" y="1246.5454545454545" type="curve" smooth="yes"/>
      <point x="1000.8636363636364" y="1246.5454545454545"/>
      <point x="1023.7727272727273" y="958.4545454545455"/>
      <point x="997.7727272727273" y="741.2272727272727" type="curve" smooth="yes"/>
      <point x="957.4545454545455" y="414.3636363636364"/>
      <point x="764.1363636363636" y="161.5909090909091"/>
      <point x="479.3636363636364" y="161.5909090909091" type="curve" smooth="yes" name="hr00"/>
      <point x="428.90909090909093" y="161.5909090909091"/>
      <point x="369.22727272727275" y="169.13636363636363"/>
      <point x="299.72727272727275" y="192.6818181818182" type="curve"/>
      <point x="221.77272727272728" y="28.772727272727273" type="line"/>
      <point x="304.5" y="-5.2272727272727275"/>
      <point x="390.45454545454544" y="-20.0"/>
    </contour>
  </outline>
</glyph>
<glyph name="less" format="2">
  <advance width="1226.0"/>
  <unicode hex="003C"/>
  <outline>
    <contour>
      <point x="1108.0" y="0.0" type="line"/>
      <point x="1134.590909090909" y="223.36363636363637" type="line" name="hr00"/>
      <point x="433.6363636363636" y="540.0" type="line"/>
      <point x="381.6363636363636" y="552.0" type="line"/>
      <point x="435.6363636363636" y="566.0" type="line"/>
      <point x="1214.6363636363637" y="882.6363636363636" type="line"/>
      <point x="1242.0" y="1104.0" type="line"/>
      <point x="149.6818181818182" y="626.5454545454545" type="line"/>
      <point x="131.54545454545453" y="477.45454545454544" type="line"/>
    </contour>
  </outline>
</glyph>
<glyph name="equal" format="2">
  <advance width="1212.0"/>
  <unicode hex="003D"/>
  <outline>
    <contour>
      <point x="227.54545454545453" y="775.5909090909091" type="line"/>
      <point x="1171.5454545454545" y="775.5909090909091" type="line"/>
      <point x="1193.2272727272727" y="948.4090909090909" type="line"/>
      <point x="249.22727272727272" y="948.4090909090909" type="line"/>
    </contour>
    <contour>
      <point x="173.54545454545453" y="333.59090909090907" type="line"/>
      <point x="1117.5454545454545" y="333.59090909090907" type="line"/>
      <point x="1138.4545454545455" y="506.40909090909093" type="line"/>
      <point x="194.45454545454547" y="506.40909090909093" type="line" name="hr00"/>
    </contour>
  </outline>
</glyph>
<glyph name="greater" format="2">
  <advance width="1226.0"/>
  <unicode hex="003E"/>
  <outline>
    <contour>
      <point x="96.0909090909091" y="0.0" type="line"/>
      <point x="1187.6363636363637" y="477.45454545454544" type="line"/>
      <point x="1205.7727272727273" y="626.5454545454545" type="line"/>
      <point x="230.0909090909091" y="1104.0" type="line"/>
      <point x="202.72727272727272" y="882.6363636363636" type="line"/>
      <point x="904.4545454545455" y="566.0" type="line"/>
      <point x="954.4545454545455" y="552.0" type="line"/>
      <point x="902.4545454545455" y="540.0" type="line" name="hr00"/>
      <point x="122.68181818181819" y="223.36363636363637" type="line"/>
    </contour>
  </outline>
</glyph>
<glyph name="question" format="2">
  <advance width="1166.0"/>
  <unicode hex="003F"/>
  <outline>
    <contour>
      <point x="433.1363636363636" y="425.22727272727275" type="curve"/>
      <point x="633.5909090909091" y="425.22727272727275" type="line"/>
      <point x="671.0" y="728.6363636363636"/>
      <point x="1073.4545454545455" y="855.9545454545455"/>
      <point x="1110.5454545454545" y="1158.0454545454545" type="curve" smooth="yes"/>
      <point x="1134.2272727272727" y="1350.590909090909"/>
      <point x="971.3636363636364" y="1474.0"/>
      <point x="719.2727272727273" y="1474.0" type="curve" smooth="yes" name="hr00"/>
      <point x="609.2727272727273" y="1474.0"/>
      <point x="503.72727272727275" y="1458.0"/>
      <point x="357.77272727272725" y="1392.0" type="curve"/>
      <point x="400.3636363636364" y="1224.8636363636363" type="line"/>
      <point x="527.0909090909091" y="1280.409090909091"/>
      <point x="600.3636363636364" y="1290.7272727272727"/>
      <point x="676.3636363636364" y="1290.7272727272727" type="curve"/>
      <point x="794.2272727272727" y="1290.7272727272727"/>
      <point x="867.3181818181819" y="1224.2272727272727"/>
      <point x="855.3181818181819" y="1128.0454545454545" type="curve" smooth="yes"/>
      <point x="827.4545454545455" y="903.0"/>
      <point x="481.0" y="816.2727272727273"/>
    </contour>
    <contour>
      <point x="477.22727272727275" y="-28.772727272727273" type="curve" smooth="yes"/>
      <point x="560.7272727272727" y="-28.772727272727273"/>
      <point x="632.2272727272727" y="34.72727272727273"/>
      <point x="642.6818181818181" y="117.45454545454545" type="curve" smooth="yes"/>
      <point x="651.9090909090909" y="200.95454545454544"/>
      <point x="596.0909090909091" y="267.6818181818182"/>
      <point x="512.5909090909091" y="267.6818181818182" type="curve" smooth="yes"/>
      <point x="428.6363636363636" y="267.6818181818182"/>
      <point x="355.90909090909093" y="200.95454545454544"/>
      <point x="346.6818181818182" y="117.45454545454545" type="curve" smooth="yes"/>
      <point x="336.22727272727275" y="34.72727272727273"/>
      <point x="393.27272727272725" y="-28.772727272727273"/>
    </contour>
  </outline>
</glyph>
<glyph name="at" format="2">
  <advance width="1838.0"/>
  <unicode hex="0040"/>
  <outline>
    <contour>
      <point x="861.5454545454545" y="-256.27272727272725" type="curve" smooth="yes"/>
      <point x="993.5454545454545" y="-256.27272727272725"/>
      <point x="1093.6818181818182" y="-246.72727272727272"/>
      <point x="1291.6818181818182" y="-185.04545454545453" type="curve"/>
      <point x="1256.3181818181818" y="-48.04545454545455" type="line"/>
      <point x="1085.5454545454545" y="-99.5909090909091"/>
      <point x="996.4545454545455" y="-107.5909090909091"/>
      <point x="880.4545454545455" y="-107.5909090909091" type="curve" smooth="yes"/>
      <point x="566.4545454545455" y="-107.5909090909091"/>
      <point x="349.6363636363636" y="114.68181818181819"/>
      <point x="397.95454545454544" y="514.0" type="curve" smooth="yes"/>
      <point x="448.27272727272725" y="915.3181818181819"/>
      <point x="719.5454545454545" y="1139.590909090909"/>
      <point x="1061.5454545454545" y="1139.590909090909" type="curve" smooth="yes"/>
      <point x="1387.1363636363637" y="1139.590909090909"/>
      <point x="1583.1363636363637" y="951.7272727272727"/>
      <point x="1546.0454545454545" y="644.4090909090909" type="curve" smooth="yes"/>
      <point x="1529.7272727272727" y="517.4090909090909"/>
      <point x="1458.1818181818182" y="386.22727272727275"/>
      <point x="1311.5" y="296.5" type="curve"/>
      <point x="1280.7272727272727" y="272.5" type="line" name="hr00"/>
      <point x="1287.9545454545455" y="316.8181818181818" type="line"/>
      <point x="1322.2727272727273" y="599.5454545454545" type="line"/>
      <point x="1349.5" y="816.1363636363636"/>
      <point x="1243.3636363636363" y="932.0"/>
      <point x="1033.090909090909" y="932.0" type="curve" smooth="yes"/>
      <point x="949.0909090909091" y="932.0"/>
      <point x="869.0909090909091" y="920.0"/>
      <point x="758.1818181818181" y="878.0" type="curve"/>
      <point x="791.0909090909091" y="756.3636363636364" type="line"/>
      <point x="876.1363636363636" y="784.3636363636364"/>
      <point x="931.4090909090909" y="792.6818181818181"/>
      <point x="987.4090909090909" y="792.6818181818181" type="curve" smooth="yes"/>
      <point x="1113.4545454545455" y="792.6818181818181"/>
      <point x="1168.5" y="731.5454545454545"/>
      <point x="1153.7272727272727" y="609.5454545454545" type="curve"/>
      <point x="1120.1818181818182" y="338.40909090909093" type="line"/>
      <point x="1048.1818181818182" y="256.40909090909093"/>
      <point x="972.7727272727273" y="226.72727272727272"/>
      <point x="904.7727272727273" y="226.72727272727272" type="curve" smooth="yes"/>
      <point x="826.1363636363636" y="226.72727272727272"/>
      <point x="780.7272727272727" y="266.59090909090907"/>
      <point x="787.5" y="324.0" type="curve" smooth="yes"/>
      <point x="794.2727272727273" y="378.6363636363636"/>
      <point x="829.5454545454545" y="426.6363636363636"/>
      <point x="944.6363636363636" y="442.6363636363636" type="curve" smooth="yes"/>
      <point x="1026.6363636363637" y="453.8636363636364"/>
      <point x="1067.090909090909" y="549.3636363636364"/>
      <point x="1075.090909090909" y="585.3636363636364" type="curve"/>
      <point x="762.0454545454545" y="554.5909090909091"/>
      <point x="633.7272727272727" y="475.54545454545456"/>
      <point x="613.7272727272727" y="316.0" type="curve" smooth="yes"/>
      <point x="597.7272727272727" y="182.77272727272728"/>
      <point x="690.1818181818181" y="94.0"/>
      <point x="855.2727272727273" y="94.0" type="curve" smooth="yes"/>
      <point x="927.2727272727273" y="94.0"/>
      <point x="999.7272727272727" y="109.68181818181819"/>
      <point x="1087.7272727272727" y="187.6818181818182" type="curve"/>
      <point x="1112.9545454545455" y="227.6818181818182" type="line"/>
      <point x="1111.7272727272727" y="189.6818181818182" type="line"/>
      <point x="1119.7272727272727" y="155.6818181818182"/>
      <point x="1127.7272727272727" y="126.77272727272727"/>
      <point x="1155.7272727272727" y="110.77272727272727" type="curve"/>
      <point x="1453.409090909091" y="162.77272727272728"/>
      <point x="1691.1818181818182" y="371.90909090909093"/>
      <point x="1724.7272727272727" y="644.4090909090909" type="curve" smooth="yes"/>
      <point x="1774.7272727272727" y="1056.409090909091"/>
      <point x="1474.8181818181818" y="1288.2727272727273"/>
      <point x="1081.2272727272727" y="1288.2727272727273" type="curve" smooth="yes"/>
      <point x="677.2272727272727" y="1288.2727272727273"/>
      <point x="281.72727272727275" y="1012.0"/>
      <point x="219.72727272727272" y="514.0" type="curve" smooth="yes"/>
      <point x="153.72727272727272" y="-22.0"/>
      <point x="453.54545454545456" y="-256.27272727272725"/>
    </contour>
  </outline>
</glyph>
<glyph name="A" format="2">
  <advance width="1416.9545454545455"/>
  <unicode hex="0041"/>
  <anchor x="702.0909090909091" y="0.0" name="bottom"/>
  <anchor x="1353.090909090909" y="0.0" name="ogonek"/>
  <anchor x="886.8636363636364" y="1454.0" name="top"/>
  <outline>
    <contour>
      <point x="63.86363636363636" y="0.0" type="line"/>
      <point x="310.3181818181818" y="0.0" type="line"/>
      <point x="461.27272727272725" y="329.59090909090907" type="line"/>
      <point x="922.3181818181819" y="329.59090909090907" type="line"/>
      <point x="904.3181818181819" y="412.95454545454544"/>
      <point x="865.0909090909091" y="511.6363636363636"/>
      <point x="756.8181818181819" y="511.6363636363636" type="curve" smooth="yes"/>
      <point x="559.2272727272727" y="511.6363636363636" type="line"/>
      <point x="529.5454545454545" y="507.6363636363636" type="line"/>
      <point x="558.7727272727273" y="548.4090909090909" type="line"/>
      <point x="819.0454545454545" y="1114.3181818181818" type="line"/>
      <point x="843.5" y="1184.590909090909" type="line"/>
      <point x="850.7272727272727" y="1116.7727272727273" type="line"/>
      <point x="1092.6363636363637" y="0.0" type="line"/>
      <point x="1353.090909090909" y="0.0" type="line"/>
      <point x="1008.3181818181819" y="1454.0" type="line" name="hr00"/>
      <point x="764.6363636363636" y="1454.0" type="line"/>
    </contour>
  </outline>
</glyph>
<glyph name="B" format="2">
  <advance width="1327.7272727272727"/>
  <unicode hex="0042"/>
  <anchor x="609.3636363636364" y="0.0" name="bottom"/>
  <anchor x="789.3636363636364" y="1454.0" name="top"/>
  <outline>
    <contour>
      <point x="737.1818181818181" y="-22.772727272727273" type="curve" smooth="yes" name="hr02"/>
      <point x="1041.909090909091" y="-22.772727272727273"/>
      <point x="1255.409090909091" y="204.0"/>
      <point x="1281.409090909091" y="410.0" type="curve" smooth="yes"/>
      <point x="1299.409090909091" y="560.1818181818181"/>
      <point x="1216.3636363636363" y="702.2727272727273"/>
      <point x="1075.590909090909" y="762.0" type="curve"/>
      <point x="1021.5909090909091" y="776.0" type="line"/>
      <point x="1083.590909090909" y="804.0" type="line"/>
      <point x="1189.590909090909" y="866.0"/>
      <point x="1264.9545454545455" y="982.0454545454545"/>
      <point x="1276.9545454545455" y="1079.2727272727273" type="curve"/>
      <point x="1305.409090909091" y="1313.6818181818182"/>
      <point x="1143.4545454545455" y="1480.0"/>
      <point x="791.1818181818181" y="1480.0" type="curve" smooth="yes"/>
      <point x="647.1818181818181" y="1480.0"/>
      <point x="535.9090909090909" y="1467.2272727272727"/>
      <point x="341.40909090909093" y="1433.5454545454545" type="curve"/>
      <point x="166.63636363636363" y="0.0" type="line"/>
      <point x="411.8636363636364" y="0.0" type="line" name="hr01"/>
      <point x="494.6363636363636" y="677.2727272727273" type="line"/>
      <point x="693.9545454545455" y="677.2727272727273" type="line" smooth="yes"/>
      <point x="898.9090909090909" y="677.2727272727273"/>
      <point x="1042.5" y="582.3636363636364"/>
      <point x="1022.1818181818181" y="408.1363636363636" type="curve" smooth="yes"/>
      <point x="1004.1818181818181" y="258.27272727272725"/>
      <point x="884.1363636363636" y="160.04545454545456"/>
      <point x="745.3636363636364" y="157.5909090909091" type="curve" smooth="yes"/>
      <point x="730.2272727272727" y="157.5909090909091"/>
      <point x="719.2727272727273" y="158.36363636363637"/>
      <point x="705.6818181818181" y="159.9090909090909" type="curve"/>
      <point x="605.4090909090909" y="166.0909090909091"/>
      <point x="535.7272727272727" y="82.0"/>
      <point x="490.6363636363636" y="12.0" type="curve"/>
      <point x="605.4090909090909" y="-16.0"/>
      <point x="662.4090909090909" y="-22.772727272727273"/>
    </contour>
    <contour>
      <point x="514.3181818181819" y="845.9545454545455" type="line"/>
      <point x="568.9545454545455" y="1285.6363636363637" type="line"/>
      <point x="642.1818181818181" y="1294.8636363636363"/>
      <point x="697.5" y="1298.8636363636363"/>
      <point x="769.5" y="1298.8636363636363" type="curve" smooth="yes"/>
      <point x="964.1363636363636" y="1298.8636363636363"/>
      <point x="1037.2727272727273" y="1188.2727272727273"/>
      <point x="1023.7272727272727" y="1078.0454545454545" type="curve" smooth="yes"/>
      <point x="1006.9545454545455" y="943.5454545454545"/>
      <point x="875.5909090909091" y="845.9545454545455"/>
      <point x="713.6363636363636" y="845.9545454545455" type="curve"/>
    </contour>
  </outline>
</glyph>
<glyph name="C" format="2">
  <advance width="1242.6363636363637"/>
  <unicode hex="0043"/>
  <anchor x="738.9090909090909" y="0.0" name="bottom"/>
  <anchor x="981.0" y="1454.0" name="top"/>
  <outline>
    <contour>
      <point x="865.2272727272727" y="-24.0" type="curve" smooth="yes" name="hr00"/>
      <point x="977.2272727272727" y="-24.0"/>
      <point x="1101.6818181818182" y="4.454545454545455"/>
      <point x="1230.0" y="68.0" type="curve"/>
      <point x="1184.1818181818182" y="229.9090909090909" type="line"/>
      <point x="1074.7727272727273" y="180.04545454545456"/>
      <point x="980.1363636363636" y="158.04545454545456"/>
      <point x="888.1363636363636" y="158.04545454545456" type="curve"/>
      <point x="586.3636363636364" y="158.04545454545456"/>
      <point x="430.04545454545456" y="417.22727272727275"/>
      <point x="467.90909090909093" y="726.4545454545455" type="curve" smooth="yes"/>
      <point x="508.09090909090907" y="1053.4545454545455"/>
      <point x="725.7727272727273" y="1297.1818181818182"/>
      <point x="1027.5454545454545" y="1297.1818181818182" type="curve" smooth="yes"/>
      <point x="1119.5454545454545" y="1297.1818181818182"/>
      <point x="1197.590909090909" y="1284.409090909091"/>
      <point x="1310.0454545454545" y="1248.8636363636363" type="curve"/>
      <point x="1394.0" y="1412.0" type="line"/>
      <point x="1275.5454545454545" y="1459.2272727272727"/>
      <point x="1161.2272727272727" y="1480.0"/>
      <point x="1049.2272727272727" y="1480.0" type="curve" smooth="yes"/>
      <point x="595.0454545454545" y="1480.0"/>
      <point x="255.3181818181818" y="1154.8181818181818"/>
      <point x="202.54545454545456" y="726.4545454545455" type="curve" smooth="yes"/>
      <point x="149.0" y="289.0"/>
      <point x="403.6818181818182" y="-24.0"/>
    </contour>
  </outline>
</glyph>
<glyph name="D" format="2">
  <advance width="1467.7272727272727"/>
  <unicode hex="0044"/>
  <anchor x="704.6818181818181" y="0.0" name="bottom"/>
  <anchor x="512.5909090909091" y="712.0" name="center"/>
  <anchor x="924.6818181818181" y="1454.0" name="top"/>
  <outline>
    <contour>
      <point x="741.1818181818181" y="-24.0" type="curve"/>
      <point x="1129.090909090909" y="-24.0"/>
      <point x="1471.090909090909" y="302.59090909090907"/>
      <point x="1523.090909090909" y="730.0" type="curve" smooth="yes"/>
      <point x="1581.090909090909" y="1201.6818181818182"/>
      <point x="1311.909090909091" y="1480.0"/>
      <point x="789.1818181818181" y="1480.0" type="curve" smooth="yes"/>
      <point x="673.1818181818181" y="1480.0"/>
      <point x="507.77272727272725" y="1464.4545454545455"/>
      <point x="344.6363636363636" y="1429.5454545454545" type="curve"/>
      <point x="170.63636363636363" y="0.0" type="line"/>
      <point x="417.0909090909091" y="0.0" type="line" name="hr01"/>
      <point x="574.1818181818181" y="1281.9545454545455" type="line"/>
      <point x="636.9545454545455" y="1291.1818181818182"/>
      <point x="704.6818181818181" y="1297.1818181818182"/>
      <point x="767.5" y="1297.1818181818182" type="curve" smooth="yes"/>
      <point x="1156.590909090909" y="1297.1818181818182"/>
      <point x="1302.0454545454545" y="1071.8181818181818"/>
      <point x="1258.9545454545455" y="730.0" type="curve" smooth="yes"/>
      <point x="1223.8636363636363" y="437.72727272727275"/>
      <point x="1034.0454545454545" y="161.72727272727272"/>
      <point x="751.0454545454545" y="158.04545454545456" type="curve"/>
      <point x="736.2272727272727" y="158.04545454545456"/>
      <point x="728.8181818181819" y="158.04545454545456"/>
      <point x="710.1363636363636" y="159.5909090909091" type="curve" smooth="yes"/>
      <point x="608.6363636363636" y="162.6818181818182"/>
      <point x="536.9545454545455" y="80.0"/>
      <point x="494.6363636363636" y="10.0" type="curve"/>
      <point x="606.6363636363636" y="-19.227272727272727"/>
      <point x="661.0" y="-24.0"/>
    </contour>
  </outline>
</glyph>
<glyph name="E" format="2">
  <advance width="1167.5"/>
  <unicode hex="0045"/>
  <anchor x="614.1363636363636" y="0.0" name="bottom"/>
  <anchor x="1056.8636363636363" y="0.0" name="ogonek"/>
  <anchor x="779.2272727272727" y="1454.0" name="top"/>
  <anchor x="156.0" y="1454.0" name="topleft"/>
  <outline>
    <contour>
      <point x="170.63636363636363" y="0.0" type="line"/>
      <point x="1056.8636363636363" y="0.0" type="line"/>
      <point x="1077.7727272727273" y="182.04545454545456" type="line"/>
      <point x="440.45454545454544" y="182.04545454545456" type="line"/>
      <point x="574.6363636363636" y="1271.9545454545455" type="line"/>
      <point x="1180.7272727272727" y="1271.9545454545455" type="line"/>
      <point x="1203.6363636363637" y="1454.0" type="line"/>
      <point x="348.6363636363636" y="1454.0" type="line" name="hr00"/>
    </contour>
    <contour>
      <point x="577.0909090909091" y="673.5909090909091" type="curve"/>
      <point x="1039.1818181818182" y="673.5909090909091" type="line"/>
      <point x="1062.090909090909" y="851.6363636363636" type="line"/>
      <point x="789.1818181818182" y="851.6363636363636" type="line"/>
      <point x="680.9090909090909" y="851.6363636363636"/>
      <point x="615.0909090909091" y="756.9545454545455"/>
    </contour>
  </outline>
</glyph>
<glyph name="F" format="2">
  <advance width="1159.5"/>
  <unicode hex="0046"/>
  <anchor x="296.09090909090907" y="0.0" name="bottom"/>
  <anchor x="776.1363636363636" y="1454.0" name="top"/>
  <outline>
    <contour>
      <point x="170.63636363636363" y="0.0" type="line"/>
      <point x="419.54545454545456" y="0.0" type="line"/>
      <point x="574.6363636363636" y="1271.9545454545455" type="line"/>
      <point x="1180.7272727272727" y="1271.9545454545455" type="line"/>
      <point x="1203.6363636363637" y="1454.0" type="line"/>
      <point x="348.6363636363636" y="1454.0" type="line" name="hr00"/>
    </contour>
    <contour>
      <point x="577.0909090909091" y="673.5909090909091" type="curve"/>
      <point x="1039.1818181818182" y="673.5909090909091" type="line"/>
      <point x="1062.090909090909" y="851.6363636363636" type="line"/>
      <point x="789.1818181818182" y="851.6363636363636" type="line"/>
      <point x="680.9090909090909" y="851.6363636363636"/>
      <point x="615.0909090909091" y="756.9545454545455"/>
    </contour>
  </outline>
</glyph>
<glyph name="G" format="2">
  <advance width="1386.9545454545455"/>
  <unicode hex="0047"/>
  <anchor x="782.5" y="0.0" name="bottom"/>
  <anchor x="962.5" y="1454.0" name="top"/>
  <outline>
    <contour>
      <point x="850.3636363636364" y="-24.0" type="curve" smooth="yes"/>
      <point x="963.1363636363636" y="-24.0"/>
      <point x="1140.909090909091" y="4.136363636363637"/>
      <point x="1294.909090909091" y="74.0" type="curve"/>
      <point x="1368.909090909091" y="674.0" type="line"/>
      <point x="1140.7272727272727" y="674.0" type="line"/>
      <point x="1080.409090909091" y="184.6818181818182" type="line"/>
      <point x="992.0909090909091" y="161.5909090909091"/>
      <point x="931.2727272727273" y="158.04545454545456"/>
      <point x="873.2727272727273" y="158.04545454545456" type="curve" smooth="yes"/>
      <point x="571.5" y="158.04545454545456"/>
      <point x="391.77272727272725" y="399.0"/>
      <point x="431.95454545454544" y="726.0" type="curve" smooth="yes"/>
      <point x="473.3636363636364" y="1062.3636363636363"/>
      <point x="714.5909090909091" y="1297.1818181818182"/>
      <point x="1016.3636363636364" y="1297.1818181818182" type="curve" smooth="yes" name="hr00"/>
      <point x="1108.3636363636363" y="1297.1818181818182"/>
      <point x="1214.6818181818182" y="1283.5"/>
      <point x="1353.590909090909" y="1223.9545454545455" type="curve"/>
      <point x="1440.0" y="1392.0" type="line"/>
      <point x="1300.6363636363637" y="1456.7727272727273"/>
      <point x="1150.8181818181818" y="1480.0"/>
      <point x="1038.0454545454545" y="1480.0" type="curve" smooth="yes"/>
      <point x="580.1818181818181" y="1480.0"/>
      <point x="220.13636363636363" y="1157.590909090909"/>
      <point x="166.5909090909091" y="726.0" type="curve" smooth="yes"/>
      <point x="112.27272727272728" y="287.90909090909093"/>
      <point x="388.8181818181818" y="-24.0"/>
    </contour>
  </outline>
</glyph>
<glyph name="H" format="2">
  <advance width="1501.7272727272727"/>
  <unicode hex="0048"/>
  <anchor x="754.0909090909091" y="0.0" name="bottom"/>
  <anchor x="842.8636363636364" y="728.0" name="center"/>
  <anchor x="932.0909090909091" y="1454.0" name="top"/>
  <anchor x="156.0" y="1454.0" name="topleft"/>
  <outline>
    <contour>
      <point x="1087.409090909091" y="0.0" type="line"/>
      <point x="1333.8636363636363" y="0.0" type="line"/>
      <point x="1511.8636363636363" y="1454.0" type="line"/>
      <point x="1265.409090909091" y="1454.0" type="line"/>
      <point x="1191.8636363636363" y="852.8636363636364" type="line" name="hr00"/>
      <point x="788.4090909090909" y="852.8636363636364" type="line"/>
      <point x="680.9090909090909" y="852.8636363636364"/>
      <point x="613.8636363636364" y="755.7272727272727"/>
      <point x="577.0909090909091" y="672.3636363636364" type="curve"/>
      <point x="1168.9545454545455" y="672.3636363636364" type="line"/>
    </contour>
    <contour>
      <point x="170.63636363636363" y="0.0" type="line"/>
      <point x="419.54545454545456" y="0.0" type="line"/>
      <point x="597.5454545454545" y="1454.0" type="line"/>
      <point x="348.6363636363636" y="1454.0" type="line"/>
    </contour>
  </outline>
</glyph>
<glyph name="I" format="2">
  <advance width="584.1818181818181"/>
  <unicode hex="0049"/>
  <anchor x="292.09090909090907" y="0.0" name="bottom"/>
  <anchor x="412.3181818181818" y="0.0" name="ogonek"/>
  <anchor x="470.09090909090907" y="1454.0" name="top"/>
  <anchor x="156.0" y="1454.0" name="topleft"/>
  <outline>
    <contour>
      <point x="170.63636363636363" y="0.0" type="line"/>
      <point x="412.3181818181818" y="0.0" type="line" name="hr00"/>
      <point x="590.3181818181819" y="1454.0" type="line"/>
      <point x="348.6363636363636" y="1454.0" type="line"/>
    </contour>
  </outline>
</glyph>
<glyph name="J" format="2">
  <advance width="718.6818181818181"/>
  <unicode hex="004A"/>
  <anchor x="271.1363636363636" y="-392.27272727272725" name="bottom"/>
  <anchor x="611.3636363636364" y="1454.0" name="top"/>
  <outline>
    <contour>
      <point x="38.86363636363636" y="-433.1818181818182" type="line"/>
      <point x="360.5" y="-234.13636363636363"/>
      <point x="543.1363636363636" y="-107.5"/>
      <point x="587.5909090909091" y="256.0" type="curve" name="hr00"/>
      <point x="735.5909090909091" y="1454.0" type="line"/>
      <point x="487.1363636363636" y="1454.0" type="line"/>
      <point x="339.1363636363636" y="256.0" type="line"/>
      <point x="303.59090909090907" y="-34.68181818181818"/>
      <point x="166.3181818181818" y="-128.36363636363637"/>
      <point x="-51.68181818181818" y="-293.1363636363636" type="curve"/>
    </contour>
  </outline>
</glyph>
<glyph name="K" format="2">
  <advance width="1380.909090909091"/>
  <unicode hex="004B"/>
  <anchor x="711.4545454545455" y="0.0" name="bottom"/>
  <anchor x="881.1363636363636" y="1454.0" name="top"/>
  <outline>
    <contour>
      <point x="1055.6818181818182" y="0.0" type="line"/>
      <point x="1345.8181818181818" y="0.0" type="line"/>
      <point x="933.8181818181819" y="869.6818181818181" type="line" name="hr00"/>
      <point x="1455.3636363636363" y="1454.0" type="line"/>
      <point x="1179.2272727272727" y="1454.0" type="line"/>
      <point x="732.1818181818182" y="928.3181818181818" type="line" smooth="yes"/>
      <point x="628.3636363636364" y="807.2727272727273"/>
      <point x="563.6818181818181" y="626.1363636363636"/>
      <point x="588.4545454545455" y="486.0" type="curve"/>
      <point x="749.1363636363636" y="665.7727272727273" type="line"/>
      <point x="776.0454545454545" y="706.6818181818181" type="line"/>
      <point x="784.8181818181819" y="663.3181818181819" type="line"/>
    </contour>
    <contour>
      <point x="170.63636363636363" y="0.0" type="line"/>
      <point x="419.54545454545456" y="0.0" type="line"/>
      <point x="597.5454545454545" y="1454.0" type="line"/>
      <point x="348.6363636363636" y="1454.0" type="line"/>
    </contour>
  </outline>
</glyph>
<glyph name="L" format="2">
  <advance width="1053.5"/>
  <unicode hex="004C"/>
  <anchor x="573.0909090909091" y="0.0" name="bottom"/>
  <anchor x="384.8636363636364" y="728.0" name="center"/>
  <anchor x="472.8636363636364" y="1454.0" name="top"/>
  <anchor x="1129.5" y="1454.0" name="topright"/>
  <outline>
    <contour>
      <point x="169.4090909090909" y="0.0" type="line"/>
      <point x="976.0" y="0.0" type="line"/>
      <point x="997.6818181818181" y="184.04545454545456" type="line"/>
      <point x="441.22727272727275" y="184.04545454545456" type="line"/>
      <point x="598.3181818181819" y="1454.0" type="line"/>
      <point x="347.40909090909093" y="1454.0" type="line" name="hr00"/>
    </contour>
  </outline>
</glyph>
<glyph name="M" format="2">
  <advance width="1938.5"/>
  <unicode hex="004D"/>
  <anchor x="967.6363636363636" y="0.0" name="bottom"/>
  <anchor x="1142.090909090909" y="1454.0" name="top"/>
  <outline>
    <contour>
      <point x="144.13636363636363" y="0.0" type="line"/>
      <point x="374.45454545454544" y="0.0" type="line"/>
      <point x="600.2272727272727" y="1124.2727272727273" type="line"/>
      <point x="617.4545454545455" y="1214.409090909091" type="line"/>
      <point x="631.0" y="1124.2727272727273" type="line"/>
      <point x="846.0454545454545" y="20.0" type="line"/>
      <point x="1095.2272727272727" y="20.0" type="line"/>
      <point x="1577.2272727272727" y="1122.2727272727273" type="line"/>
      <point x="1612.4545454545455" y="1214.409090909091" type="line"/>
      <point x="1607.2272727272727" y="1122.2727272727273" type="line"/>
      <point x="1562.0454545454545" y="0.0" type="line"/>
      <point x="1793.1363636363637" y="0.0" type="line"/>
      <point x="1825.8636363636363" y="1454.0" type="line"/>
      <point x="1507.4545454545455" y="1454.0" type="line"/>
      <point x="1022.5454545454545" y="314.22727272727275" type="line"/>
      <point x="998.0909090909091" y="246.0909090909091" type="line"/>
      <point x="993.3181818181819" y="314.22727272727275" type="line"/>
      <point x="787.8181818181819" y="1454.0" type="line"/>
      <point x="470.6363636363636" y="1454.0" type="line" name="hr00"/>
    </contour>
  </outline>
</glyph>
<glyph name="N" format="2">
  <advance width="1533.590909090909"/>
  <unicode hex="004E"/>
  <anchor x="763.0454545454545" y="0.0" name="bottom"/>
  <anchor x="953.5" y="1454.0" name="top"/>
  <outline>
    <contour>
      <point x="195.72727272727272" y="0.0" type="line"/>
      <point x="408.04545454545456" y="0.0" type="line"/>
      <point x="539.0" y="1076.090909090909" type="line"/>
      <point x="543.0" y="1144.090909090909" type="line"/>
      <point x="565.4545454545455" y="1073.6363636363637" type="line" name="hr00"/>
      <point x="1109.7272727272727" y="0.0" type="line"/>
      <point x="1330.0454545454545" y="0.0" type="line"/>
      <point x="1508.0454545454545" y="1454.0" type="line"/>
      <point x="1288.5" y="1454.0" type="line"/>
      <point x="1161.5454545454545" y="419.5909090909091" type="line"/>
      <point x="1155.5454545454545" y="343.45454545454544" type="line"/>
      <point x="1139.090909090909" y="418.04545454545456" type="line"/>
      <point x="616.5" y="1454.0" type="line"/>
      <point x="373.72727272727275" y="1454.0" type="line"/>
    </contour>
  </outline>
</glyph>
<glyph name="O" format="2">
  <advance width="1579.5454545454545"/>
  <unicode hex="004F"/>
  <anchor x="791.0" y="0.0" name="bottom"/>
  <anchor x="880.2272727272727" y="728.0" name="center"/>
  <anchor x="1359.5454545454545" y="12.272727272727273" name="ogonek"/>
  <anchor x="970.2272727272727" y="1454.0" name="top"/>
  <anchor x="186.9090909090909" y="1454.0" name="topleft"/>
  <anchor x="1655.5454545454545" y="1454.0" name="topright"/>
  <outline>
    <contour>
      <point x="788.2272727272727" y="-28.0" type="curve" smooth="yes"/>
      <point x="1212.8181818181818" y="-28.0"/>
      <point x="1532.590909090909" y="308.95454545454544"/>
      <point x="1583.6818181818182" y="728.0" type="curve"/>
      <point x="1630.0" y="1104.409090909091"/>
      <point x="1462.2272727272727" y="1484.0"/>
      <point x="974.2272727272727" y="1484.0" type="curve"/>
      <point x="572.6363636363636" y="1484.0"/>
      <point x="232.1818181818182" y="1181.5454545454545"/>
      <point x="175.54545454545453" y="728.0" type="curve" name="hr00"/>
      <point x="121.22727272727273" y="281.77272727272725"/>
      <point x="360.22727272727275" y="-28.0"/>
    </contour>
    <contour>
      <point x="809.9090909090909" y="154.04545454545456" type="curve"/>
      <point x="536.2272727272727" y="154.04545454545456"/>
      <point x="403.04545454545456" y="418.77272727272725"/>
      <point x="440.9090909090909" y="728.0" type="curve"/>
      <point x="480.77272727272725" y="1054.909090909091"/>
      <point x="682.2727272727273" y="1301.1818181818182"/>
      <point x="951.3181818181819" y="1301.1818181818182" type="curve" smooth="yes"/>
      <point x="1213.0" y="1301.1818181818182"/>
      <point x="1360.6363636363637" y="1065.9545454545455"/>
      <point x="1319.5454545454545" y="728.0" type="curve"/>
      <point x="1277.5454545454545" y="381.09090909090907"/>
      <point x="1053.8636363636363" y="154.04545454545456"/>
    </contour>
  </outline>
</glyph>
<glyph name="P" format="2">
  <advance width="1259.7272727272727"/>
  <unicode hex="0050"/>
  <anchor x="296.09090909090907" y="0.0" name="bottom"/>
  <anchor x="765.4090909090909" y="1454.0" name="top"/>
  <outline>
    <contour>
      <point x="170.63636363636363" y="0.0" type="line"/>
      <point x="420.77272727272725" y="0.0" type="line"/>
      <point x="577.8636363636364" y="1286.409090909091" type="line"/>
      <point x="651.0909090909091" y="1294.409090909091"/>
      <point x="694.4090909090909" y="1298.409090909091"/>
      <point x="767.1818181818181" y="1298.409090909091" type="curve" smooth="yes"/>
      <point x="938.5909090909091" y="1298.409090909091"/>
      <point x="1049.7272727272727" y="1181.0"/>
      <point x="1030.1818181818182" y="1031.409090909091" type="curve"/>
      <point x="1013.8636363636364" y="885.9545454545455"/>
      <point x="885.1363636363636" y="772.5454545454545"/>
      <point x="763.0909090909091" y="766.4090909090909" type="curve" smooth="yes"/>
      <point x="675.4090909090909" y="761.5"/>
      <point x="609.8636363636364" y="680.5"/>
      <point x="570.6363636363636" y="607.5909090909091" type="curve"/>
      <point x="642.6363636363636" y="586.3636363636364"/>
      <point x="710.6363636363636" y="584.3636363636364"/>
      <point x="769.8636363636364" y="590.3636363636364" type="curve" smooth="yes"/>
      <point x="1010.6363636363636" y="611.5909090909091"/>
      <point x="1257.409090909091" y="769.2727272727273"/>
      <point x="1288.6363636363637" y="1031.409090909091" type="curve" smooth="yes" name="hr00"/>
      <point x="1322.3181818181818" y="1297.9545454545455"/>
      <point x="1112.090909090909" y="1481.2272727272727"/>
      <point x="788.8636363636364" y="1481.2272727272727" type="curve"/>
      <point x="644.0909090909091" y="1481.2272727272727"/>
      <point x="541.1363636363636" y="1471.2272727272727"/>
      <point x="346.6363636363636" y="1437.5454545454545" type="curve"/>
    </contour>
  </outline>
</glyph>
<glyph name="Q" format="2">
  <advance width="1567.409090909091"/>
  <unicode hex="0051"/>
  <anchor x="782.5909090909091" y="0.0" name="bottom"/>
  <anchor x="976.4090909090909" y="1454.0" name="top"/>
  <outline>
    <contour>
      <point x="778.5909090909091" y="-28.0" type="curve"/>
      <point x="876.7727272727273" y="-28.0"/>
      <point x="984.7727272727273" y="4.7727272727272725"/>
      <point x="1094.9545454545455" y="74.95454545454545" type="curve"/>
      <point x="1058.1818181818182" y="122.95454545454545"/>
      <point x="980.0" y="170.4090909090909"/>
      <point x="898.1818181818181" y="163.45454545454544" type="curve" smooth="yes"/>
      <point x="867.2272727272727" y="159.5909090909091"/>
      <point x="829.8636363636364" y="154.8181818181818"/>
      <point x="800.2727272727273" y="154.8181818181818" type="curve"/>
      <point x="543.1818181818181" y="154.8181818181818"/>
      <point x="407.6818181818182" y="414.9090909090909"/>
      <point x="446.3181818181818" y="728.0" type="curve" smooth="yes"/>
      <point x="486.1818181818182" y="1054.909090909091"/>
      <point x="689.2272727272727" y="1301.1818181818182"/>
      <point x="957.5" y="1301.1818181818182" type="curve" smooth="yes"/>
      <point x="1226.5454545454545" y="1301.1818181818182"/>
      <point x="1364.8181818181818" y="1054.909090909091"/>
      <point x="1324.9545454545455" y="728.0" type="curve"/>
      <point x="1313.409090909091" y="627.9545454545455"/>
      <point x="1282.6363636363637" y="519.0"/>
      <point x="1226.590909090909" y="425.72727272727275" type="curve"/>
      <point x="1207.8181818181818" y="375.27272727272725" type="line"/>
      <point x="1187.0454545454545" y="415.72727272727275" type="line"/>
      <point x="1033.909090909091" y="596.7272727272727" type="line"/>
      <point x="882.0" y="461.27272727272725" type="line"/>
      <point x="1314.0" y="-41.95454545454545" type="line"/>
      <point x="1465.909090909091" y="91.5" type="line" name="hr00"/>
      <point x="1347.409090909091" y="229.54545454545453" type="line"/>
      <point x="1481.1363636363637" y="382.22727272727275"/>
      <point x="1567.090909090909" y="546.0"/>
      <point x="1589.090909090909" y="728.0" type="curve"/>
      <point x="1644.6363636363637" y="1179.590909090909"/>
      <point x="1402.590909090909" y="1484.0"/>
      <point x="980.4090909090909" y="1484.0" type="curve" smooth="yes"/>
      <point x="570.0909090909091" y="1484.0"/>
      <point x="237.27272727272728" y="1174.0454545454545"/>
      <point x="181.72727272727272" y="728.0" type="curve" smooth="yes"/>
      <point x="126.95454545454545" y="279.04545454545456"/>
      <point x="367.90909090909093" y="-28.0"/>
    </contour>
  </outline>
</glyph>
<glyph name="R" format="2">
  <advance width="1340.1818181818182"/>
  <unicode hex="0052"/>
  <anchor x="671.0" y="0.0" name="bottom"/>
  <anchor x="819.7727272727273" y="1454.0" name="top"/>
  <outline>
    <contour>
      <point x="170.63636363636363" y="0.0" type="line"/>
      <point x="420.77272727272725" y="0.0" type="line"/>
      <point x="577.0909090909091" y="1284.8636363636363" type="line"/>
      <point x="661.1363636363636" y="1296.7272727272727"/>
      <point x="695.1818181818181" y="1299.1818181818182"/>
      <point x="767.9545454545455" y="1299.1818181818182" type="curve" smooth="yes"/>
      <point x="933.2272727272727" y="1299.1818181818182"/>
      <point x="1050.9545454545455" y="1188.6818181818182"/>
      <point x="1032.1818181818182" y="1042.9545454545455" type="curve" smooth="yes"/>
      <point x="1014.6363636363636" y="899.8181818181819"/>
      <point x="887.9090909090909" y="795.3181818181819"/>
      <point x="767.0909090909091" y="787.6363636363636" type="curve" smooth="yes"/>
      <point x="678.1818181818181" y="781.9545454545455"/>
      <point x="611.8636363636364" y="700.5"/>
      <point x="572.6363636363636" y="627.5909090909091" type="curve"/>
      <point x="634.0" y="609.9090909090909"/>
      <point x="726.5909090909091" y="606.3636363636364"/>
      <point x="770.2272727272727" y="611.1363636363636" type="curve"/>
      <point x="930.9545454545455" y="509.04545454545456"/>
      <point x="892.7727272727273" y="214.04545454545453"/>
      <point x="965.8636363636364" y="0.0" type="curve"/>
      <point x="1223.5454545454545" y="0.0" type="line"/>
      <point x="1134.7727272727273" y="261.40909090909093"/>
      <point x="1176.6363636363637" y="514.8181818181819"/>
      <point x="1018.7272727272727" y="650.5" type="curve"/>
      <point x="978.2727272727273" y="670.1818181818181" type="line"/>
      <point x="1034.409090909091" y="689.8636363636364" type="line"/>
      <point x="1168.909090909091" y="761.0909090909091"/>
      <point x="1270.6363636363637" y="882.6363636363636"/>
      <point x="1290.6363636363637" y="1042.1818181818182" type="curve" smooth="yes" name="hr00"/>
      <point x="1322.3181818181818" y="1305.6363636363637"/>
      <point x="1105.9545454545455" y="1482.0"/>
      <point x="788.8636363636364" y="1482.0" type="curve" smooth="yes"/>
      <point x="644.0909090909091" y="1482.0"/>
      <point x="541.1363636363636" y="1469.6818181818182"/>
      <point x="346.6363636363636" y="1436.0" type="curve"/>
    </contour>
  </outline>
</glyph>
<glyph name="S" format="2">
  <advance width="1136.2272727272727"/>
  <unicode hex="0053"/>
  <anchor x="538.7272727272727" y="0.0" name="bottom"/>
  <anchor x="724.9090909090909" y="1454.0" name="top"/>
  <outline>
    <contour>
      <point x="541.0454545454545" y="-25.227272727272727" type="curve"/>
      <point x="845.0454545454545" y="-25.227272727272727"/>
      <point x="1057.4545454545455" y="135.77272727272728"/>
      <point x="1086.3636363636363" y="370.59090909090907" type="curve" smooth="yes"/>
      <point x="1142.3636363636363" y="830.7272727272727"/>
      <point x="462.3636363636364" y="833.4545454545455"/>
      <point x="497.90909090909093" y="1121.6818181818182" type="curve" smooth="yes"/>
      <point x="509.45454545454544" y="1221.7272727272727"/>
      <point x="598.5454545454545" y="1300.8636363636363"/>
      <point x="730.1363636363636" y="1300.8636363636363" type="curve" name="hr00"/>
      <point x="812.7272727272727" y="1300.8636363636363"/>
      <point x="907.8181818181819" y="1288.409090909091"/>
      <point x="1020.2727272727273" y="1254.409090909091" type="curve"/>
      <point x="1106.2272727272727" y="1416.3181818181818" type="line"/>
      <point x="957.0454545454545" y="1465.6818181818182"/>
      <point x="851.9545454545455" y="1480.0"/>
      <point x="733.0454545454545" y="1480.0" type="curve"/>
      <point x="494.27272727272725" y="1480.0"/>
      <point x="290.6363636363636" y="1345.0"/>
      <point x="261.72727272727275" y="1106.9545454545455" type="curve" smooth="yes"/>
      <point x="206.95454545454547" y="664.7727272727273"/>
      <point x="884.9545454545455" y="678.5454545454545"/>
      <point x="846.6363636363636" y="368.45454545454544" type="curve" smooth="yes"/>
      <point x="832.3181818181819" y="251.3181818181818"/>
      <point x="715.2272727272727" y="156.8181818181818"/>
      <point x="555.4545454545455" y="156.8181818181818" type="curve"/>
      <point x="457.3181818181818" y="156.8181818181818"/>
      <point x="330.54545454545456" y="178.8181818181818"/>
      <point x="203.8181818181818" y="241.4090909090909" type="curve"/>
      <point x="117.4090909090909" y="77.04545454545455" type="line"/>
      <point x="272.40909090909093" y="0.0"/>
      <point x="427.04545454545456" y="-25.227272727272727"/>
    </contour>
  </outline>
</glyph>
<glyph name="T" format="2">
  <advance width="1075.7272727272727"/>
  <unicode hex="0054"/>
  <anchor x="535.0909090909091" y="0.0" name="bottom"/>
  <anchor x="623.0909090909091" y="728.0" name="center"/>
  <anchor x="713.8636363636364" y="1454.0" name="top"/>
  <outline>
    <contour>
      <point x="410.8636363636364" y="0.0" type="line"/>
      <point x="659.3181818181819" y="0.0" type="line"/>
      <point x="814.4090909090909" y="1271.9545454545455" type="line"/>
      <point x="1212.1818181818182" y="1271.9545454545455" type="line"/>
      <point x="1235.090909090909" y="1454.0" type="line"/>
      <point x="191.86363636363637" y="1454.0" type="line"/>
      <point x="168.95454545454547" y="1271.9545454545455" type="line" name="hr00"/>
      <point x="565.9545454545455" y="1271.9545454545455" type="line"/>
    </contour>
  </outline>
</glyph>
<glyph name="U" format="2">
  <advance width="1428.5"/>
  <unicode hex="0055"/>
  <anchor x="727.1363636363636" y="0.0" name="bottom"/>
  <anchor x="1223.590909090909" y="0.0" name="ogonek"/>
  <anchor x="905.1363636363636" y="1454.0" name="top"/>
  <anchor x="1504.5" y="1454.0" name="topright"/>
  <outline>
    <contour>
      <point x="723.1363636363636" y="-28.0" type="curve" smooth="yes" name="hr00"/>
      <point x="1065.6818181818182" y="-28.0"/>
      <point x="1314.909090909091" y="200.45454545454547"/>
      <point x="1357.3636363636363" y="548.2727272727273" type="curve" smooth="yes"/>
      <point x="1468.909090909091" y="1454.0" type="line"/>
      <point x="1224.4545454545455" y="1454.0" type="line"/>
      <point x="1108.909090909091" y="517.5" type="line" smooth="yes"/>
      <point x="1080.909090909091" y="292.54545454545456"/>
      <point x="931.0454545454545" y="154.04545454545456"/>
      <point x="744.8181818181819" y="154.04545454545456" type="curve" smooth="yes"/>
      <point x="557.3636363636364" y="154.04545454545456"/>
      <point x="442.27272727272725" y="292.54545454545456"/>
      <point x="470.27272727272725" y="517.5" type="curve" smooth="yes"/>
      <point x="585.8181818181819" y="1454.0" type="line"/>
      <point x="340.1363636363636" y="1454.0" type="line"/>
      <point x="228.5909090909091" y="548.2727272727273" type="line" smooth="yes"/>
      <point x="183.6818181818182" y="185.72727272727272"/>
      <point x="372.09090909090907" y="-28.0"/>
    </contour>
  </outline>
</glyph>
<glyph name="V" format="2">
  <advance width="1305.409090909091"/>
  <unicode hex="0056"/>
  <anchor x="659.3181818181819" y="0.0" name="bottom"/>
  <anchor x="839.3181818181819" y="1454.0" name="top"/>
  <outline>
    <contour>
      <point x="529.8636363636364" y="0.0" type="line" name="hr00"/>
      <point x="787.5454545454545" y="0.0" type="line"/>
      <point x="1471.5454545454545" y="1454.0" type="line"/>
      <point x="1214.6363636363637" y="1454.0" type="line"/>
      <point x="713.4545454545455" y="313.22727272727275" type="line"/>
      <point x="689.4545454545455" y="243.0909090909091" type="line"/>
      <point x="684.6818181818181" y="315.22727272727275" type="line"/>
      <point x="464.0" y="1454.0" type="line"/>
      <point x="197.86363636363637" y="1454.0" type="line"/>
    </contour>
  </outline>
</glyph>
<glyph name="W" format="2">
  <advance width="2050.7727272727275"/>
  <unicode hex="0057"/>
  <anchor x="1030.7727272727273" y="0.0" name="bottom"/>
  <anchor x="1210.7727272727273" y="1454.0" name="top"/>
  <outline>
    <contour>
      <point x="457.77272727272725" y="0.0" type="line"/>
      <point x="724.1363636363636" y="0.0" type="line"/>
      <point x="1145.8636363636363" y="1096.7272727272727" type="line"/>
      <point x="1171.8636363636363" y="1176.7272727272727" type="line"/>
      <point x="1179.090909090909" y="1093.9545454545455" type="line"/>
      <point x="1335.409090909091" y="0.0" type="line"/>
      <point x="1595.0" y="0.0" type="line"/>
      <point x="2175.2727272727275" y="1454.0" type="line"/>
      <point x="1935.7272727272727" y="1454.0" type="line"/>
      <point x="1519.0454545454545" y="339.1818181818182" type="line"/>
      <point x="1489.0454545454545" y="236.5909090909091" type="line"/>
      <point x="1482.2727272727273" y="343.1818181818182" type="line"/>
      <point x="1343.909090909091" y="1434.0" type="line" name="hr00"/>
      <point x="1072.409090909091" y="1434.0" type="line"/>
      <point x="657.6818181818181" y="342.72727272727275" type="line"/>
      <point x="622.4545454545455" y="237.36363636363637" type="line"/>
      <point x="619.6818181818181" y="342.72727272727275" type="line"/>
      <point x="477.04545454545456" y="1454.0" type="line"/>
      <point x="232.27272727272728" y="1454.0" type="line"/>
    </contour>
  </outline>
</glyph>
<glyph name="X" format="2">
  <advance width="1294.9545454545455"/>
  <unicode hex="0058"/>
  <anchor x="643.3181818181819" y="0.0" name="bottom"/>
  <anchor x="826.4090909090909" y="1454.0" name="top"/>
  <outline>
    <contour>
      <point x="955.4090909090909" y="0.0" type="line"/>
      <point x="1229.090909090909" y="0.0" type="line"/>
      <point x="866.1818181818181" y="742.9545454545455" type="line"/>
      <point x="1383.5454545454545" y="1454.0" type="line"/>
      <point x="1108.9545454545455" y="1454.0" type="line"/>
      <point x="780.5454545454545" y="955.9090909090909" type="line"/>
      <point x="758.5454545454545" y="898.5454545454545" type="line"/>
      <point x="745.3181818181819" y="955.9090909090909" type="line"/>
      <point x="543.0909090909091" y="1454.0" type="line"/>
      <point x="263.40909090909093" y="1454.0" type="line" name="hr00"/>
    </contour>
    <contour>
      <point x="61.86363636363636" y="0.0" type="line"/>
      <point x="329.22727272727275" y="0.0" type="line"/>
      <point x="558.4545454545455" y="340.22727272727275" type="line"/>
      <point x="632.4090909090909" y="447.22727272727275"/>
      <point x="578.6363636363636" y="588.1818181818181"/>
      <point x="538.1818181818181" y="653.8636363636364" type="curve"/>
    </contour>
  </outline>
</glyph>
<glyph name="Y" format="2">
  <advance width="1367.8636363636363"/>
  <unicode hex="0059"/>
  <anchor x="673.7727272727273" y="0.0" name="bottom"/>
  <anchor x="841.7727272727273" y="1454.0" name="top"/>
  <anchor x="156.0" y="1454.0" name="topleft"/>
  <outline>
    <contour>
      <point x="552.7727272727273" y="0.0" type="line"/>
      <point x="794.0" y="0.0" type="line"/>
      <point x="876.0" y="676.4545454545455" type="line" name="hr00"/>
      <point x="505.22727272727275" y="1454.0" type="line"/>
      <point x="230.3181818181818" y="1454.0" type="line"/>
      <point x="629.2272727272727" y="633.9545454545455" type="line"/>
    </contour>
    <contour>
      <point x="944.4545454545455" y="753.2272727272727" type="curve"/>
      <point x="1456.0" y="1454.0" type="line"/>
      <point x="1185.8636363636363" y="1454.0" type="line"/>
      <point x="925.7272727272727" y="1071.5" type="line"/>
      <point x="848.6818181818181" y="956.6363636363636"/>
      <point x="901.2272727272727" y="818.9090909090909"/>
    </contour>
  </outline>
</glyph>
<glyph name="Z" format="2">
  <advance width="1213.1818181818182"/>
  <unicode hex="005A"/>
  <anchor x="660.8636363636364" y="0.0" name="bottom"/>
  <anchor x="868.5454545454545" y="1454.0" name="top"/>
  <outline>
    <contour>
      <point x="123.36363636363636" y="0.0" type="line"/>
      <point x="1197.590909090909" y="0.0" type="line"/>
      <point x="1218.5" y="182.04545454545456" type="line"/>
      <point x="477.77272727272725" y="182.04545454545456" type="line"/>
      <point x="432.54545454545456" y="176.04545454545456" type="line"/>
      <point x="467.77272727272725" y="206.04545454545456" type="line"/>
      <point x="1344.3636363636363" y="1352.2272727272727" type="line"/>
      <point x="1356.8181818181818" y="1454.0" type="line"/>
      <point x="373.4090909090909" y="1454.0" type="line" name="hr00"/>
      <point x="350.5" y="1274.409090909091" type="line"/>
      <point x="996.4090909090909" y="1274.409090909091" type="line"/>
      <point x="1045.6363636363637" y="1280.409090909091" type="line"/>
      <point x="1009.6363636363636" y="1246.409090909091" type="line"/>
      <point x="135.04545454545456" y="101.77272727272728" type="line"/>
    </contour>
  </outline>
</glyph>
<glyph name="bracketleft" format="2">
  <advance width="894.0"/>
  <unicode hex="005B"/>
  <outline>
    <contour>
      <point x="211.77272727272728" y="-398.0" type="line"/>
      <point x="782.2272727272727" y="-398.0" type="line"/>
      <point x="805.9090909090909" y="-214.72727272727272" type="line"/>
      <point x="463.1363636363636" y="-214.72727272727272" type="line"/>
      <point x="655.3181818181819" y="1358.7272727272727" type="line"/>
      <point x="997.3181818181819" y="1358.7272727272727" type="line"/>
      <point x="1020.2272727272727" y="1542.0" type="line"/>
      <point x="449.77272727272725" y="1542.0" type="line" name="hr00"/>
    </contour>
  </outline>
</glyph>
<glyph name="backslash" format="2">
  <advance width="699.5454545454545"/>
  <unicode hex="005C"/>
  <outline>
    <contour>
      <point x="473.3636363636364" y="-124.0" type="line" name="hr00"/>
      <point x="690.6363636363636" y="-124.0" type="line"/>
      <point x="398.6363636363636" y="1454.0" type="line"/>
      <point x="181.36363636363637" y="1454.0" type="line"/>
    </contour>
  </outline>
</glyph>
<glyph name="asciicircum" format="2">
  <advance width="1256.0"/>
  <unicode hex="005E"/>
  <outline>
    <contour>
      <point x="181.1818181818182" y="420.0" type="line"/>
      <point x="400.54545454545456" y="420.0" type="line" name="hr00"/>
      <point x="754.6363636363636" y="1114.590909090909" type="line"/>
      <point x="775.0909090909091" y="1172.7272727272727" type="line"/>
      <point x="781.0909090909091" y="1114.590909090909" type="line"/>
      <point x="965.4545454545455" y="420.0" type="line"/>
      <point x="1180.8181818181818" y="420.0" type="line"/>
      <point x="890.6818181818181" y="1454.0" type="line"/>
      <point x="727.3181818181819" y="1454.0" type="line"/>
    </contour>
  </outline>
</glyph>
<glyph name="a" format="2">
  <advance width="1188.909090909091"/>
  <unicode hex="0061"/>
  <anchor x="556.0909090909091" y="0.0" name="bottom"/>
  <anchor x="1066.7727272727273" y="3.8636363636363633" name="ogonek"/>
  <anchor x="753.0" y="1034.0" name="top"/>
  <outline>
    <contour>
      <point x="511.1363636363636" y="-14.90909090909091" type="curve" smooth="yes"/>
      <point x="576.0454545454545" y="-8.590909090909092"/>
      <point x="658.1818181818181" y="23.09090909090909"/>
      <point x="733.5454545454545" y="68.63636363636364" type="curve"/>
      <point x="690.7727272727273" y="136.45454545454547"/>
      <point x="649.0454545454545" y="180.6818181818182"/>
      <point x="578.7727272727273" y="173.9090909090909" type="curve" smooth="yes"/>
      <point x="424.22727272727275" y="156.1818181818182"/>
      <point x="391.8181818181818" y="326.5"/>
      <point x="412.45454545454544" y="492.3636363636364" type="curve" smooth="yes"/>
      <point x="440.77272727272725" y="726.2727272727273"/>
      <point x="569.9090909090909" y="874.4090909090909"/>
      <point x="758.8636363636364" y="874.4090909090909" type="curve" smooth="yes"/>
      <point x="799.2272727272727" y="874.4090909090909"/>
      <point x="848.0" y="869.6363636363636"/>
      <point x="903.0909090909091" y="856.0909090909091" type="curve"/>
      <point x="823.2272727272727" y="203.8181818181818" type="line" smooth="yes"/>
      <point x="811.2272727272727" y="103.5"/>
      <point x="848.5909090909091" y="20.31818181818182"/>
      <point x="882.9090909090909" y="0.0" type="curve"/>
      <point x="1066.7727272727273" y="3.8636363636363633" type="line"/>
      <point x="1056.3181818181818" y="88.5909090909091"/>
      <point x="1056.7727272727273" y="183.4090909090909"/>
      <point x="1070.6363636363637" y="290.6363636363636" type="curve" name="hr00"/>
      <point x="1157.2272727272727" y="994.9090909090909" type="line"/>
      <point x="987.1818181818181" y="1043.3636363636363"/>
      <point x="886.4090909090909" y="1056.4545454545455"/>
      <point x="774.4090909090909" y="1056.4545454545455" type="curve" smooth="yes"/>
      <point x="434.95454545454544" y="1056.4545454545455"/>
      <point x="192.63636363636363" y="813.4545454545455"/>
      <point x="153.86363636363637" y="492.3636363636364" type="curve" smooth="yes"/>
      <point x="120.0" y="220.36363636363637"/>
      <point x="263.3181818181818" y="-35.86363636363636"/>
    </contour>
  </outline>
</glyph>
<glyph name="b" format="2">
  <advance width="1198.3636363636363"/>
  <unicode hex="0062"/>
  <anchor x="546.5909090909091" y="0.0" name="bottom"/>
  <anchor x="461.1818181818182" y="1516.0" name="top"/>
  <outline>
    <contour>
      <point x="569.6363636363636" y="-26.136363636363637" type="curve" smooth="yes"/>
      <point x="892.9545454545455" y="-26.136363636363637"/>
      <point x="1131.090909090909" y="218.72727272727272"/>
      <point x="1172.3181818181818" y="541.6363636363636" type="curve" smooth="yes"/>
      <point x="1205.7272727272727" y="823.3636363636364"/>
      <point x="1054.5454545454545" y="1062.1363636363637"/>
      <point x="814.4545454545455" y="1048.909090909091" type="curve" smooth="yes"/>
      <point x="749.5454545454545" y="1045.6818181818182"/>
      <point x="664.0" y="1024.1363636363637"/>
      <point x="587.0909090909091" y="987.3636363636364" type="curve" name="hr00"/>
      <point x="623.8636363636364" y="915.0909090909091"/>
      <point x="661.5909090909091" y="856.8636363636364"/>
      <point x="740.0" y="865.3181818181819" type="curve" smooth="yes"/>
      <point x="886.6818181818181" y="880.4090909090909"/>
      <point x="934.6818181818181" y="722.1818181818181"/>
      <point x="913.7272727272727" y="541.6363636363636" type="curve" smooth="yes"/>
      <point x="884.9545454545455" y="315.45454545454544"/>
      <point x="760.4545454545455" y="155.9090909090909"/>
      <point x="591.3181818181819" y="155.9090909090909" type="curve" smooth="yes"/>
      <point x="535.0" y="155.9090909090909"/>
      <point x="478.6363636363636" y="161.45454545454544"/>
      <point x="417.8636363636364" y="180.54545454545456" type="curve"/>
      <point x="580.1818181818181" y="1502.0" type="line"/>
      <point x="339.72727272727275" y="1516.0" type="line"/>
      <point x="162.95454545454547" y="82.45454545454545" type="line"/>
      <point x="297.1818181818182" y="5.409090909090908"/>
      <point x="424.40909090909093" y="-26.136363636363637"/>
    </contour>
  </outline>
</glyph>
<glyph name="c" format="2">
  <advance width="857.6818181818181"/>
  <unicode hex="0063"/>
  <anchor x="507.04545454545456" y="0.0" name="bottom"/>
  <anchor x="630.9090909090909" y="1034.0" name="top"/>
  <outline>
    <contour>
      <point x="577.9545454545455" y="-23.68181818181818" type="curve" smooth="yes" name="hr00"/>
      <point x="646.0909090909091" y="-23.68181818181818"/>
      <point x="744.4090909090909" y="-4.0"/>
      <point x="856.7272727272727" y="46.31818181818182" type="curve"/>
      <point x="815.3636363636364" y="210.22727272727272" type="line"/>
      <point x="722.2727272727273" y="173.13636363636363"/>
      <point x="657.6363636363636" y="158.36363636363637"/>
      <point x="600.8636363636364" y="158.36363636363637" type="curve" smooth="yes"/>
      <point x="453.0" y="158.36363636363637"/>
      <point x="358.6363636363636" y="284.8181818181818"/>
      <point x="386.95454545454544" y="518.0" type="curve" smooth="yes"/>
      <point x="416.04545454545456" y="749.1818181818181"/>
      <point x="541.1818181818181" y="875.6363636363636"/>
      <point x="688.2727272727273" y="875.6363636363636" type="curve" smooth="yes"/>
      <point x="738.4545454545455" y="875.6363636363636"/>
      <point x="801.6818181818181" y="867.6363636363636"/>
      <point x="868.3181818181819" y="850.0909090909091" type="curve"/>
      <point x="948.7272727272727" y="1014.4545454545455" type="line"/>
      <point x="871.9545454545455" y="1044.4545454545455"/>
      <point x="783.1818181818181" y="1057.6818181818182"/>
      <point x="711.1818181818181" y="1057.6818181818182" type="curve" smooth="yes"/>
      <point x="440.90909090909093" y="1057.6818181818182"/>
      <point x="174.04545454545453" y="873.8181818181819"/>
      <point x="128.8181818181818" y="518.0" type="curve" smooth="yes"/>
      <point x="84.36363636363636" y="147.9090909090909"/>
      <point x="303.8181818181818" y="-23.68181818181818"/>
    </contour>
  </outline>
</glyph>
<glyph name="d" format="2">
  <advance width="1221.7727272727273"/>
  <unicode hex="0064"/>
  <anchor x="547.5" y="0.0" name="bottom"/>
  <anchor x="974.1363636363636" y="1273.8636363636363" name="center"/>
  <anchor x="1120.590909090909" y="1516.0" name="top"/>
  <anchor x="1370.6818181818182" y="1516.0" name="topright"/>
  <outline>
    <contour>
      <point x="525.7272727272727" y="-23.68181818181818" type="curve" name="hr02"/>
      <point x="605.2727272727273" y="-23.68181818181818"/>
      <point x="704.7272727272727" y="5.863636363636363"/>
      <point x="811.0" y="99.86363636363636" type="curve"/>
      <point x="843.2727272727273" y="140.0" type="line"/>
      <point x="845.7272727272727" y="99.4090909090909" type="line"/>
      <point x="857.2727272727273" y="55.22727272727273"/>
      <point x="873.7272727272727" y="21.863636363636363"/>
      <point x="904.9545454545455" y="0.0" type="curve" name="hr01"/>
      <point x="1090.0454545454545" y="10.0" type="line"/>
      <point x="1079.590909090909" y="94.72727272727272"/>
      <point x="1080.0454545454545" y="189.54545454545453"/>
      <point x="1093.909090909091" y="296.77272727272725" type="curve" smooth="yes"/>
      <point x="1242.0454545454545" y="1502.0" type="line"/>
      <point x="1001.5909090909091" y="1516.0" type="line"/>
      <point x="851.2727272727273" y="300.6818181818182" type="line"/>
      <point x="756.0454545454545" y="203.13636363636363"/>
      <point x="673.0909090909091" y="158.36363636363637"/>
      <point x="590.9090909090909" y="158.36363636363637" type="curve"/>
      <point x="440.6818181818182" y="158.36363636363637"/>
      <point x="374.5" y="319.45454545454544"/>
      <point x="400.8181818181818" y="523.2272727272727" type="curve"/>
      <point x="426.6818181818182" y="743.6818181818181"/>
      <point x="531.5909090909091" y="869.1818181818181"/>
      <point x="686.7727272727273" y="873.7727272727273" type="curve" smooth="yes"/>
      <point x="763.5909090909091" y="876.6818181818181"/>
      <point x="822.6818181818181" y="932.5"/>
      <point x="869.1363636363636" y="1014.4545454545455" type="curve"/>
      <point x="780.7272727272727" y="1042.909090909091"/>
      <point x="720.8636363636364" y="1049.6818181818182"/>
      <point x="655.9545454545455" y="1049.6818181818182" type="curve" smooth="yes"/>
      <point x="422.8636363636364" y="1049.6818181818182"/>
      <point x="178.22727272727272" y="819.9090909090909"/>
      <point x="142.6818181818182" y="523.2272727272727" type="curve"/>
      <point x="103.45454545454545" y="211.0909090909091"/>
      <point x="239.5909090909091" y="-23.68181818181818"/>
    </contour>
  </outline>
</glyph>
<glyph name="e" format="2">
  <advance width="1112.5454545454545"/>
  <unicode hex="0065"/>
  <anchor x="580.7272727272727" y="0.0" name="bottom"/>
  <anchor x="826.5909090909091" y="0.0" name="ogonek"/>
  <anchor x="710.2727272727273" y="1034.0" name="top"/>
  <outline>
    <contour>
      <point x="605.5" y="-23.68181818181818" type="curve" smooth="yes"/>
      <point x="718.6818181818181" y="-23.68181818181818"/>
      <point x="845.9090909090909" y="-0.7727272727272727"/>
      <point x="991.7272727272727" y="66.45454545454545" type="curve"/>
      <point x="949.9090909090909" y="231.5909090909091" type="line"/>
      <point x="827.9090909090909" y="177.27272727272728"/>
      <point x="746.5454545454545" y="158.36363636363637"/>
      <point x="654.5454545454545" y="158.36363636363637" type="curve" smooth="yes"/>
      <point x="481.1363636363636" y="158.36363636363637"/>
      <point x="376.1818181818182" y="303.1818181818182"/>
      <point x="404.95454545454544" y="536.2727272727273" type="curve" smooth="yes"/>
      <point x="433.72727272727275" y="771.2272727272727"/>
      <point x="568.1818181818181" y="883.0"/>
      <point x="700.5909090909091" y="883.0" type="curve" smooth="yes"/>
      <point x="825.6818181818181" y="883.0"/>
      <point x="893.2727272727273" y="768.3636363636364"/>
      <point x="858.9545454545455" y="634.0" type="curve" name="hr00"/>
      <point x="651.5909090909091" y="634.0" type="line"/>
      <point x="572.7727272727273" y="634.0"/>
      <point x="510.95454545454544" y="567.4090909090909"/>
      <point x="471.72727272727275" y="481.59090909090907" type="curve"/>
      <point x="1039.4545454545455" y="481.59090909090907" type="line"/>
      <point x="1185.5454545454545" y="803.1818181818181"/>
      <point x="1026.090909090909" y="1057.6818181818182"/>
      <point x="738.5909090909091" y="1057.6818181818182" type="curve" smooth="yes"/>
      <point x="443.95454545454544" y="1057.6818181818182"/>
      <point x="203.72727272727272" y="858.5909090909091"/>
      <point x="162.5" y="530.9090909090909" type="curve" smooth="yes"/>
      <point x="128.1818181818182" y="243.9090909090909"/>
      <point x="267.3181818181818" y="-23.68181818181818"/>
    </contour>
  </outline>
</glyph>
<glyph name="f" format="2">
  <advance width="837.6818181818181"/>
  <unicode hex="0066"/>
  <anchor x="314.1818181818182" y="0.0" name="bottom"/>
  <anchor x="791.2727272727273" y="1516.0" name="top"/>
  <outline>
    <contour>
      <point x="199.1818181818182" y="0.0" type="line"/>
      <point x="428.4090909090909" y="0.0" type="line"/>
      <point x="561.9545454545455" y="1097.7272727272727" type="line" smooth="yes"/>
      <point x="582.2727272727273" y="1259.6818181818182"/>
      <point x="685.2727272727273" y="1347.0454545454545"/>
      <point x="808.3181818181819" y="1347.0454545454545" type="curve" smooth="yes"/>
      <point x="852.7727272727273" y="1347.0454545454545"/>
      <point x="901.5454545454545" y="1338.590909090909"/>
      <point x="979.8636363636364" y="1312.7272727272727" type="curve"/>
      <point x="1053.0454545454545" y="1469.090909090909" type="line"/>
      <point x="957.6818181818181" y="1512.7727272727273"/>
      <point x="868.3181818181819" y="1526.0"/>
      <point x="802.3181818181819" y="1526.0" type="curve" smooth="yes"/>
      <point x="543.5909090909091" y="1526.0"/>
      <point x="365.1818181818182" y="1352.7727272727273"/>
      <point x="331.1818181818182" y="1090.0" type="curve" smooth="yes"/>
      <point x="325.1818181818182" y="1034.0" type="line"/>
      <point x="152.0909090909091" y="993.2272727272727" type="line"/>
      <point x="135.95454545454547" y="859.1818181818181" type="line" name="hr00"/>
      <point x="304.27272727272725" y="859.1818181818181" type="line"/>
    </contour>
    <contour>
      <point x="603.0454545454545" y="859.1818181818181" type="curve"/>
      <point x="891.8181818181819" y="859.1818181818181" type="line"/>
      <point x="912.7272727272727" y="1034.0" type="line"/>
      <point x="812.3636363636364" y="1034.0" type="line"/>
      <point x="704.0909090909091" y="1034.0"/>
      <point x="639.0454545454545" y="942.5454545454545"/>
    </contour>
  </outline>
</glyph>
<glyph name="g" format="2">
  <advance width="1166.5454545454545"/>
  <unicode hex="0067"/>
  <anchor x="497.77272727272725" y="-482.0" name="bottom"/>
  <anchor x="734.4545454545455" y="1034.0" name="top"/>
  <outline>
    <contour>
      <point x="462.1363636363636" y="-500.0" type="curve" smooth="yes"/>
      <point x="754.1363636363636" y="-500.0"/>
      <point x="989.5909090909091" y="-339.72727272727275"/>
      <point x="1032.5" y="0.0" type="curve"/>
      <point x="1153.7272727272727" y="994.9090909090909" type="line"/>
      <point x="984.9090909090909" y="1043.3636363636363"/>
      <point x="884.1363636363636" y="1056.4545454545455"/>
      <point x="770.9090909090909" y="1056.4545454545455" type="curve" smooth="yes"/>
      <point x="432.6818181818182" y="1056.4545454545455"/>
      <point x="190.36363636363637" y="813.4545454545455"/>
      <point x="151.5909090909091" y="492.3636363636364" type="curve" name="hr00"/>
      <point x="117.72727272727272" y="220.36363636363637"/>
      <point x="260.5909090909091" y="-36.63636363636364"/>
      <point x="509.6363636363636" y="-14.90909090909091" type="curve" smooth="yes"/>
      <point x="574.5454545454545" y="-9.363636363636363"/>
      <point x="656.6818181818181" y="22.31818181818182"/>
      <point x="730.8181818181819" y="67.86363636363636" type="curve"/>
      <point x="689.2727272727273" y="135.6818181818182"/>
      <point x="647.5454545454545" y="179.9090909090909"/>
      <point x="576.0454545454545" y="173.13636363636363" type="curve" smooth="yes"/>
      <point x="422.72727272727275" y="155.4090909090909"/>
      <point x="389.54545454545456" y="326.5"/>
      <point x="410.1818181818182" y="492.3636363636364" type="curve"/>
      <point x="438.5" y="726.2727272727273"/>
      <point x="567.6363636363636" y="874.4090909090909"/>
      <point x="756.5909090909091" y="874.4090909090909" type="curve" smooth="yes"/>
      <point x="796.9545454545455" y="874.4090909090909"/>
      <point x="845.7272727272727" y="869.6363636363636"/>
      <point x="899.5909090909091" y="856.0909090909091" type="curve"/>
      <point x="791.2727272727273" y="-22.0" type="line"/>
      <point x="766.9545454545455" y="-223.0"/>
      <point x="623.5454545454545" y="-321.6363636363636"/>
      <point x="467.8181818181818" y="-321.6363636363636" type="curve" smooth="yes"/>
      <point x="383.8181818181818" y="-321.6363636363636"/>
      <point x="292.27272727272725" y="-304.09090909090907"/>
      <point x="172.0" y="-249.3181818181818" type="curve"/>
      <point x="89.27272727272728" y="-416.0" type="line"/>
      <point x="228.0" y="-484.0"/>
      <point x="358.1363636363636" y="-500.0"/>
    </contour>
  </outline>
</glyph>
<glyph name="h" format="2">
  <advance width="1195.909090909091"/>
  <unicode hex="0068"/>
  <anchor x="597.9545454545455" y="0.0" name="bottom"/>
  <anchor x="559.8181818181819" y="1273.8636363636363" name="center"/>
  <anchor x="459.95454545454544" y="1516.0" name="top"/>
  <outline>
    <contour>
      <point x="153.72727272727272" y="0.0" type="line" name="hr00"/>
      <point x="396.1818181818182" y="0.0" type="line"/>
      <point x="580.1818181818181" y="1502.0" type="line"/>
      <point x="339.72727272727275" y="1516.0" type="line"/>
    </contour>
    <contour>
      <point x="799.7272727272727" y="0.0" type="line"/>
      <point x="1044.5" y="0.0" type="line"/>
      <point x="1133.7272727272727" y="735.6818181818181" type="line" smooth="yes"/>
      <point x="1162.0454545454545" y="965.2727272727273"/>
      <point x="1039.1363636363637" y="1057.6818181818182"/>
      <point x="894.9545454545455" y="1057.6818181818182" type="curve" smooth="yes"/>
      <point x="820.9545454545455" y="1057.6818181818182"/>
      <point x="729.2727272727273" y="1040.590909090909"/>
      <point x="584.6363636363636" y="962.7272727272727" type="curve"/>
      <point x="621.5909090909091" y="896.1363636363636"/>
      <point x="665.6363636363636" y="850.2272727272727"/>
      <point x="733.3636363636364" y="859.6363636363636" type="curve" smooth="yes"/>
      <point x="768.9090909090909" y="863.9545454545455"/>
      <point x="781.6818181818181" y="871.9545454545455"/>
      <point x="808.7727272727273" y="871.9545454545455" type="curve" smooth="yes"/>
      <point x="875.7272727272727" y="871.9545454545455"/>
      <point x="899.2727272727273" y="817.0"/>
      <point x="890.5" y="740.9545454545455" type="curve"/>
    </contour>
  </outline>
</glyph>
<glyph name="j" format="2">
  <advance width="577.6363636363636"/>
  <unicode hex="006A"/>
  <outline>
    <contour>
      <point x="-16.636363636363637" y="-497.22727272727275" type="line"/>
      <point x="310.27272727272725" y="-290.90909090909093"/>
      <point x="404.6818181818182" y="-147.5"/>
      <point x="433.1363636363636" y="89.04545454545455" type="curve"/>
      <point x="549.9090909090909" y="1034.0" type="line"/>
      <point x="305.90909090909093" y="1034.0" type="line" name="hr01"/>
      <point x="189.13636363636363" y="89.04545454545455" type="line" smooth="yes"/>
      <point x="165.9090909090909" y="-103.86363636363636"/>
      <point x="118.68181818181819" y="-189.72727272727272"/>
      <point x="-105.81818181818181" y="-366.6818181818182" type="curve"/>
    </contour>
    <contour>
      <point x="446.45454545454544" y="1187.0" type="curve" smooth="yes"/>
      <point x="531.9545454545455" y="1187.0"/>
      <point x="604.6818181818181" y="1250.5"/>
      <point x="613.9090909090909" y="1334.0" type="curve" smooth="yes"/>
      <point x="625.1363636363636" y="1419.5"/>
      <point x="569.3181818181819" y="1485.0"/>
      <point x="483.8181818181818" y="1485.0" type="curve" smooth="yes"/>
      <point x="400.3181818181818" y="1485.0"/>
      <point x="329.1363636363636" y="1419.5"/>
      <point x="317.90909090909093" y="1334.0" type="curve"/>
      <point x="308.6818181818182" y="1250.5"/>
      <point x="362.95454545454544" y="1187.0"/>
    </contour>
  </outline>
</glyph>
<glyph name="k" format="2">
  <advance width="1214.7727272727273"/>
  <unicode hex="006B"/>
  <anchor x="636.5454545454545" y="0.0" name="bottom"/>
  <anchor x="459.95454545454544" y="1516.0" name="top"/>
  <outline>
    <contour>
      <point x="903.2272727272727" y="0.0" type="line"/>
      <point x="1174.1363636363637" y="0.0" type="line"/>
      <point x="861.2272727272727" y="673.6818181818181" type="line"/>
      <point x="1223.6818181818182" y="1020.0" type="line"/>
      <point x="956.3181818181819" y="1034.0" type="line"/>
      <point x="686.1818181818182" y="754.1818181818182" type="line" smooth="yes"/>
      <point x="584.2272727272727" y="648.5454545454545"/>
      <point x="523.8636363636364" y="505.3636363636364"/>
      <point x="536.5" y="362.3181818181818" type="curve"/>
      <point x="665.4545454545455" y="485.59090909090907" type="line"/>
      <point x="699.0" y="524.0454545454545" type="line"/>
      <point x="710.8636363636364" y="478.3636363636364" type="line"/>
    </contour>
    <contour>
      <point x="153.72727272727272" y="0.0" type="line"/>
      <point x="396.1818181818182" y="0.0" type="line" name="hr00"/>
      <point x="580.1818181818181" y="1502.0" type="line"/>
      <point x="339.72727272727275" y="1516.0" type="line"/>
    </contour>
  </outline>
</glyph>
<glyph name="l" format="2">
  <advance width="542.3636363636364"/>
  <unicode hex="006C"/>
  <anchor x="279.1818181818182" y="0.0" name="bottom"/>
  <anchor x="389.1818181818182" y="900.0" name="center"/>
  <anchor x="463.1818181818182" y="1516.0" name="top"/>
  <anchor x="674.1363636363636" y="1516.0" name="topright"/>
  <outline>
    <contour>
      <point x="157.72727272727272" y="0.0" type="line"/>
      <point x="398.6363636363636" y="0.0" type="line" name="hr00"/>
      <point x="582.6363636363636" y="1502.0" type="line"/>
      <point x="343.72727272727275" y="1516.0" type="line"/>
    </contour>
  </outline>
</glyph>
<glyph name="m" format="2">
  <advance width="1838.3636363636363"/>
  <unicode hex="006D"/>
  <anchor x="921.0454545454545" y="0.0" name="bottom"/>
  <anchor x="1046.7272727272727" y="1034.0" name="top"/>
  <outline>
    <contour>
      <point x="1437.590909090909" y="0.0" type="line"/>
      <point x="1682.3636363636363" y="0.0" type="line"/>
      <point x="1771.590909090909" y="735.6818181818181" type="line" smooth="yes"/>
      <point x="1799.909090909091" y="965.2727272727273"/>
      <point x="1668.6818181818182" y="1057.6818181818182"/>
      <point x="1522.9545454545455" y="1057.6818181818182" type="curve" smooth="yes"/>
      <point x="1437.4545454545455" y="1057.6818181818182"/>
      <point x="1339.909090909091" y="1033.2272727272727"/>
      <point x="1186.6818181818182" y="963.9545454545455" type="curve"/>
      <point x="1222.409090909091" y="897.3636363636364"/>
      <point x="1274.1363636363637" y="849.0"/>
      <point x="1344.3181818181818" y="858.4090909090909" type="curve" smooth="yes"/>
      <point x="1379.8636363636363" y="862.7272727272727"/>
      <point x="1407.5454545454545" y="871.9545454545455"/>
      <point x="1434.6363636363637" y="871.9545454545455" type="curve" smooth="yes"/>
      <point x="1512.5" y="871.9545454545455"/>
      <point x="1537.1363636363637" y="817.0"/>
      <point x="1528.3636363636363" y="740.9545454545455" type="curve"/>
    </contour>
    <contour>
      <point x="157.72727272727272" y="0.0" type="line"/>
      <point x="403.72727272727275" y="0.0" type="line"/>
      <point x="501.72727272727275" y="814.0" type="line" smooth="yes"/>
      <point x="511.72727272727275" y="894.0"/>
      <point x="507.72727272727275" y="962.0"/>
      <point x="451.72727272727275" y="1034.0" type="curve"/>
      <point x="251.72727272727272" y="1024.0" type="line"/>
      <point x="261.72727272727275" y="930.0"/>
      <point x="259.72727272727275" y="846.0"/>
      <point x="251.72727272727272" y="772.0" type="curve" smooth="yes"/>
    </contour>
    <contour>
      <point x="798.0454545454545" y="0.0" type="line"/>
      <point x="1044.0454545454545" y="0.0" type="line"/>
      <point x="1133.2727272727273" y="735.6818181818181" type="line" smooth="yes"/>
      <point x="1161.590909090909" y="965.2727272727273"/>
      <point x="1042.0454545454545" y="1057.6818181818182"/>
      <point x="897.0909090909091" y="1057.6818181818182" type="curve" smooth="yes"/>
      <point x="811.5909090909091" y="1057.6818181818182"/>
      <point x="720.8181818181819" y="1034.0"/>
      <point x="568.8181818181819" y="965.9545454545455" type="curve"/>
      <point x="604.5454545454545" y="899.3636363636364"/>
      <point x="652.2727272727273" y="851.0"/>
      <point x="723.2272727272727" y="860.4090909090909" type="curve" smooth="yes"/>
      <point x="756.0" y="864.7272727272727"/>
      <point x="778.4545454545455" y="871.9545454545455"/>
      <point x="805.5454545454545" y="871.9545454545455" type="curve" smooth="yes" name="hr01"/>
      <point x="877.4090909090909" y="871.9545454545455"/>
      <point x="897.5909090909091" y="817.0"/>
      <point x="888.8181818181819" y="740.9545454545455" type="curve"/>
    </contour>
  </outline>
</glyph>
<glyph name="n" format="2">
  <advance width="1169.909090909091"/>
  <unicode hex="006E"/>
  <anchor x="579.2727272727273" y="0.0" name="bottom"/>
  <anchor x="705.1363636363636" y="1034.0" name="top"/>
  <outline>
    <contour>
      <point x="780.5909090909091" y="0.0" type="line"/>
      <point x="1025.3636363636363" y="0.0" type="line"/>
      <point x="1114.590909090909" y="735.6818181818181" type="line" smooth="yes"/>
      <point x="1142.909090909091" y="965.2727272727273"/>
      <point x="1015.3636363636364" y="1057.6818181818182"/>
      <point x="868.8636363636364" y="1057.6818181818182" type="curve" smooth="yes"/>
      <point x="784.5909090909091" y="1057.6818181818182"/>
      <point x="688.9090909090909" y="1035.6818181818182"/>
      <point x="544.2727272727273" y="960.2727272727273" type="curve"/>
      <point x="581.2272727272727" y="898.5909090909091"/>
      <point x="625.5909090909091" y="849.0"/>
      <point x="695.7727272727273" y="858.4090909090909" type="curve" smooth="yes"/>
      <point x="733.0" y="862.7272727272727"/>
      <point x="754.2272727272727" y="871.9545454545455"/>
      <point x="782.5454545454545" y="871.9545454545455" type="curve" smooth="yes" name="hr01"/>
      <point x="855.9545454545455" y="871.9545454545455"/>
      <point x="880.1363636363636" y="817.0"/>
      <point x="871.3636363636364" y="740.9545454545455" type="curve"/>
    </contour>
    <contour>
      <point x="130.72727272727272" y="0.0" type="line"/>
      <point x="376.72727272727275" y="0.0" type="line"/>
      <point x="474.72727272727275" y="814.0" type="line" smooth="yes"/>
      <point x="484.72727272727275" y="894.0"/>
      <point x="479.5" y="962.0"/>
      <point x="423.5" y="1034.0" type="curve"/>
      <point x="223.5" y="1024.0" type="line"/>
      <point x="233.5" y="930.0"/>
      <point x="232.72727272727272" y="846.0"/>
      <point x="224.72727272727272" y="772.0" type="curve" smooth="yes"/>
    </contour>
  </outline>
</glyph>
<glyph name="o" format="2">
  <advance width="1186.0"/>
  <unicode hex="006F"/>
  <anchor x="585.7727272727273" y="0.0" name="bottom"/>
  <anchor x="649.7727272727273" y="518.0" name="center"/>
  <anchor x="1005.0909090909091" y="0.0" name="ogonek"/>
  <anchor x="713.7727272727273" y="1034.0" name="top"/>
  <anchor x="1210.0" y="1034.0" name="topright"/>
  <outline>
    <contour>
      <point x="583.7727272727273" y="-23.68181818181818" type="curve" smooth="yes"/>
      <point x="845.4545454545455" y="-23.68181818181818"/>
      <point x="1122.909090909091" y="174.9090909090909"/>
      <point x="1164.909090909091" y="518.0" type="curve" smooth="yes"/>
      <point x="1204.1363636363637" y="829.0454545454545"/>
      <point x="1030.3636363636363" y="1057.6818181818182"/>
      <point x="717.0" y="1057.6818181818182" type="curve"/>
      <point x="484.6818181818182" y="1057.6818181818182"/>
      <point x="180.63636363636363" y="890.1363636363636"/>
      <point x="134.63636363636363" y="518.0" type="curve" smooth="yes" name="hr00"/>
      <point x="92.63636363636364" y="170.0"/>
      <point x="307.1818181818182" y="-23.68181818181818"/>
    </contour>
    <contour>
      <point x="605.4545454545455" y="157.13636363636363" type="curve"/>
      <point x="445.54545454545456" y="157.13636363636363"/>
      <point x="367.22727272727275" y="305.6363636363636"/>
      <point x="392.77272727272725" y="518.0" type="curve" smooth="yes"/>
      <point x="420.6363636363636" y="735.6818181818181"/>
      <point x="539.6363636363636" y="876.8636363636364"/>
      <point x="694.0909090909091" y="876.8636363636364" type="curve"/>
      <point x="848.5454545454545" y="876.8636363636364"/>
      <point x="933.4090909090909" y="735.6818181818181"/>
      <point x="905.5454545454545" y="518.0" type="curve" smooth="yes"/>
      <point x="882.0" y="319.95454545454544"/>
      <point x="776.1363636363636" y="157.13636363636363"/>
    </contour>
  </outline>
</glyph>
<glyph name="p" format="2">
  <advance width="1224.2272727272727"/>
  <unicode hex="0070"/>
  <anchor x="219.8181818181818" y="-482.0" name="bottom"/>
  <anchor x="782.5" y="1034.0" name="top"/>
  <outline>
    <contour>
      <point x="100.36363636363636" y="-468.0" type="line"/>
      <point x="340.04545454545456" y="-482.0" type="line"/>
      <point x="488.3636363636364" y="733.3181818181819" type="line"/>
      <point x="583.1363636363636" y="830.8636363636364"/>
      <point x="667.3181818181819" y="875.6363636363636"/>
      <point x="749.9545454545455" y="875.6363636363636" type="curve"/>
      <point x="899.7272727272727" y="875.6363636363636"/>
      <point x="965.1363636363636" y="714.5454545454545"/>
      <point x="940.8181818181819" y="510.77272727272725" type="curve"/>
      <point x="912.9545454545455" y="291.0909090909091"/>
      <point x="808.0454545454545" y="164.8181818181818"/>
      <point x="652.4090909090909" y="160.22727272727272" type="curve" smooth="yes"/>
      <point x="576.3636363636364" y="158.54545454545456"/>
      <point x="518.5" y="101.5"/>
      <point x="472.5" y="19.545454545454547" type="curve"/>
      <point x="560.1363636363636" y="-8.90909090909091"/>
      <point x="619.5454545454545" y="-15.681818181818182"/>
      <point x="684.4545454545455" y="-15.681818181818182" type="curve" smooth="yes"/>
      <point x="918.3181818181819" y="-15.681818181818182"/>
      <point x="1161.409090909091" y="214.0909090909091"/>
      <point x="1198.9545454545455" y="510.77272727272725" type="curve"/>
      <point x="1236.9545454545455" y="822.9090909090909"/>
      <point x="1100.8181818181818" y="1057.6818181818182"/>
      <point x="815.9090909090909" y="1057.6818181818182" type="curve" name="hr02"/>
      <point x="734.3636363636364" y="1057.6818181818182"/>
      <point x="635.6818181818181" y="1026.909090909091"/>
      <point x="526.9545454545455" y="931.2272727272727" type="curve"/>
      <point x="496.3636363636364" y="892.7727272727273" type="line"/>
      <point x="496.3636363636364" y="929.6818181818181" type="line"/>
      <point x="485.1363636363636" y="975.0909090909091"/>
      <point x="467.90909090909093" y="1010.9090909090909"/>
      <point x="436.6818181818182" y="1034.0" type="curve" name="hr01"/>
      <point x="251.5909090909091" y="1024.0" type="line"/>
      <point x="260.8181818181818" y="939.2727272727273"/>
      <point x="260.3636363636364" y="844.4545454545455"/>
      <point x="247.72727272727272" y="737.2272727272727" type="curve" smooth="yes"/>
    </contour>
  </outline>
</glyph>
<glyph name="q" format="2">
  <advance width="1192.2272727272727"/>
  <unicode hex="0071"/>
  <anchor x="862.4090909090909" y="-482.0" name="bottom"/>
  <anchor x="779.5" y="1034.0" name="top"/>
  <outline>
    <contour>
      <point x="745.4090909090909" y="-468.0" type="line"/>
      <point x="980.6363636363636" y="-482.0" type="line"/>
      <point x="1161.8636363636363" y="994.9090909090909" type="line"/>
      <point x="991.8181818181819" y="1043.3636363636363"/>
      <point x="891.0454545454545" y="1056.4545454545455"/>
      <point x="779.0454545454545" y="1056.4545454545455" type="curve" smooth="yes"/>
      <point x="439.59090909090907" y="1056.4545454545455"/>
      <point x="197.27272727272728" y="813.4545454545455"/>
      <point x="158.5" y="492.3636363636364" type="curve" smooth="yes"/>
      <point x="124.63636363636364" y="220.36363636363637"/>
      <point x="269.5" y="-36.63636363636364"/>
      <point x="517.3181818181819" y="-14.90909090909091" type="curve" smooth="yes"/>
      <point x="582.2272727272727" y="-9.363636363636363"/>
      <point x="664.3636363636364" y="22.31818181818182"/>
      <point x="739.7272727272727" y="67.86363636363636" type="curve" name="hr00"/>
      <point x="696.9545454545455" y="135.6818181818182"/>
      <point x="655.2272727272727" y="180.6818181818182"/>
      <point x="584.9545454545455" y="173.13636363636363" type="curve" smooth="yes"/>
      <point x="430.40909090909093" y="155.4090909090909"/>
      <point x="396.45454545454544" y="326.5"/>
      <point x="417.0909090909091" y="492.3636363636364" type="curve" smooth="yes"/>
      <point x="445.4090909090909" y="726.2727272727273"/>
      <point x="574.5454545454545" y="874.4090909090909"/>
      <point x="763.5" y="874.4090909090909" type="curve" smooth="yes"/>
      <point x="803.8636363636364" y="874.4090909090909"/>
      <point x="852.6363636363636" y="869.6363636363636"/>
      <point x="907.7272727272727" y="856.0909090909091" type="curve"/>
    </contour>
  </outline>
</glyph>
<glyph name="r" format="2">
  <advance width="782.0"/>
  <unicode hex="0072"/>
  <anchor x="264.0" y="0.0" name="bottom"/>
  <anchor x="551.4090909090909" y="1034.0" name="top"/>
  <outline>
    <contour>
      <point x="148.22727272727272" y="0.0" type="line"/>
      <point x="377.77272727272725" y="0.0" type="line"/>
      <point x="438.8636363636364" y="509.04545454545456" type="line" smooth="yes"/>
      <point x="465.1818181818182" y="723.2727272727273"/>
      <point x="582.1818181818181" y="848.7272727272727"/>
      <point x="713.5454545454545" y="848.7272727272727" type="curve" smooth="yes"/>
      <point x="742.4545454545455" y="848.7272727272727"/>
      <point x="773.6818181818181" y="845.5"/>
      <point x="821.0454545454545" y="831.8181818181819" type="curve"/>
      <point x="874.8636363636364" y="1030.7727272727273" type="line"/>
      <point x="832.7272727272727" y="1044.4545454545455"/>
      <point x="796.5909090909091" y="1051.6818181818182"/>
      <point x="759.2272727272727" y="1051.6818181818182" type="curve" smooth="yes" name="hr01"/>
      <point x="664.7272727272727" y="1051.6818181818182"/>
      <point x="557.3181818181819" y="985.8181818181819"/>
      <point x="492.09090909090907" y="881.3636363636364" type="curve"/>
      <point x="468.40909090909093" y="838.0" type="line"/>
      <point x="471.1818181818182" y="881.3636363636364" type="line"/>
      <point x="468.40909090909093" y="947.8181818181819"/>
      <point x="451.8181818181818" y="1005.9545454545455"/>
      <point x="425.6363636363636" y="1034.0" type="curve"/>
      <point x="240.22727272727272" y="1024.0" type="line"/>
      <point x="251.45454545454544" y="930.0"/>
      <point x="247.9090909090909" y="826.6818181818181"/>
      <point x="236.8181818181818" y="734.1363636363636" type="curve" smooth="yes" name="hr02"/>
    </contour>
  </outline>
</glyph>
<glyph name="s" format="2">
  <advance width="856.5454545454545"/>
  <unicode hex="0073"/>
  <anchor x="409.04545454545456" y="0.0" name="bottom"/>
  <anchor x="570.2727272727273" y="1034.0" name="top"/>
  <outline>
    <contour>
      <point x="454.8636363636364" y="-20.0" type="curve" smooth="yes"/>
      <point x="637.0" y="-20.0"/>
      <point x="820.8181818181819" y="105.86363636363636"/>
      <point x="843.2727272727273" y="283.6363636363636" type="curve" smooth="yes"/>
      <point x="882.8181818181819" y="607.5454545454545"/>
      <point x="395.27272727272725" y="585.9545454545455"/>
      <point x="419.5909090909091" y="772.9545454545455" type="curve" smooth="yes"/>
      <point x="427.1363636363636" y="839.0"/>
      <point x="486.8636363636364" y="875.6363636363636"/>
      <point x="569.0454545454545" y="875.6363636363636" type="curve" smooth="yes"/>
      <point x="632.4090909090909" y="875.6363636363636"/>
      <point x="692.1363636363636" y="867.3181818181819"/>
      <point x="784.4090909090909" y="839.3181818181819" type="curve"/>
      <point x="861.1363636363636" y="1000.0" type="line"/>
      <point x="743.3181818181819" y="1041.2272727272727"/>
      <point x="656.5454545454545" y="1052.0"/>
      <point x="571.9545454545455" y="1052.0" type="curve" smooth="yes"/>
      <point x="323.45454545454544" y="1052.0"/>
      <point x="202.04545454545453" y="893.5909090909091"/>
      <point x="186.8181818181818" y="765.5909090909091" type="curve" smooth="yes"/>
      <point x="146.04545454545453" y="442.6363636363636"/>
      <point x="634.8181818181819" y="474.8181818181818"/>
      <point x="610.5" y="281.3636363636364" type="curve" smooth="yes"/>
      <point x="602.9545454545455" y="216.6818181818182"/>
      <point x="546.7727272727273" y="162.04545454545456"/>
      <point x="440.27272727272725" y="162.04545454545456" type="curve" smooth="yes"/>
      <point x="356.27272727272725" y="162.04545454545456"/>
      <point x="258.8636363636364" y="180.36363636363637"/>
      <point x="150.13636363636363" y="229.13636363636363" type="curve" name="hr00"/>
      <point x="70.63636363636364" y="64.0" type="line"/>
      <point x="232.13636363636363" y="-10.772727272727273"/>
      <point x="351.6363636363636" y="-20.0"/>
    </contour>
  </outline>
</glyph>
<glyph name="t" format="2">
  <advance width="887.5909090909091"/>
  <unicode hex="0074"/>
  <anchor x="499.27272727272725" y="0.0" name="bottom"/>
  <anchor x="489.5909090909091" y="569.7727272727273" name="center"/>
  <anchor x="478.22727272727275" y="1286.9545454545455" name="top"/>
  <anchor x="933.9090909090909" y="1286.9545454545455" name="topright"/>
  <outline>
    <contour>
      <point x="573.5909090909091" y="-24.454545454545453" type="curve" smooth="yes"/>
      <point x="638.8181818181819" y="-24.454545454545453"/>
      <point x="702.4545454545455" y="-8.318181818181818"/>
      <point x="807.2272727272727" y="25.68181818181818" type="curve"/>
      <point x="774.3181818181819" y="186.04545454545456" type="line"/>
      <point x="702.7727272727273" y="162.8181818181818"/>
      <point x="657.0909090909091" y="156.04545454545456"/>
      <point x="613.6818181818181" y="156.04545454545456" type="curve" smooth="yes"/>
      <point x="518.1363636363636" y="156.04545454545456"/>
      <point x="464.9090909090909" y="245.3181818181818"/>
      <point x="482.9090909090909" y="382.09090909090907" type="curve"/>
      <point x="602.4545454545455" y="1361.3636363636363" type="line"/>
      <point x="363.22727272727275" y="1286.9545454545455" type="line"/>
      <point x="332.45454545454544" y="1034.0" type="line"/>
      <point x="154.72727272727272" y="990.9090909090909" type="line"/>
      <point x="138.5909090909091" y="859.1818181818181" type="line"/>
      <point x="311.54545454545456" y="859.1818181818181" type="line" name="hr00"/>
      <point x="253.6818181818182" y="390.59090909090907" type="line"/>
      <point x="220.45454545454547" y="125.54545454545455"/>
      <point x="333.5" y="-24.454545454545453"/>
    </contour>
    <contour>
      <point x="798.7272727272727" y="859.1818181818181" type="curve"/>
      <point x="898.0" y="859.1818181818181" type="line"/>
      <point x="918.9090909090909" y="1034.0" type="line"/>
      <point x="632.0" y="1034.0" type="line"/>
      <point x="648.0" y="950.6363636363636"/>
      <point x="691.2272727272727" y="859.1818181818181"/>
    </contour>
  </outline>
</glyph>
<glyph name="u" format="2">
  <advance width="1205.909090909091"/>
  <unicode hex="0075"/>
  <anchor x="577.5" y="0.0" name="bottom"/>
  <anchor x="1059.8636363636363" y="10.0" name="ogonek"/>
  <anchor x="716.8636363636364" y="1034.0" name="top"/>
  <anchor x="1229.909090909091" y="1034.0" name="topright"/>
  <outline>
    <contour>
      <point x="414.5" y="-23.68181818181818" type="curve" smooth="yes"/>
      <point x="498.77272727272725" y="-23.68181818181818"/>
      <point x="594.7727272727273" y="-1.6818181818181817"/>
      <point x="740.6363636363636" y="73.72727272727272" type="curve"/>
      <point x="701.6818181818181" y="135.4090909090909"/>
      <point x="657.3181818181819" y="185.0"/>
      <point x="588.3636363636364" y="175.5909090909091" type="curve" smooth="yes"/>
      <point x="551.1363636363636" y="171.27272727272728"/>
      <point x="529.9090909090909" y="162.04545454545456"/>
      <point x="501.5909090909091" y="162.04545454545456" type="curve" smooth="yes" name="hr01"/>
      <point x="427.4090909090909" y="162.04545454545456"/>
      <point x="404.77272727272725" y="217.0"/>
      <point x="414.3181818181818" y="293.04545454545456" type="curve" smooth="yes"/>
      <point x="505.0909090909091" y="1034.0" type="line"/>
      <point x="261.8636363636364" y="1034.0" type="line"/>
      <point x="171.86363636363637" y="298.3181818181818" type="line" smooth="yes"/>
      <point x="143.0909090909091" y="68.72727272727272"/>
      <point x="268.77272727272725" y="-23.68181818181818"/>
    </contour>
    <contour>
      <point x="860.1818181818181" y="0.0" type="curve"/>
      <point x="1059.8636363636363" y="10.0" type="line"/>
      <point x="1047.090909090909" y="104.0"/>
      <point x="1047.8636363636363" y="188.0"/>
      <point x="1057.8636363636363" y="262.0" type="curve" smooth="yes"/>
      <point x="1151.8636363636363" y="1034.0" type="line"/>
      <point x="908.1818181818181" y="1034.0" type="line"/>
      <point x="808.1818181818181" y="220.0" type="line" smooth="yes"/>
      <point x="798.1818181818181" y="140.0"/>
      <point x="805.4090909090909" y="72.0"/>
    </contour>
  </outline>
</glyph>
<glyph name="v" format="2">
  <advance width="1070.0454545454545"/>
  <unicode hex="0076"/>
  <anchor x="537.6363636363636" y="0.0" name="bottom"/>
  <anchor x="666.4090909090909" y="1034.0" name="top"/>
  <outline>
    <contour>
      <point x="407.72727272727275" y="0.0" type="line" name="hr00"/>
      <point x="666.3181818181819" y="0.0" type="line"/>
      <point x="1173.090909090909" y="1020.0" type="line"/>
      <point x="928.1818181818181" y="1034.0" type="line"/>
      <point x="587.3181818181819" y="273.4090909090909" type="line"/>
      <point x="566.0909090909091" y="217.27272727272728" type="line"/>
      <point x="558.5454545454545" y="273.4090909090909" type="line"/>
      <point x="403.4090909090909" y="1034.0" type="line"/>
      <point x="145.72727272727272" y="1034.0" type="line"/>
    </contour>
  </outline>
</glyph>
<glyph name="w" format="2">
  <advance width="1734.7272727272727"/>
  <unicode hex="0077"/>
  <anchor x="880.4545454545455" y="0.0" name="bottom"/>
  <anchor x="980.9090909090909" y="1034.0" name="top"/>
  <outline>
    <contour>
      <point x="1085.7727272727273" y="0.0" type="line"/>
      <point x="1345.909090909091" y="0.0" type="line"/>
      <point x="1828.6818181818182" y="1020.0" type="line"/>
      <point x="1584.5454545454545" y="1034.0" type="line"/>
      <point x="1266.1363636363637" y="273.4090909090909" type="line"/>
      <point x="1244.909090909091" y="217.27272727272728" type="line"/>
      <point x="1238.1363636363637" y="273.4090909090909" type="line"/>
      <point x="1105.4545454545455" y="1034.0" type="line"/>
      <point x="846.5454545454545" y="1034.0" type="line"/>
    </contour>
    <contour>
      <point x="422.54545454545456" y="0.0" type="line"/>
      <point x="675.1363636363636" y="0.0" type="line" name="hr00"/>
      <point x="811.6363636363636" y="253.5909090909091" type="line"/>
      <point x="892.5" y="407.8181818181818"/>
      <point x="866.6818181818181" y="605.8181818181819"/>
      <point x="815.9090909090909" y="702.5" type="curve"/>
      <point x="602.1363636363636" y="273.4090909090909" type="line"/>
      <point x="580.9090909090909" y="217.27272727272728" type="line"/>
      <point x="574.1363636363636" y="273.4090909090909" type="line"/>
      <point x="441.45454545454544" y="1034.0" type="line"/>
      <point x="183.77272727272728" y="1034.0" type="line"/>
    </contour>
  </outline>
</glyph>
<glyph name="x" format="2">
  <advance width="1016.4090909090909"/>
  <unicode hex="0078"/>
  <anchor x="495.3636363636364" y="0.0" name="bottom"/>
  <anchor x="634.1363636363636" y="1034.0" name="top"/>
  <outline>
    <contour>
      <point x="711.0" y="0.0" type="curve" name="hr00"/>
      <point x="982.8181818181819" y="0.0" type="line"/>
      <point x="684.3636363636364" y="517.4090909090909" type="line"/>
      <point x="1076.8181818181818" y="1020.0" type="line"/>
      <point x="826.5454545454545" y="1034.0" type="line"/>
      <point x="606.2727272727273" y="717.7272727272727" type="line"/>
      <point x="586.2727272727273" y="675.7272727272727" type="line"/>
      <point x="579.0454545454545" y="717.7272727272727" type="line"/>
      <point x="439.72727272727275" y="1034.0" type="line"/>
      <point x="163.45454545454544" y="1034.0" type="line"/>
      <point x="445.1363636363636" y="506.95454545454544" type="line"/>
      <point x="536.6818181818181" y="337.8636363636364"/>
      <point x="625.9090909090909" y="169.0909090909091"/>
    </contour>
    <contour>
      <point x="19.454545454545453" y="0.0" type="line"/>
      <point x="279.72727272727275" y="0.0" type="line"/>
      <point x="396.77272727272725" y="163.8181818181818" type="line"/>
      <point x="465.22727272727275" y="266.22727272727275"/>
      <point x="426.22727272727275" y="379.8636363636364"/>
      <point x="381.45454545454544" y="443.8636363636364" type="curve"/>
    </contour>
  </outline>
</glyph>
<glyph name="y" format="2">
  <advance width="1145.1363636363637"/>
  <unicode hex="0079"/>
  <anchor x="928.9090909090909" y="0.0" name="bottom"/>
  <anchor x="685.3181818181819" y="1034.0" name="top"/>
  <outline>
    <contour>
      <point x="187.36363636363637" y="-494.45454545454544" type="curve"/>
      <point x="452.09090909090907" y="-493.6818181818182"/>
      <point x="548.5454545454545" y="-298.04545454545456"/>
      <point x="710.6363636363636" y="22.0" type="curve"/>
      <point x="1193.409090909091" y="1020.0" type="line"/>
      <point x="950.1818181818181" y="1034.0" type="line"/>
      <point x="530.7727272727273" y="74.0" type="line"/>
      <point x="420.45454545454544" y="-164.0"/>
      <point x="355.6818181818182" y="-313.6363636363636"/>
      <point x="210.27272727272728" y="-313.6363636363636" type="curve"/>
      <point x="172.27272727272728" y="-313.6363636363636"/>
      <point x="135.95454545454547" y="-310.09090909090907"/>
      <point x="90.72727272727272" y="-298.09090909090907" type="curve"/>
      <point x="13.227272727272727" y="-459.54545454545456" type="line"/>
      <point x="72.13636363636364" y="-483.6818181818182"/>
      <point x="133.36363636363637" y="-492.45454545454544"/>
    </contour>
    <contour>
      <point x="405.54545454545456" y="23.68181818181818" type="line"/>
      <point x="482.1363636363636" y="119.13636363636364"/>
      <point x="550.6818181818181" y="326.95454545454544"/>
      <point x="519.4545454545455" y="483.1818181818182" type="curve" name="hr00"/>
      <point x="416.5909090909091" y="1034.0" type="line"/>
      <point x="156.77272727272728" y="1034.0" type="line"/>
    </contour>
  </outline>
</glyph>
<glyph name="z" format="2">
  <advance width="927.9090909090909"/>
  <unicode hex="007A"/>
  <anchor x="471.04545454545456" y="0.0" name="bottom"/>
  <anchor x="606.0" y="1034.0" name="top"/>
  <outline>
    <contour>
      <point x="63.86363636363636" y="0.0" type="line"/>
      <point x="861.5" y="0.0" type="line"/>
      <point x="882.4090909090909" y="172.8181818181818" type="line"/>
      <point x="411.3636363636364" y="172.8181818181818" type="line"/>
      <point x="364.5909090909091" y="166.8181818181818" type="line"/>
      <point x="400.1363636363636" y="200.8181818181818" type="line"/>
      <point x="967.9545454545455" y="932.2272727272727" type="line"/>
      <point x="980.4090909090909" y="1034.0" type="line"/>
      <point x="248.5" y="1034.0" type="line" name="hr00"/>
      <point x="227.5909090909091" y="865.1818181818181" type="line"/>
      <point x="639.6818181818181" y="865.1818181818181" type="line"/>
      <point x="682.9090909090909" y="871.1818181818181" type="line"/>
      <point x="647.6818181818181" y="837.1818181818181" type="line"/>
      <point x="75.54545454545455" y="101.77272727272728" type="line"/>
    </contour>
  </outline>
</glyph>
<glyph name="braceleft" format="2">
  <advance width="806.0"/>
  <unicode hex="007B"/>
  <outline>
    <contour>
      <point x="650.2272727272727" y="-352.0" type="curve"/>
      <point x="776.5909090909091" y="-232.36363636363637" type="line"/>
      <point x="612.2272727272727" y="-77.72727272727272"/>
      <point x="574.2272727272727" y="73.0909090909091"/>
      <point x="590.2272727272727" y="336.0" type="curve"/>
      <point x="597.0" y="445.22727272727275"/>
      <point x="549.0" y="528.4545454545455"/>
      <point x="469.77272727272725" y="584.4545454545455" type="curve"/>
      <point x="425.45454545454544" y="606.0" type="line"/>
      <point x="476.22727272727275" y="628.0" type="line"/>
      <point x="566.2272727272727" y="684.0"/>
      <point x="636.2272727272727" y="768.0"/>
      <point x="656.2272727272727" y="878.0" type="curve"/>
      <point x="705.4545454545455" y="1122.1363636363637"/>
      <point x="780.8636363636364" y="1264.0454545454545"/>
      <point x="979.6818181818181" y="1415.590909090909" type="curve"/>
      <point x="882.2272727272727" y="1534.0" type="line"/>
      <point x="616.6818181818181" y="1369.2272727272727"/>
      <point x="505.90909090909093" y="1174.409090909091"/>
      <point x="441.1363636363636" y="842.2727272727273" type="curve"/>
      <point x="422.6818181818182" y="748.2727272727273"/>
      <point x="327.1363636363636" y="694.2727272727273"/>
      <point x="221.9090909090909" y="676.2727272727273" type="curve"/>
      <point x="206.6818181818182" y="543.8636363636364" type="line"/>
      <point x="306.6818181818182" y="525.8636363636364"/>
      <point x="384.22727272727275" y="471.8636363636364"/>
      <point x="379.45454545454544" y="377.8636363636364" type="curve" name="hr00"/>
      <point x="357.45454545454544" y="20.18181818181818"/>
      <point x="417.45454545454544" y="-180.45454545454547"/>
    </contour>
  </outline>
</glyph>
<glyph name="braceright" format="2">
  <advance width="836.6818181818181"/>
  <unicode hex="007D"/>
  <outline>
    <contour>
      <point x="224.54545454545456" y="-352.0" type="line"/>
      <point x="498.8636363636364" y="-180.45454545454547"/>
      <point x="607.6363636363636" y="20.18181818181818"/>
      <point x="672.8636363636364" y="377.8636363636364" type="curve" name="hr00"/>
      <point x="692.0909090909091" y="471.8636363636364"/>
      <point x="784.0909090909091" y="525.8636363636364"/>
      <point x="888.0909090909091" y="543.8636363636364" type="curve"/>
      <point x="903.3181818181819" y="676.2727272727273" type="line"/>
      <point x="804.5454545454545" y="694.2727272727273"/>
      <point x="722.5454545454545" y="748.2727272727273"/>
      <point x="726.5454545454545" y="842.2727272727273" type="curve"/>
      <point x="741.7727272727273" y="1174.409090909091"/>
      <point x="680.5454545454545" y="1369.2272727272727"/>
      <point x="456.54545454545456" y="1534.0" type="curve"/>
      <point x="330.1818181818182" y="1415.590909090909" type="line"/>
      <point x="489.0" y="1264.0454545454545"/>
      <point x="531.7727272727273" y="1122.1363636363637"/>
      <point x="518.5454545454545" y="878.0" type="curve"/>
      <point x="514.5454545454545" y="768.0"/>
      <point x="559.3181818181819" y="684.0"/>
      <point x="637.3181818181819" y="628.0" type="curve"/>
      <point x="686.5454545454545" y="606.0" type="line"/>
      <point x="633.3181818181819" y="584.7727272727273" type="line"/>
      <point x="542.5454545454545" y="528.7727272727273"/>
      <point x="474.54545454545456" y="446.0"/>
      <point x="452.54545454545456" y="336.0" type="curve"/>
      <point x="404.54545454545456" y="73.0909090909091"/>
      <point x="329.0" y="-77.72727272727272"/>
      <point x="127.0909090909091" y="-232.36363636363637" type="curve"/>
    </contour>
  </outline>
</glyph>
<glyph name="asciitilde" format="2">
  <advance width="1228.0"/>
  <unicode hex="007E"/>
  <outline>
    <contour>
      <point x="386.6363636363636" y="456.0" type="line"/>
      <point x="408.6363636363636" y="555.7272727272727"/>
      <point x="467.8636363636364" y="596.5454545454545"/>
      <point x="519.5909090909091" y="597.3181818181819" type="curve" smooth="yes" name="hr02"/>
      <point x="577.0454545454545" y="597.3181818181819"/>
      <point x="616.7727272727273" y="567.1363636363636"/>
      <point x="662.0454545454545" y="532.9545454545455" type="curve" smooth="yes"/>
      <point x="716.8181818181819" y="490.1818181818182"/>
      <point x="785.0" y="443.27272727272725"/>
      <point x="897.0909090909091" y="444.04545454545456" type="curve" smooth="yes"/>
      <point x="1032.5454545454545" y="444.8181818181818"/>
      <point x="1189.2272727272727" y="526.0"/>
      <point x="1230.0" y="753.2272727272727" type="curve"/>
      <point x="1028.2727272727273" y="769.2272727272727" type="line" name="hr01"/>
      <point x="1008.2727272727273" y="686.4090909090909"/>
      <point x="965.9545454545455" y="627.9090909090909"/>
      <point x="908.0909090909091" y="627.9090909090909" type="curve" smooth="yes"/>
      <point x="848.7727272727273" y="627.9090909090909"/>
      <point x="805.0454545454545" y="659.3181818181819"/>
      <point x="756.8636363636364" y="694.7272727272727" type="curve" smooth="yes"/>
      <point x="699.6363636363636" y="736.2727272727273"/>
      <point x="627.3181818181819" y="781.1818181818181"/>
      <point x="527.8181818181819" y="781.1818181818181" type="curve" smooth="yes"/>
      <point x="368.09090909090907" y="779.1818181818181"/>
      <point x="214.77272727272728" y="674.4545454545455"/>
      <point x="182.0" y="472.0" type="curve"/>
    </contour>
  </outline>
</glyph>
<glyph name="exclamdown" format="2">
  <advance width="702.0"/>
  <unicode hex="00A1"/>
  <outline>
    <contour>
      <point x="59.77272727272727" y="-420.0" type="line" name="hr00"/>
      <point x="304.22727272727275" y="-420.0" type="line"/>
      <point x="393.5" y="608.7727272727273" type="line"/>
      <point x="218.22727272727272" y="608.7727272727273" type="line"/>
    </contour>
    <contour>
      <point x="322.6363636363636" y="766.3181818181819" type="curve" smooth="yes"/>
      <point x="406.1363636363636" y="766.3181818181819"/>
      <point x="478.8636363636364" y="833.0454545454545"/>
      <point x="490.09090909090907" y="916.5454545454545" type="curve" smooth="yes"/>
      <point x="499.3181818181818" y="999.2727272727273"/>
      <point x="443.5" y="1062.7727272727273"/>
      <point x="360.0" y="1062.7727272727273" type="curve" smooth="yes"/>
      <point x="276.04545454545456" y="1062.7727272727273"/>
      <point x="204.0909090909091" y="999.2727272727273"/>
      <point x="194.86363636363637" y="916.5454545454545" type="curve"/>
      <point x="183.63636363636363" y="833.0454545454545"/>
      <point x="238.6818181818182" y="766.3181818181819"/>
    </contour>
  </outline>
</glyph>
<glyph name="cent" format="2">
  <advance width="854.0"/>
  <unicode hex="00A2"/>
  <outline>
    <contour>
      <point x="464.04545454545456" y="-28.0" type="line"/>
      <point x="639.9545454545455" y="-28.0" type="line"/>
      <point x="663.9545454545455" y="171.54545454545453" type="line"/>
      <point x="725.1818181818181" y="180.77272727272728"/>
      <point x="799.1818181818181" y="200.0"/>
      <point x="879.9545454545455" y="237.54545454545453" type="curve" name="hr00"/>
      <point x="838.5909090909091" y="401.45454545454544" type="line"/>
      <point x="746.2727272727273" y="364.3636363636364"/>
      <point x="680.4090909090909" y="349.5909090909091"/>
      <point x="623.6363636363636" y="349.5909090909091" type="curve" smooth="yes"/>
      <point x="475.77272727272725" y="349.5909090909091"/>
      <point x="381.8636363636364" y="476.04545454545456"/>
      <point x="410.95454545454544" y="709.2272727272727" type="curve" smooth="yes"/>
      <point x="439.27272727272725" y="940.4090909090909"/>
      <point x="565.1818181818181" y="1066.8636363636363"/>
      <point x="712.2727272727273" y="1066.8636363636363" type="curve" smooth="yes"/>
      <point x="762.4545454545455" y="1066.8636363636363"/>
      <point x="825.6818181818181" y="1058.8636363636363"/>
      <point x="890.0" y="1040.5454545454545" type="curve"/>
      <point x="971.9545454545455" y="1205.6818181818182" type="line"/>
      <point x="916.7272727272727" y="1227.6818181818182"/>
      <point x="853.1818181818181" y="1239.6818181818182"/>
      <point x="795.9545454545455" y="1245.6818181818182" type="curve"/>
      <point x="817.9545454545455" y="1432.0" type="line"/>
      <point x="642.0454545454545" y="1432.0" type="line"/>
      <point x="618.0454545454545" y="1236.0" type="line"/>
      <point x="390.8181818181818" y="1192.6363636363637"/>
      <point x="190.8181818181818" y="1013.5454545454545"/>
      <point x="152.8181818181818" y="709.2272727272727" type="curve" smooth="yes"/>
      <point x="113.5909090909091" y="391.09090909090907"/>
      <point x="268.1818181818182" y="218.5909090909091"/>
      <point x="488.04545454545456" y="177.22727272727272" type="curve"/>
    </contour>
  </outline>
</glyph>
<glyph name="sterling" format="2">
  <advance width="1026.0"/>
  <unicode hex="00A3"/>
  <outline>
    <contour>
      <point x="85.0" y="0.0" type="line"/>
      <point x="966.0" y="0.0" type="line"/>
      <point x="988.9090909090909" y="199.27272727272728" type="line"/>
      <point x="491.04545454545456" y="199.27272727272728" type="line"/>
      <point x="443.1818181818182" y="195.27272727272728" type="line"/>
      <point x="485.5" y="233.72727272727272" type="line"/>
      <point x="532.3181818181819" y="283.1363636363636"/>
      <point x="564.3636363636364" y="328.27272727272725"/>
      <point x="588.2272727272727" y="394.0" type="curve" name="hr00"/>
      <point x="652.2272727272727" y="592.0"/>
      <point x="600.2272727272727" y="780.0"/>
      <point x="630.2272727272727" y="1022.0" type="curve" smooth="yes"/>
      <point x="647.7727272727273" y="1159.2727272727273"/>
      <point x="733.3181818181819" y="1240.7272727272727"/>
      <point x="870.2727272727273" y="1240.7272727272727" type="curve" smooth="yes"/>
      <point x="926.2727272727273" y="1240.7272727272727"/>
      <point x="1019.8181818181819" y="1225.9545454545455"/>
      <point x="1114.2727272727273" y="1181.6363636363637" type="curve"/>
      <point x="1196.2272727272727" y="1350.0" type="line"/>
      <point x="1084.090909090909" y="1405.2272727272727"/>
      <point x="987.1818181818181" y="1424.0"/>
      <point x="893.1818181818181" y="1424.0" type="curve"/>
      <point x="638.8181818181819" y="1424.0"/>
      <point x="432.22727272727275" y="1287.8181818181818"/>
      <point x="399.0" y="1024.0" type="curve" smooth="yes"/>
      <point x="389.0" y="940.0"/>
      <point x="389.0" y="854.4090909090909"/>
      <point x="391.77272727272725" y="791.6363636363636" type="curve"/>
      <point x="223.45454545454544" y="791.6363636363636" type="line"/>
      <point x="202.54545454545456" y="622.3636363636364" type="line"/>
      <point x="398.22727272727275" y="622.3636363636364" type="line"/>
      <point x="397.77272727272725" y="570.0454545454545"/>
      <point x="395.0" y="528.6363636363636"/>
      <point x="389.0" y="484.0" type="curve" smooth="yes"/>
      <point x="370.22727272727275" y="332.59090909090907"/>
      <point x="253.45454545454544" y="212.4090909090909"/>
      <point x="101.45454545454545" y="140.4090909090909" type="curve"/>
    </contour>
    <contour>
      <point x="855.5909090909091" y="622.3636363636364" type="curve"/>
      <point x="993.7727272727273" y="622.3636363636364" type="line"/>
      <point x="1014.6818181818181" y="791.6363636363636" type="line"/>
      <point x="694.2272727272727" y="791.6363636363636" type="line"/>
      <point x="712.2272727272727" y="709.5"/>
      <point x="744.8636363636364" y="622.3636363636364"/>
    </contour>
  </outline>
</glyph>
<glyph name="currency" format="2">
  <advance width="1026.0"/>
  <unicode hex="00A4"/>
  <outline>
    <contour>
      <point x="170.9090909090909" y="204.95454545454547" type="line"/>
      <point x="331.8181818181818" y="346.1818181818182" type="line"/>
      <point x="379.8181818181818" y="303.54545454545456"/>
      <point x="456.77272727272725" y="273.54545454545456"/>
      <point x="542.4545454545455" y="273.54545454545456" type="curve" smooth="yes"/>
      <point x="631.0454545454545" y="273.54545454545456"/>
      <point x="720.4545454545455" y="304.0"/>
      <point x="777.4090909090909" y="349.72727272727275" type="curve"/>
      <point x="911.5454545454545" y="206.1818181818182" type="line"/>
      <point x="1015.0454545454545" y="302.1363636363636" type="line"/>
      <point x="878.1363636363636" y="448.90909090909093" type="line"/>
      <point x="917.6818181818181" y="496.45454545454544"/>
      <point x="958.0" y="583.6818181818181"/>
      <point x="970.7727272727273" y="685.0909090909091" type="curve" smooth="yes"/>
      <point x="982.7727272727273" y="781.0909090909091"/>
      <point x="963.2272727272727" y="865.0909090909091"/>
      <point x="934.9090909090909" y="914.1818181818181" type="curve"/>
      <point x="1110.1363636363637" y="1058.6363636363637" type="line"/>
      <point x="1031.090909090909" y="1155.3636363636363" type="line"/>
      <point x="859.8636363636364" y="1014.1363636363636" type="line"/>
      <point x="814.7727272727273" y="1056.0"/>
      <point x="738.0" y="1088.0"/>
      <point x="644.0" y="1088.0" type="curve" name="hr00"/>
      <point x="556.0" y="1088.0"/>
      <point x="474.1363636363636" y="1057.2272727272727"/>
      <point x="415.8181818181818" y="1014.5909090909091" type="curve"/>
      <point x="285.8181818181818" y="1156.590909090909" type="line"/>
      <point x="176.95454545454547" y="1056.1818181818182" type="line"/>
      <point x="312.6363636363636" y="914.1818181818181" type="line"/>
      <point x="269.54545454545456" y="864.3181818181819"/>
      <point x="226.0" y="782.0"/>
      <point x="212.0" y="680.4545454545455" type="curve" smooth="yes"/>
      <point x="200.0" y="578.7727272727273"/>
      <point x="224.0" y="494.90909090909093"/>
      <point x="253.54545454545453" y="446.59090909090907" type="curve"/>
      <point x="86.18181818181819" y="304.59090909090907" type="line"/>
    </contour>
    <contour>
      <point x="558.4545454545455" y="409.95454545454544" type="curve" smooth="yes"/>
      <point x="452.77272727272725" y="409.95454545454544"/>
      <point x="353.3181818181818" y="509.3181818181818"/>
      <point x="373.6363636363636" y="680.0" type="curve" smooth="yes"/>
      <point x="393.6363636363636" y="836.0"/>
      <point x="502.09090909090907" y="951.5909090909091"/>
      <point x="625.5454545454545" y="951.5909090909091" type="curve"/>
      <point x="755.0" y="951.5909090909091"/>
      <point x="827.5909090909091" y="821.0909090909091"/>
      <point x="810.3636363636364" y="683.0909090909091" type="curve" smooth="yes"/>
      <point x="790.5" y="518.8181818181819"/>
      <point x="671.6818181818181" y="409.95454545454544"/>
    </contour>
  </outline>
</glyph>
<glyph name="yen" format="2">
  <advance width="1320.0"/>
  <unicode hex="00A5"/>
  <outline>
    <contour>
      <point x="527.0" y="0.0" type="line"/>
      <point x="768.2272727272727" y="0.0" type="line"/>
      <point x="799.0" y="263.72727272727275" type="line"/>
      <point x="1102.7727272727273" y="263.72727272727275" type="line"/>
      <point x="1117.2272727272727" y="382.27272727272725" type="line"/>
      <point x="813.4545454545455" y="382.27272727272725" type="line"/>
      <point x="829.7727272727273" y="510.1818181818182" type="line"/>
      <point x="1133.5454545454545" y="510.1818181818182" type="line"/>
      <point x="1148.4545454545455" y="628.7272727272727" type="line"/>
      <point x="844.6818181818181" y="628.7272727272727" type="line"/>
      <point x="850.2272727272727" y="676.4545454545455" type="line"/>
      <point x="479.45454545454544" y="1454.0" type="line"/>
      <point x="204.54545454545456" y="1454.0" type="line"/>
      <point x="603.4545454545455" y="633.9545454545455" type="line"/>
      <point x="603.4545454545455" y="628.7272727272727" type="line"/>
      <point x="298.45454545454544" y="628.7272727272727" type="line" name="hr00"/>
      <point x="283.54545454545456" y="510.1818181818182" type="line"/>
      <point x="588.5454545454545" y="510.1818181818182" type="line"/>
      <point x="572.2272727272727" y="382.27272727272725" type="line"/>
      <point x="267.22727272727275" y="382.27272727272725" type="line"/>
      <point x="252.77272727272728" y="263.72727272727275" type="line"/>
      <point x="557.7727272727273" y="263.72727272727275" type="line"/>
    </contour>
    <contour>
      <point x="918.6818181818181" y="753.2272727272727" type="curve"/>
      <point x="1430.2272727272727" y="1454.0" type="line"/>
      <point x="1160.090909090909" y="1454.0" type="line"/>
      <point x="899.9545454545455" y="1071.5" type="line"/>
      <point x="822.9090909090909" y="956.6363636363636"/>
      <point x="875.4545454545455" y="818.9090909090909"/>
    </contour>
  </outline>
</glyph>
<glyph name="section" format="2">
  <advance width="1000.0"/>
  <unicode hex="00A7"/>
  <outline>
    <contour>
      <point x="493.09090909090907" y="-102.0" type="curve" smooth="yes"/>
      <point x="715.3636363636364" y="-102.0"/>
      <point x="913.6363636363636" y="14.0"/>
      <point x="935.6363636363636" y="186.45454545454547" type="curve" smooth="yes"/>
      <point x="947.6363636363636" y="284.0"/>
      <point x="908.0909090909091" y="352.0"/>
      <point x="846.2272727272727" y="404.45454545454544" type="curve"/>
      <point x="808.6818181818181" y="424.90909090909093" type="line"/>
      <point x="856.6818181818181" y="444.1363636363636" type="line"/>
      <point x="939.7727272727273" y="492.1363636363636"/>
      <point x="1000.4090909090909" y="563.6818181818181"/>
      <point x="1010.4090909090909" y="650.0" type="curve" smooth="yes"/>
      <point x="1054.409090909091" y="996.0"/>
      <point x="448.40909090909093" y="956.0"/>
      <point x="474.40909090909093" y="1172.0" type="curve" smooth="yes"/>
      <point x="483.1818181818182" y="1238.0454545454545"/>
      <point x="559.3636363636364" y="1273.4545454545455"/>
      <point x="679.5454545454545" y="1273.4545454545455" type="curve" smooth="yes"/>
      <point x="745.5454545454545" y="1273.4545454545455"/>
      <point x="819.7272727272727" y="1262.6818181818182"/>
      <point x="918.5" y="1234.6818181818182" type="curve"/>
      <point x="1002.0" y="1388.0" type="line"/>
      <point x="872.0" y="1428.0"/>
      <point x="766.0" y="1440.0"/>
      <point x="676.0" y="1440.0" type="curve" smooth="yes"/>
      <point x="446.0" y="1440.0"/>
      <point x="276.04545454545456" y="1313.5"/>
      <point x="257.59090909090907" y="1170.0" type="curve" smooth="yes"/>
      <point x="245.5909090909091" y="1069.2272727272727"/>
      <point x="288.6818181818182" y="1000.7727272727273"/>
      <point x="357.77272727272725" y="948.3181818181819" type="curve"/>
      <point x="395.3181818181818" y="929.0909090909091" type="line"/>
      <point x="347.45454545454544" y="910.3181818181819" type="line"/>
      <point x="254.95454545454547" y="856.7727272727273"/>
      <point x="190.8181818181818" y="779.2272727272727"/>
      <point x="182.8181818181818" y="704.0" type="curve" smooth="yes"/>
      <point x="139.5909090909091" y="362.6363636363636"/>
      <point x="745.5909090909091" y="405.8636363636364"/>
      <point x="718.8181818181819" y="189.0909090909091" type="curve" smooth="yes"/>
      <point x="708.8181818181819" y="107.68181818181819"/>
      <point x="619.7727272727273" y="65.31818181818181"/>
      <point x="487.22727272727275" y="65.31818181818181" type="curve" smooth="yes"/>
      <point x="388.45454545454544" y="65.31818181818181"/>
      <point x="267.8181818181818" y="88.54545454545455"/>
      <point x="154.27272727272728" y="136.0909090909091" type="curve" name="hr00"/>
      <point x="69.22727272727273" y="-18.0" type="line"/>
      <point x="223.45454545454544" y="-89.0909090909091"/>
      <point x="389.95454545454544" y="-102.0"/>
    </contour>
    <contour>
      <point x="681.0454545454545" y="501.1818181818182" type="curve"/>
      <point x="532.7272727272727" y="565.9545454545455"/>
      <point x="378.09090909090907" y="607.9545454545455"/>
      <point x="390.8636363636364" y="710.9090909090909" type="curve" smooth="yes"/>
      <point x="398.8636363636364" y="770.3181818181819"/>
      <point x="445.22727272727275" y="814.3636363636364"/>
      <point x="528.0454545454545" y="854.8181818181819" type="curve"/>
      <point x="670.8181818181819" y="794.8181818181819"/>
      <point x="815.9090909090909" y="753.2727272727273"/>
      <point x="804.3636363636364" y="660.0" type="curve" smooth="yes"/>
      <point x="797.5909090909091" y="604.1363636363636"/>
      <point x="759.4090909090909" y="549.5"/>
    </contour>
  </outline>
</glyph>
<glyph name="copyright" format="2">
  <advance width="1440.0"/>
  <unicode hex="00A9"/>
  <outline>
    <contour>
      <point x="718.7727272727273" y="49.72727272727273" type="curve" smooth="yes"/>
      <point x="1102.7727272727273" y="49.72727272727273"/>
      <point x="1412.2727272727273" y="352.0"/>
      <point x="1456.2727272727273" y="714.0" type="curve" smooth="yes"/>
      <point x="1502.7272727272727" y="1088.409090909091"/>
      <point x="1271.3636363636363" y="1372.2727272727273"/>
      <point x="881.2272727272727" y="1372.2727272727273" type="curve" name="hr00"/>
      <point x="493.22727272727275" y="1372.2727272727273"/>
      <point x="181.72727272727272" y="1070.0"/>
      <point x="137.72727272727272" y="714.0" type="curve" smooth="yes"/>
      <point x="91.27272727272728" y="333.59090909090907"/>
      <point x="324.6363636363636" y="49.72727272727273"/>
    </contour>
    <contour>
      <point x="796.0" y="352.0" type="curve"/>
      <point x="838.0" y="352.0"/>
      <point x="908.0" y="362.0"/>
      <point x="986.0" y="398.0" type="curve"/>
      <point x="960.3181818181819" y="507.95454545454544" type="line"/>
      <point x="895.5454545454545" y="479.95454545454544"/>
      <point x="848.4545454545455" y="472.40909090909093"/>
      <point x="810.4545454545455" y="472.40909090909093" type="curve"/>
      <point x="708.4545454545455" y="472.40909090909093"/>
      <point x="644.7272727272727" y="566.2272727272727"/>
      <point x="662.2727272727273" y="714.0" type="curve"/>
      <point x="680.5909090909091" y="859.0"/>
      <point x="769.5454545454545" y="951.5909090909091"/>
      <point x="869.5454545454545" y="951.5909090909091" type="curve"/>
      <point x="909.5454545454545" y="951.5909090909091"/>
      <point x="947.4090909090909" y="946.3636363636364"/>
      <point x="993.4090909090909" y="930.3636363636364" type="curve"/>
      <point x="1048.0" y="1046.0" type="line"/>
      <point x="994.0" y="1064.0"/>
      <point x="934.0" y="1074.0"/>
      <point x="884.0" y="1074.0" type="curve"/>
      <point x="700.1818181818181" y="1074.0"/>
      <point x="532.5" y="946.0"/>
      <point x="502.5" y="714.0" type="curve"/>
      <point x="474.5" y="480.0"/>
      <point x="608.1818181818181" y="352.0"/>
    </contour>
    <contour>
      <point x="736.4545454545455" y="190.27272727272728" type="curve"/>
      <point x="453.6363636363636" y="191.04545454545453"/>
      <point x="268.27272727272725" y="394.0"/>
      <point x="306.27272727272725" y="708.0" type="curve" smooth="yes"/>
      <point x="344.27272727272725" y="1026.0"/>
      <point x="581.1818181818181" y="1232.9545454545455"/>
      <point x="864.7727272727273" y="1233.7272727272727" type="curve"/>
      <point x="1142.3636363636363" y="1233.7272727272727"/>
      <point x="1325.7272727272727" y="1026.0"/>
      <point x="1287.7272727272727" y="714.0" type="curve" smooth="yes"/>
      <point x="1249.7272727272727" y="394.0"/>
      <point x="1014.0454545454545" y="188.72727272727272"/>
    </contour>
  </outline>
</glyph>
<glyph name="ordfeminine" format="2">
  <advance width="1054.0"/>
  <unicode hex="00AA"/>
  <outline>
    <contour>
      <point x="384.04545454545456" y="590.0" type="curve" smooth="yes"/>
      <point x="459.8636363636364" y="590.0"/>
      <point x="528.9090909090909" y="615.0454545454545"/>
      <point x="594.1818181818181" y="676.0" type="curve"/>
      <point x="612.1818181818181" y="700.0" type="line"/>
      <point x="611.4090909090909" y="676.0" type="line"/>
      <point x="619.4090909090909" y="646.0"/>
      <point x="629.4090909090909" y="622.4545454545455"/>
      <point x="651.7272727272727" y="604.0" type="curve"/>
      <point x="776.2727272727273" y="604.0" type="line"/>
      <point x="770.2727272727273" y="654.0"/>
      <point x="768.2727272727273" y="732.0"/>
      <point x="782.2727272727273" y="844.0" type="curve" name="hr00"/>
      <point x="808.2727272727273" y="1044.0" type="line"/>
      <point x="830.2727272727273" y="1232.0"/>
      <point x="735.5" y="1342.0"/>
      <point x="537.8636363636364" y="1342.0" type="curve" smooth="yes"/>
      <point x="475.8636363636364" y="1342.0"/>
      <point x="399.72727272727275" y="1334.0"/>
      <point x="305.72727272727275" y="1294.0" type="curve"/>
      <point x="329.40909090909093" y="1186.0454545454545" type="line"/>
      <point x="393.27272727272725" y="1208.8181818181818"/>
      <point x="446.6363636363636" y="1217.590909090909"/>
      <point x="496.6363636363636" y="1217.590909090909" type="curve" smooth="yes"/>
      <point x="605.0" y="1217.590909090909"/>
      <point x="659.7272727272727" y="1164.0"/>
      <point x="645.7272727272727" y="1054.0" type="curve"/>
      <point x="614.9545454545455" y="800.4545454545455" type="line"/>
      <point x="556.6363636363636" y="735.8181818181819"/>
      <point x="489.54545454545456" y="708.2727272727273"/>
      <point x="427.54545454545456" y="708.2727272727273" type="curve" smooth="yes"/>
      <point x="367.8181818181818" y="708.2727272727273"/>
      <point x="337.5" y="747.3636363636364"/>
      <point x="342.27272727272725" y="798.0" type="curve" smooth="yes"/>
      <point x="349.04545454545456" y="847.5454545454545"/>
      <point x="380.72727272727275" y="888.1818181818181"/>
      <point x="478.5" y="904.5" type="curve" smooth="yes"/>
      <point x="552.5" y="916.9545454545455"/>
      <point x="583.7272727272727" y="996.7727272727273"/>
      <point x="593.7272727272727" y="1028.7727272727273" type="curve"/>
      <point x="301.72727272727275" y="996.7727272727273"/>
      <point x="190.5" y="923.8636363636364"/>
      <point x="173.72727272727272" y="788.0" type="curve" smooth="yes"/>
      <point x="158.5" y="667.4090909090909"/>
      <point x="247.86363636363637" y="590.0"/>
    </contour>
  </outline>
</glyph>
<glyph name="logicalnot" format="2">
  <advance width="1165.0"/>
  <unicode hex="00AC"/>
  <outline>
    <contour>
      <point x="929.1363636363636" y="312.0" type="line"/>
      <point x="1116.8636363636363" y="312.0" type="line"/>
      <point x="1187.3181818181818" y="896.8636363636364" type="line" name="hr00"/>
      <point x="194.45454545454547" y="896.8636363636364" type="line"/>
      <point x="173.54545454545453" y="727.1363636363636" type="line"/>
      <point x="978.6818181818181" y="727.1363636363636" type="line"/>
    </contour>
  </outline>
</glyph>
<glyph name="registered" format="2">
  <advance width="1440.0"/>
  <unicode hex="00AE"/>
  <outline>
    <contour>
      <point x="718.7727272727273" y="49.72727272727273" type="curve" smooth="yes"/>
      <point x="1102.7727272727273" y="49.72727272727273"/>
      <point x="1412.2727272727273" y="352.0"/>
      <point x="1456.2727272727273" y="714.0" type="curve" smooth="yes"/>
      <point x="1502.7272727272727" y="1088.409090909091"/>
      <point x="1271.3636363636363" y="1372.2727272727273"/>
      <point x="881.2272727272727" y="1372.2727272727273" type="curve" name="hr00"/>
      <point x="493.22727272727275" y="1372.2727272727273"/>
      <point x="181.72727272727272" y="1070.0"/>
      <point x="137.72727272727272" y="714.0" type="curve" smooth="yes"/>
      <point x="91.27272727272728" y="333.59090909090907"/>
      <point x="324.6363636363636" y="49.72727272727273"/>
    </contour>
    <contour>
      <point x="736.4545454545455" y="190.27272727272728" type="curve"/>
      <point x="453.6363636363636" y="191.04545454545453"/>
      <point x="268.27272727272725" y="394.0"/>
      <point x="306.27272727272725" y="708.0" type="curve" smooth="yes"/>
      <point x="344.27272727272725" y="1026.0"/>
      <point x="581.1818181818181" y="1232.9545454545455"/>
      <point x="864.7727272727273" y="1233.7272727272727" type="curve"/>
      <point x="1142.3636363636363" y="1233.7272727272727"/>
      <point x="1325.7272727272727" y="1026.0"/>
      <point x="1287.7272727272727" y="714.0" type="curve" smooth="yes"/>
      <point x="1249.7272727272727" y="394.0"/>
      <point x="1014.0454545454545" y="188.72727272727272"/>
    </contour>
    <contour>
      <point x="535.7272727272727" y="378.0" type="line"/>
      <point x="684.2727272727273" y="378.0" type="line"/>
      <point x="753.8181818181819" y="949.5909090909091" type="line"/>
      <point x="789.8181818181819" y="953.5909090909091"/>
      <point x="799.5454545454545" y="955.5909090909091"/>
      <point x="823.5454545454545" y="955.5909090909091" type="curve" smooth="yes"/>
      <point x="903.5454545454545" y="955.5909090909091"/>
      <point x="945.7272727272727" y="917.0909090909091"/>
      <point x="937.7272727272727" y="862.0" type="curve" smooth="yes"/>
      <point x="932.9545454545455" y="813.6818181818181"/>
      <point x="904.4545454545455" y="774.2727272727273"/>
      <point x="857.2272727272727" y="763.8181818181819" type="curve" smooth="yes"/>
      <point x="797.2272727272727" y="752.1363636363636"/>
      <point x="769.5454545454545" y="700.4545454545455"/>
      <point x="750.7727272727273" y="656.1818181818181" type="curve"/>
      <point x="773.7272727272727" y="656.1818181818181"/>
      <point x="778.1363636363636" y="656.1818181818181"/>
      <point x="801.0909090909091" y="656.9545454545455" type="curve"/>
      <point x="894.3181818181819" y="618.9545454545455"/>
      <point x="861.7272727272727" y="486.0"/>
      <point x="899.7272727272727" y="378.0" type="curve"/>
      <point x="1056.2727272727273" y="378.0" type="line"/>
      <point x="1015.5" y="497.54545454545456"/>
      <point x="1034.2727272727273" y="611.4090909090909"/>
      <point x="963.9545454545455" y="671.4090909090909" type="curve"/>
      <point x="937.6818181818181" y="687.5454545454545" type="line"/>
      <point x="970.0909090909091" y="694.7727272727273" type="line"/>
      <point x="1038.8636363636363" y="728.7727272727273"/>
      <point x="1083.5" y="788.4545454545455"/>
      <point x="1092.2727272727273" y="862.0" type="curve"/>
      <point x="1108.2727272727273" y="992.0"/>
      <point x="1001.0454545454545" y="1072.0"/>
      <point x="838.0" y="1072.0" type="curve" smooth="yes"/>
      <point x="768.0" y="1072.0"/>
      <point x="695.7272727272727" y="1061.5454545454545"/>
      <point x="616.5" y="1043.5454545454545" type="curve"/>
    </contour>
  </outline>
</glyph>
<glyph name="degree" format="2">
  <advance width="674.0"/>
  <unicode hex="00B0"/>
  <outline>
    <contour>
      <point x="466.77272727272725" y="953.7272727272727" type="curve"/>
      <point x="618.7272727272727" y="953.7272727272727"/>
      <point x="784.2727272727273" y="1069.6818181818182"/>
      <point x="806.2727272727273" y="1246.0" type="curve"/>
      <point x="828.2727272727273" y="1429.2272727272727"/>
      <point x="689.1818181818181" y="1538.2727272727273"/>
      <point x="537.2272727272727" y="1538.2727272727273" type="curve"/>
      <point x="373.6818181818182" y="1538.2727272727273"/>
      <point x="218.1818181818182" y="1410.7272727272727"/>
      <point x="197.72727272727272" y="1246.0" type="curve"/>
      <point x="176.5" y="1070.5"/>
      <point x="307.09090909090907" y="953.7272727272727"/>
    </contour>
    <contour>
      <point x="482.45454545454544" y="1081.9545454545455" type="curve"/>
      <point x="391.3181818181818" y="1081.9545454545455"/>
      <point x="338.72727272727275" y="1149.8636363636363"/>
      <point x="350.72727272727275" y="1246.0" type="curve"/>
      <point x="361.95454545454544" y="1339.8181818181818"/>
      <point x="431.6363636363636" y="1411.2727272727273"/>
      <point x="522.7727272727273" y="1411.2727272727273" type="curve" name="hr00"/>
      <point x="603.8636363636364" y="1411.2727272727273"/>
      <point x="668.0454545454545" y="1349.8636363636363"/>
      <point x="655.2727272727273" y="1246.0" type="curve"/>
      <point x="644.8181818181819" y="1156.8181818181818"/>
      <point x="575.9090909090909" y="1081.9545454545455"/>
    </contour>
  </outline>
</glyph>
<glyph name="plusminus" format="2">
  <advance width="1136.0"/>
  <unicode hex="00B1"/>
  <outline>
    <contour>
      <point x="498.8181818181818" y="268.54545454545456" type="line"/>
      <point x="685.3181818181819" y="268.54545454545456" type="line"/>
      <point x="725.1818181818181" y="586.3636363636364" type="line"/>
      <point x="1101.5454545454545" y="586.3636363636364" type="line"/>
      <point x="1122.4545454545455" y="753.6363636363636" type="line"/>
      <point x="746.0909090909091" y="753.6363636363636" type="line"/>
      <point x="783.9545454545455" y="1067.4545454545455" type="line"/>
      <point x="597.4545454545455" y="1067.4545454545455" type="line"/>
      <point x="559.5909090909091" y="753.6363636363636" type="line"/>
      <point x="186.45454545454547" y="753.6363636363636" type="line" name="hr00"/>
      <point x="165.54545454545453" y="586.3636363636364" type="line"/>
      <point x="538.6818181818181" y="586.3636363636364" type="line"/>
    </contour>
    <contour>
      <point x="94.0" y="0.0" type="line"/>
      <point x="1030.0" y="0.0" type="line"/>
      <point x="1050.1363636363637" y="168.95454545454544" type="line"/>
      <point x="114.13636363636364" y="168.95454545454544" type="line"/>
    </contour>
  </outline>
</glyph>
<glyph name="twosuperior" format="2">
  <advance width="804.0"/>
  <unicode hex="00B2"/>
  <outline>
    <contour>
      <point x="217.0909090909091" y="620.0" type="line"/>
      <point x="744.0" y="620.0" type="line"/>
      <point x="760.4545454545455" y="756.4090909090909" type="line"/>
      <point x="456.6818181818182" y="756.4090909090909" type="line"/>
      <point x="429.45454545454544" y="752.4090909090909" type="line"/>
      <point x="450.6818181818182" y="772.4090909090909" type="line"/>
      <point x="570.8181818181819" y="928.4090909090909"/>
      <point x="796.2727272727273" y="1064.0"/>
      <point x="820.2727272727273" y="1256.0" type="curve" smooth="yes" name="hr00"/>
      <point x="836.2727272727273" y="1394.0"/>
      <point x="725.6363636363636" y="1472.0"/>
      <point x="574.2727272727273" y="1472.0" type="curve" smooth="yes"/>
      <point x="510.27272727272725" y="1472.0"/>
      <point x="430.0" y="1460.7727272727273"/>
      <point x="354.0" y="1422.0" type="curve"/>
      <point x="392.1363636363636" y="1314.0454545454545" type="line"/>
      <point x="441.54545454545456" y="1333.590909090909"/>
      <point x="487.54545454545456" y="1345.590909090909"/>
      <point x="533.5454545454545" y="1345.590909090909" type="curve"/>
      <point x="613.8636363636364" y="1345.590909090909"/>
      <point x="663.2727272727273" y="1312.3636363636363"/>
      <point x="655.7272727272727" y="1242.0" type="curve"/>
      <point x="636.9545454545455" y="1090.1363636363637"/>
      <point x="404.04545454545456" y="953.6818181818181"/>
      <point x="226.3181818181818" y="703.0454545454545" type="curve"/>
    </contour>
  </outline>
</glyph>
<glyph name="threesuperior" format="2">
  <advance width="762.0"/>
  <unicode hex="00B3"/>
  <outline>
    <contour>
      <point x="388.0" y="602.0" type="curve" smooth="yes"/>
      <point x="572.0" y="602.0"/>
      <point x="719.8181818181819" y="710.0454545454545"/>
      <point x="739.0454545454545" y="861.5454545454545" type="curve" smooth="yes"/>
      <point x="754.2727272727273" y="981.5454545454545"/>
      <point x="672.2727272727273" y="1056.4545454545455"/>
      <point x="584.2727272727273" y="1078.4545454545455" type="curve"/>
      <point x="680.2727272727273" y="1120.4545454545455"/>
      <point x="752.2727272727273" y="1193.5454545454545"/>
      <point x="762.2727272727273" y="1277.5454545454545" type="curve" smooth="yes"/>
      <point x="777.5" y="1402.2727272727273"/>
      <point x="678.0" y="1470.0"/>
      <point x="532.0" y="1470.0" type="curve" smooth="yes"/>
      <point x="466.0" y="1470.0"/>
      <point x="395.22727272727275" y="1458.7727272727273"/>
      <point x="316.0" y="1420.0" type="curve"/>
      <point x="350.0" y="1311.2727272727273" type="line"/>
      <point x="407.22727272727275" y="1330.8181818181818"/>
      <point x="457.54545454545456" y="1341.590909090909"/>
      <point x="503.54545454545456" y="1341.590909090909" type="curve" smooth="yes" name="hr01"/>
      <point x="566.9545454545455" y="1341.590909090909"/>
      <point x="601.2727272727273" y="1304.0454545454545"/>
      <point x="595.7272727272727" y="1262.0" type="curve"/>
      <point x="587.7272727272727" y="1196.909090909091"/>
      <point x="527.2272727272727" y="1160.590909090909"/>
      <point x="451.22727272727275" y="1130.590909090909" type="curve" smooth="yes"/>
      <point x="385.22727272727275" y="1104.590909090909" type="line"/>
      <point x="385.22727272727275" y="1001.8636363636364" type="line"/>
      <point x="521.2272727272727" y="1001.8636363636364"/>
      <point x="586.5" y="956.1818181818181"/>
      <point x="575.7272727272727" y="866.0" type="curve" smooth="yes"/>
      <point x="565.7272727272727" y="793.6818181818181"/>
      <point x="500.1818181818182" y="730.4090909090909"/>
      <point x="402.45454545454544" y="730.4090909090909" type="curve" smooth="yes"/>
      <point x="339.95454545454544" y="730.4090909090909"/>
      <point x="289.3636363636364" y="749.1818181818181"/>
      <point x="244.13636363636363" y="769.1818181818181" type="curve"/>
      <point x="190.0" y="658.0" type="line"/>
      <point x="226.0" y="634.0"/>
      <point x="302.1363636363636" y="602.0"/>
    </contour>
  </outline>
</glyph>
<glyph name="micro" format="2">
  <advance width="1106.0"/>
  <unicode hex="00B5"/>
  <outline>
    <contour>
      <point x="73.9090909090909" y="-422.0" type="line"/>
      <point x="290.09090909090907" y="-422.0" type="line"/>
      <point x="342.8636363636364" y="20.18181818181818" type="line"/>
      <point x="346.8636363636364" y="74.36363636363636" type="line"/>
      <point x="371.6363636363636" y="36.5" type="line"/>
      <point x="408.8636363636364" y="-0.1363636363636367"/>
      <point x="469.6363636363636" y="-20.0"/>
      <point x="526.0" y="-20.0" type="curve" smooth="yes"/>
      <point x="649.4090909090909" y="-20.0"/>
      <point x="733.2727272727273" y="33.59090909090909"/>
      <point x="797.4090909090909" y="110.95454545454545" type="curve"/>
      <point x="822.5" y="152.8181818181818" type="line"/>
      <point x="826.9545454545455" y="112.18181818181819" type="line"/>
      <point x="850.7727272727273" y="20.0"/>
      <point x="928.2727272727273" y="-16.0"/>
      <point x="1001.6818181818181" y="-16.0" type="curve" smooth="yes"/>
      <point x="1031.6818181818182" y="-16.0"/>
      <point x="1087.7727272727273" y="-8.772727272727273"/>
      <point x="1133.7727272727273" y="8.454545454545455" type="curve"/>
      <point x="1131.7727272727273" y="162.22727272727272" type="line"/>
      <point x="1047.7727272727273" y="158.22727272727272"/>
      <point x="1025.7727272727273" y="198.22727272727272"/>
      <point x="1039.7727272727273" y="310.22727272727275" type="curve" smooth="yes"/>
      <point x="1128.090909090909" y="1034.0" type="line"/>
      <point x="897.9090909090909" y="1034.0" type="line"/>
      <point x="819.9090909090909" y="398.0" type="line" smooth="yes"/>
      <point x="803.1363636363636" y="263.8181818181818"/>
      <point x="689.6818181818181" y="158.22727272727272"/>
      <point x="565.6818181818181" y="158.22727272727272" type="curve" smooth="yes" name="hr01"/>
      <point x="443.45454545454544" y="158.22727272727272"/>
      <point x="386.09090909090907" y="262.0"/>
      <point x="404.09090909090907" y="420.0" type="curve" smooth="yes"/>
      <point x="480.09090909090907" y="1034.0" type="line"/>
      <point x="251.9090909090909" y="1034.0" type="line"/>
    </contour>
  </outline>
</glyph>
<glyph name="onesuperior" format="2">
  <advance width="638.0"/>
  <unicode hex="00B9"/>
  <outline>
    <contour>
      <point x="419.59090909090907" y="618.0" type="line" name="hr00"/>
      <point x="594.4090909090909" y="618.0" type="line"/>
      <point x="698.4090909090909" y="1454.0" type="line"/>
      <point x="614.0" y="1454.0" type="line"/>
      <point x="324.6818181818182" y="1308.9545454545455" type="line"/>
      <point x="375.27272727272725" y="1194.090909090909" type="line"/>
      <point x="498.6818181818182" y="1251.9545454545455" type="line"/>
    </contour>
  </outline>
</glyph>
<glyph name="ordmasculine" format="2">
  <advance width="860.0"/>
  <unicode hex="00BA"/>
  <outline>
    <contour>
      <point x="500.0" y="588.0" type="curve" name="hr00"/>
      <point x="725.4545454545455" y="588.0"/>
      <point x="870.7272727272727" y="753.6363636363636"/>
      <point x="896.2727272727273" y="966.0" type="curve"/>
      <point x="923.8181818181819" y="1197.1363636363637"/>
      <point x="806.3636363636364" y="1342.0"/>
      <point x="592.0" y="1342.0" type="curve"/>
      <point x="368.5" y="1342.0"/>
      <point x="221.72727272727272" y="1174.0"/>
      <point x="195.72727272727272" y="966.0" type="curve"/>
      <point x="166.5" y="728.6363636363636"/>
      <point x="288.1818181818182" y="588.0"/>
    </contour>
    <contour>
      <point x="514.4545454545455" y="716.4090909090909" type="curve"/>
      <point x="397.09090909090907" y="716.4090909090909"/>
      <point x="347.95454545454544" y="818.6818181818181"/>
      <point x="366.27272727272725" y="966.0" type="curve"/>
      <point x="382.27272727272725" y="1104.0"/>
      <point x="459.04545454545456" y="1215.590909090909"/>
      <point x="575.5454545454545" y="1215.590909090909" type="curve"/>
      <point x="701.9090909090909" y="1215.590909090909"/>
      <point x="743.7272727272727" y="1101.3636363636363"/>
      <point x="727.7272727272727" y="966.0" type="curve"/>
      <point x="709.7272727272727" y="826.4545454545455"/>
      <point x="635.0909090909091" y="716.4090909090909"/>
    </contour>
  </outline>
</glyph>
<glyph name="onequarter" format="2">
  <advance width="1396.0"/>
  <unicode hex="00BC"/>
  <outline>
    <contour>
      <point x="149.77272727272728" y="0.0" type="line" name="hr00"/>
      <point x="330.22727272727275" y="0.0" type="line"/>
      <point x="1380.2272727272727" y="1454.0" type="line"/>
      <point x="1199.7727272727273" y="1454.0" type="line"/>
    </contour>
    <contour>
      <point x="299.59090909090907" y="618.0" type="line"/>
      <point x="474.40909090909093" y="618.0" type="line"/>
      <point x="578.4090909090909" y="1454.0" type="line"/>
      <point x="494.0" y="1454.0" type="line"/>
      <point x="204.6818181818182" y="1308.9545454545455" type="line"/>
      <point x="255.27272727272728" y="1194.090909090909" type="line"/>
      <point x="378.6818181818182" y="1251.9545454545455" type="line"/>
    </contour>
    <contour>
      <point x="1075.7272727272727" y="0.0" type="line"/>
      <point x="1228.2727272727273" y="0.0" type="line"/>
      <point x="1248.2727272727273" y="169.4090909090909" type="line"/>
      <point x="1344.2727272727273" y="169.4090909090909" type="line"/>
      <point x="1359.5" y="295.8181818181818" type="line"/>
      <point x="1263.5" y="295.8181818181818" type="line"/>
      <point x="1330.2727272727273" y="846.0" type="line"/>
      <point x="1159.7272727272727" y="846.0" type="line"/>
      <point x="717.7272727272727" y="287.54545454545456" type="line"/>
      <point x="703.7272727272727" y="169.4090909090909" type="line"/>
      <point x="1042.6363636363637" y="169.4090909090909" type="line"/>
      <point x="1028.6363636363637" y="222.45454545454547"/>
      <point x="1000.0" y="296.59090909090907"/>
      <point x="929.8181818181819" y="296.59090909090907" type="curve"/>
      <point x="908.4090909090909" y="296.59090909090907" type="line"/>
      <point x="880.5454545454545" y="295.04545454545456" type="line"/>
      <point x="899.6363636363636" y="316.59090909090907" type="line"/>
      <point x="1117.4545454545455" y="585.0454545454545" type="line"/>
      <point x="1154.3636363636363" y="632.7272727272727" type="line"/>
      <point x="1146.8181818181818" y="583.5" type="line"/>
    </contour>
  </outline>
</glyph>
<glyph name="onehalf" format="2">
  <advance width="1526.0"/>
  <unicode hex="00BD"/>
  <outline>
    <contour>
      <point x="149.77272727272728" y="0.0" type="line" name="hr00"/>
      <point x="330.22727272727275" y="0.0" type="line"/>
      <point x="1380.2272727272727" y="1454.0" type="line"/>
      <point x="1199.7727272727273" y="1454.0" type="line"/>
    </contour>
    <contour>
      <point x="299.59090909090907" y="618.0" type="line"/>
      <point x="474.40909090909093" y="618.0" type="line"/>
      <point x="578.4090909090909" y="1454.0" type="line"/>
      <point x="494.0" y="1454.0" type="line"/>
      <point x="204.6818181818182" y="1308.9545454545455" type="line"/>
      <point x="255.27272727272728" y="1194.090909090909" type="line"/>
      <point x="378.6818181818182" y="1251.9545454545455" type="line"/>
    </contour>
    <contour>
      <point x="847.0909090909091" y="0.0" type="line"/>
      <point x="1374.0" y="0.0" type="line"/>
      <point x="1390.4545454545455" y="136.4090909090909" type="line"/>
      <point x="1091.590909090909" y="136.4090909090909" type="line"/>
      <point x="1058.6818181818182" y="132.4090909090909" type="line"/>
      <point x="1081.909090909091" y="154.86363636363637" type="line"/>
      <point x="1202.0454545454545" y="310.8636363636364"/>
      <point x="1426.2727272727273" y="444.0"/>
      <point x="1450.2727272727273" y="636.0" type="curve" smooth="yes"/>
      <point x="1466.2727272727273" y="774.0"/>
      <point x="1355.6363636363637" y="852.0"/>
      <point x="1204.2727272727273" y="852.0" type="curve" smooth="yes"/>
      <point x="1140.2727272727273" y="852.0"/>
      <point x="1060.0" y="840.7727272727273"/>
      <point x="984.0" y="802.0" type="curve"/>
      <point x="1020.9090909090909" y="694.0454545454545" type="line"/>
      <point x="1070.7727272727273" y="713.5909090909091"/>
      <point x="1117.5454545454545" y="725.5909090909091"/>
      <point x="1163.5454545454545" y="725.5909090909091" type="curve"/>
      <point x="1243.8636363636363" y="725.5909090909091"/>
      <point x="1293.2727272727273" y="692.3636363636364"/>
      <point x="1285.7272727272727" y="622.0" type="curve"/>
      <point x="1266.9545454545455" y="470.1363636363636"/>
      <point x="1034.0454545454545" y="333.6818181818182"/>
      <point x="856.3181818181819" y="83.04545454545455" type="curve"/>
    </contour>
  </outline>
</glyph>
<glyph name="threequarters" format="2">
  <advance width="1432.0"/>
  <unicode hex="00BE"/>
  <outline>
    <contour>
      <point x="223.3181818181818" y="0.0" type="line"/>
      <point x="403.77272727272725" y="0.0" type="line"/>
      <point x="1453.7727272727273" y="1454.0" type="line"/>
      <point x="1273.3181818181818" y="1454.0" type="line"/>
    </contour>
    <contour>
      <point x="327.22727272727275" y="602.0" type="curve" smooth="yes"/>
      <point x="511.22727272727275" y="602.0"/>
      <point x="659.0454545454545" y="710.0454545454545"/>
      <point x="678.2727272727273" y="861.5454545454545" type="curve" smooth="yes"/>
      <point x="693.5" y="981.5454545454545"/>
      <point x="611.5" y="1056.4545454545455"/>
      <point x="523.5" y="1078.4545454545455" type="curve"/>
      <point x="619.5" y="1120.4545454545455"/>
      <point x="691.5" y="1193.5454545454545"/>
      <point x="701.5" y="1277.5454545454545" type="curve" smooth="yes"/>
      <point x="716.7272727272727" y="1402.2727272727273"/>
      <point x="617.2272727272727" y="1470.0"/>
      <point x="471.22727272727275" y="1470.0" type="curve" smooth="yes"/>
      <point x="405.22727272727275" y="1470.0"/>
      <point x="334.45454545454544" y="1458.7727272727273"/>
      <point x="255.22727272727272" y="1420.0" type="curve"/>
      <point x="289.22727272727275" y="1311.2727272727273" type="line"/>
      <point x="346.45454545454544" y="1330.8181818181818"/>
      <point x="396.77272727272725" y="1341.590909090909"/>
      <point x="442.77272727272725" y="1341.590909090909" type="curve" smooth="yes" name="hr02"/>
      <point x="506.1818181818182" y="1341.590909090909"/>
      <point x="540.5" y="1304.0454545454545"/>
      <point x="534.9545454545455" y="1262.0" type="curve"/>
      <point x="526.9545454545455" y="1196.909090909091"/>
      <point x="466.45454545454544" y="1160.590909090909"/>
      <point x="390.45454545454544" y="1130.590909090909" type="curve" smooth="yes"/>
      <point x="324.45454545454544" y="1104.590909090909" type="line"/>
      <point x="324.45454545454544" y="1001.8636363636364" type="line" name="hr01"/>
      <point x="460.45454545454544" y="1001.8636363636364"/>
      <point x="525.7272727272727" y="956.1818181818181"/>
      <point x="514.9545454545455" y="866.0" type="curve" smooth="yes"/>
      <point x="504.95454545454544" y="793.6818181818181"/>
      <point x="439.40909090909093" y="730.4090909090909"/>
      <point x="341.6818181818182" y="730.4090909090909" type="curve" smooth="yes"/>
      <point x="279.1818181818182" y="730.4090909090909"/>
      <point x="228.5909090909091" y="749.1818181818181"/>
      <point x="183.36363636363637" y="769.1818181818181" type="curve"/>
      <point x="129.22727272727272" y="658.0" type="line"/>
      <point x="165.22727272727272" y="634.0"/>
      <point x="241.36363636363637" y="602.0"/>
    </contour>
    <contour>
      <point x="1149.2727272727273" y="0.0" type="line"/>
      <point x="1301.8181818181818" y="0.0" type="line"/>
      <point x="1321.8181818181818" y="169.4090909090909" type="line"/>
      <point x="1417.8181818181818" y="169.4090909090909" type="line"/>
      <point x="1433.0454545454545" y="295.8181818181818" type="line"/>
      <point x="1337.0454545454545" y="295.8181818181818" type="line"/>
      <point x="1403.8181818181818" y="846.0" type="line"/>
      <point x="1233.2727272727273" y="846.0" type="line"/>
      <point x="791.2727272727273" y="287.54545454545456" type="line"/>
      <point x="777.2727272727273" y="169.4090909090909" type="line"/>
      <point x="1116.1818181818182" y="169.4090909090909" type="line"/>
      <point x="1102.1818181818182" y="222.45454545454547"/>
      <point x="1073.5454545454545" y="296.59090909090907"/>
      <point x="1003.3636363636364" y="296.59090909090907" type="curve"/>
      <point x="957.1818181818181" y="296.59090909090907" type="line"/>
      <point x="1225.590909090909" y="628.0909090909091" type="line"/>
    </contour>
  </outline>
</glyph>
<glyph name="questiondown" format="2">
  <advance width="1166.0"/>
  <unicode hex="00BF"/>
  <outline>
    <contour>
      <point x="563.9545454545455" y="-441.22727272727275" type="curve" smooth="yes" name="hr00"/>
      <point x="673.9545454545455" y="-441.22727272727275"/>
      <point x="779.5" y="-425.22727272727275"/>
      <point x="926.2272727272727" y="-359.22727272727275" type="curve"/>
      <point x="883.6363636363636" y="-192.0909090909091" type="line"/>
      <point x="757.3636363636364" y="-247.63636363636363"/>
      <point x="682.8636363636364" y="-257.95454545454544"/>
      <point x="606.8636363636364" y="-257.95454545454544" type="curve"/>
      <point x="489.0" y="-257.95454545454544"/>
      <point x="417.1363636363636" y="-191.45454545454544"/>
      <point x="428.6818181818182" y="-95.27272727272728" type="curve" smooth="yes"/>
      <point x="455.77272727272725" y="129.77272727272728"/>
      <point x="803.0" y="216.5"/>
      <point x="851.3181818181819" y="607.5454545454545" type="curve"/>
      <point x="650.8636363636364" y="607.5454545454545" type="line"/>
      <point x="613.0" y="304.1363636363636"/>
      <point x="211.0" y="176.8181818181818"/>
      <point x="173.45454545454544" y="-125.27272727272728" type="curve" smooth="yes"/>
      <point x="151.0" y="-317.8181818181818"/>
      <point x="311.8636363636364" y="-441.22727272727275"/>
    </contour>
    <contour>
      <point x="770.6363636363636" y="765.0909090909091" type="curve" smooth="yes"/>
      <point x="854.5909090909091" y="765.0909090909091"/>
      <point x="927.3181818181819" y="831.8181818181819"/>
      <point x="938.5454545454545" y="915.3181818181819" type="curve" smooth="yes"/>
      <point x="947.7727272727273" y="998.0454545454545"/>
      <point x="891.9545454545455" y="1061.5454545454545"/>
      <point x="808.0" y="1061.5454545454545" type="curve" smooth="yes"/>
      <point x="724.5" y="1061.5454545454545"/>
      <point x="651.7727272727273" y="998.0454545454545"/>
      <point x="642.5454545454545" y="915.3181818181819" type="curve" smooth="yes"/>
      <point x="631.3181818181819" y="831.8181818181819"/>
      <point x="687.1363636363636" y="765.0909090909091"/>
    </contour>
  </outline>
</glyph>
<glyph name="AE" format="2">
  <advance width="1950.0"/>
  <unicode hex="00C6"/>
  <anchor x="932.6363636363636" y="0.0" name="bottom"/>
  <anchor x="1115.090909090909" y="1454.0" name="top"/>
  <outline>
    <contour>
      <point x="16.227272727272727" y="0.0" type="line"/>
      <point x="265.77272727272725" y="0.0" type="line"/>
      <point x="467.04545454545456" y="329.59090909090907" type="line"/>
      <point x="948.5454545454545" y="329.59090909090907" type="line"/>
      <point x="930.5454545454545" y="412.95454545454544"/>
      <point x="891.3181818181819" y="511.6363636363636"/>
      <point x="783.0454545454545" y="511.6363636363636" type="curve" smooth="yes"/>
      <point x="601.9090909090909" y="511.6363636363636" type="line"/>
      <point x="561.4545454545455" y="507.6363636363636" type="line"/>
      <point x="596.6818181818181" y="548.4090909090909" type="line"/>
      <point x="964.2272727272727" y="1147.409090909091" type="line"/>
      <point x="1001.7727272727273" y="1221.2727272727273" type="line"/>
      <point x="997.0" y="1144.9545454545455" type="line" name="hr00"/>
      <point x="1032.8636363636363" y="0.0" type="line"/>
      <point x="1829.2272727272727" y="0.0" type="line"/>
      <point x="1850.1363636363637" y="182.04545454545456" type="line"/>
      <point x="1258.090909090909" y="182.04545454545456" type="line"/>
      <point x="1227.0" y="1271.9545454545455" type="line"/>
      <point x="1843.090909090909" y="1271.9545454545455" type="line"/>
      <point x="1866.0" y="1454.0" type="line"/>
      <point x="935.9090909090909" y="1454.0" type="line"/>
    </contour>
    <contour>
      <point x="1315.0" y="673.5909090909091" type="curve"/>
      <point x="1789.5454545454545" y="673.5909090909091" type="line"/>
      <point x="1812.4545454545455" y="851.6363636363636" type="line"/>
      <point x="1541.1818181818182" y="851.6363636363636" type="line"/>
      <point x="1419.409090909091" y="851.6363636363636"/>
      <point x="1353.909090909091" y="763.0909090909091"/>
    </contour>
  </outline>
</glyph>
<glyph name="multiply" format="2">
  <advance width="1136.0"/>
  <unicode hex="00D7"/>
  <outline>
    <contour>
      <point x="231.95454545454547" y="139.5909090909091" type="line"/>
      <point x="620.3181818181819" y="483.1818181818182" type="line"/>
      <point x="921.1363636363636" y="139.5909090909091" type="line"/>
      <point x="1064.8636363636363" y="266.40909090909093" type="line"/>
      <point x="762.8181818181819" y="612.0" type="line"/>
      <point x="1143.9545454545455" y="953.5909090909091" type="line"/>
      <point x="1034.0454545454545" y="1080.409090909091" type="line"/>
      <point x="651.6818181818181" y="738.8181818181819" type="line"/>
      <point x="350.8636363636364" y="1080.409090909091" type="line"/>
      <point x="205.13636363636363" y="953.5909090909091" type="line"/>
      <point x="507.1818181818182" y="612.0" type="line"/>
      <point x="122.04545454545455" y="266.40909090909093" type="line" name="hr00"/>
    </contour>
  </outline>
</glyph>
